<svg width="56" height="56" viewBox="0 0 56 56" fill="none" xmlns="http://www.w3.org/2000/svg">
<path fill-rule="evenodd" clip-rule="evenodd" d="M27.8438 6L28.6971 7.90739L30.6282 6.64891L29.4222 9.31254H26.3107L25.0596 6.64891L27.0066 7.87189L27.8438 6ZM10.3384 14.2345C11.3141 13.1321 12.212 11.922 12.9828 10.7055C13.0518 10.5967 13.129 10.4803 13.2103 10.3577C13.7779 9.50191 14.546 8.34378 14.1131 7.34613C12.3102 8.11165 10.5856 9.6078 9.86629 11.3428C9.46922 12.3003 8.88197 13.84 9.85486 14.7652L9.85522 14.7648L9.87233 14.7804C8.67811 16.099 7.68261 17.5758 6.89874 19.165C7.4171 17.8651 7.81811 16.488 8.0751 15.1513C8.09717 15.0365 8.12245 14.915 8.14881 14.7883L8.14883 14.7882C8.35849 13.7802 8.63546 12.4486 7.89431 11.6436C6.53147 12.9282 5.5526 14.9496 5.46542 16.7222C5.41475 17.7525 5.36966 19.3668 6.5333 19.9487C5.90429 21.3784 5.44081 22.8895 5.15167 24.4509C5.21217 23.2528 5.16809 22.0389 5.01976 20.8911C5.00545 20.7803 4.99189 20.663 4.9778 20.541C4.8593 19.5157 4.70282 18.1618 3.74659 17.6255C2.8904 19.2893 2.59572 21.5001 3.03524 23.2116C3.28394 24.1803 3.70099 25.7111 4.93155 25.9319C4.74947 27.5486 4.7505 29.2071 4.94389 30.875C4.61803 29.5906 4.19 28.3237 3.68508 27.1394C3.6441 27.0433 3.60148 26.9405 3.55687 26.8329L3.55685 26.8328L3.55675 26.8326L3.55668 26.8324C3.11836 25.7752 2.48708 24.2527 1.31061 24.0137C0.92436 26.1413 1.23153 28.6068 2.28592 30.3854C2.86406 31.3607 3.84929 32.8198 5.21354 32.602C5.56128 34.3611 6.11491 35.9868 6.84658 37.4689C6.07955 36.2576 5.22088 35.0921 4.31096 34.0344C4.24022 33.9522 4.16562 33.8635 4.08738 33.7706C3.32971 32.8705 2.2311 31.5653 1 31.7329C1.25124 33.9797 2.31101 36.3629 3.9431 37.7651C4.85183 38.5458 6.34297 39.6452 7.62514 38.884C8.61322 40.5039 9.83183 41.9233 11.2366 43.1259C11.4226 43.334 11.6193 43.5311 11.8251 43.715C10.3319 42.6157 8.75403 41.5856 7.17222 40.6951C7.06613 40.6354 6.95313 40.57 6.83437 40.5012C5.75251 39.8748 4.19237 38.9714 3.02148 39.5825C4.04636 41.8132 6.00855 43.8211 8.20951 44.5828C9.45846 45.0151 11.4732 45.5513 12.4812 44.2065L12.4803 44.2058C12.4969 44.1821 12.513 44.1582 12.5285 44.134C14.3442 45.4238 16.4099 46.3936 18.6485 47.0153C18.9301 47.1158 19.2155 47.2026 19.5021 47.2752C17.3537 46.9153 15.1815 46.6041 13.0407 46.3787C12.8785 46.3616 12.7 46.3391 12.5097 46.3152L12.5096 46.3152C11.1524 46.1447 9.19721 45.899 8.28809 46.9828C10.3751 48.83 13.3725 49.9272 16.0669 49.7035C17.381 49.5944 20.2757 49.2962 20.5121 47.4482L20.5109 47.448L20.5115 47.4446C21.6581 47.6566 22.8415 47.7823 24.0527 47.8182L24.0581 47.6333C22.8513 47.5975 21.6726 47.4721 20.5311 47.2603C20.6007 46.0415 19.4926 44.8489 18.6709 43.9647C18.5542 43.8391 18.4432 43.7196 18.3422 43.6072C17.1286 42.2566 15.864 40.855 14.4461 39.6872C13.3838 40.9367 13.9454 42.6225 14.596 43.8254C15.1669 44.8809 16.1203 45.7442 17.235 46.3724C15.5704 45.7738 14.0206 44.9699 12.6214 43.9742C13.1522 42.9591 12.8235 41.5751 12.5668 40.4944C12.5413 40.3867 12.5164 40.2821 12.4932 40.1812C12.1216 38.5648 11.6072 36.8817 10.8428 35.3882C9.50986 36.1018 9.35435 37.751 9.42525 39.0408C9.48625 40.1501 9.91647 41.2904 10.5826 42.2832C9.51249 41.2516 8.56937 40.0809 7.77649 38.7797C8.72431 38.0542 8.91191 36.6438 9.05771 35.5476L9.05777 35.5471L9.05796 35.5457C9.06697 35.4779 9.07583 35.4114 9.0847 35.3462C9.29333 33.8126 9.39156 32.1137 9.13237 30.5234C7.7043 30.7081 7.12757 32.1901 6.7924 33.3141C6.4589 34.4324 6.50111 35.8178 6.86521 37.0856C6.21139 35.698 5.71281 34.1872 5.39173 32.5615C6.48402 32.2398 7.0734 31.0272 7.53618 30.0751L7.53624 30.075L7.53681 30.0738L7.53746 30.0724L7.53803 30.0713L7.53827 30.0708L7.53876 30.0698C7.57117 30.0031 7.60296 29.9377 7.63426 29.874C8.28757 28.5444 8.83977 26.9932 9.03744 25.4713C7.6979 25.1888 6.754 26.3659 6.13838 27.2796C5.50743 28.216 5.15265 29.5108 5.11803 30.7909C4.93336 29.1579 4.9346 27.5347 5.11284 25.9523C6.12011 26.0026 6.94009 25.1253 7.56948 24.452L7.56974 24.4517C7.6064 24.4125 7.6424 24.374 7.67776 24.3364C8.58246 23.3741 9.43889 22.1672 9.98277 20.9046C8.91771 20.316 7.83502 21.073 7.0657 21.6879C6.28951 22.3082 5.71423 23.2764 5.36397 24.3107C5.65255 22.8235 6.10121 21.3838 6.70205 20.0193C7.62739 20.3462 8.64645 19.7873 9.43466 19.3551C9.48106 19.3296 9.52667 19.3046 9.57141 19.2803C10.7353 18.6464 11.9227 17.7718 12.857 16.7596C12.0129 15.8573 10.7311 16.2274 9.79284 16.5652C8.98118 16.8575 8.2349 17.4536 7.63045 18.1806C8.30424 17.006 9.1013 15.9042 10.0157 14.8959C10.8019 15.4634 11.9314 15.2709 12.8155 15.1203C12.8785 15.1095 12.9403 15.099 13.0006 15.089C14.386 14.8588 15.8593 14.4129 17.1666 13.7817C16.6291 12.6225 15.1811 12.5741 14.1735 12.5973C13.3478 12.6164 12.4454 12.8824 11.6259 13.3241C12.2615 12.7753 12.9394 12.2656 13.6585 11.7996C14.8477 11.6228 16.0227 11.2641 17.1808 10.9106C17.5822 10.7881 17.9816 10.6662 18.3788 10.5526C18.9377 10.3929 19.5053 10.2452 20.0749 10.0969C21.4208 9.74667 22.7778 9.39349 24.0561 8.87264C22.0636 8.06504 19.7147 8.22826 17.8113 8.77842C16.1484 9.25904 14.2018 10.1708 13.2402 11.854L13.2432 11.8536C12.3145 12.4824 11.4565 13.1847 10.6721 13.9502C10.5569 14.0413 10.4455 14.1362 10.3384 14.2345ZM23.7033 14.9442L23.3791 13.9537L23.0549 14.9442H22.0059L22.8546 15.5564L22.5304 16.5469L23.3791 15.9347L24.2277 16.5469L23.9036 15.5564L24.7522 14.9442H23.7033ZM19.7119 13.9551L20.0296 14.9456H21.0576L20.2259 15.5578L20.5436 16.5483L19.7119 15.9361L18.8802 16.5483L19.1979 15.5578L18.3662 14.9456H19.3943L19.7119 13.9551ZM18.0619 21.0428V19.226H17.0647V20.9524C17.0647 21.2614 16.782 21.4687 16.3058 21.4687C15.8072 21.4687 15.5356 21.2689 15.5356 20.9486V19.226H14.5273V20.9486C14.5273 21.8456 15.2528 22.2264 16.2649 22.2264C17.3475 22.2264 18.0619 21.8419 18.0619 21.0428ZM21.4195 22.1849V21.3971H19.6411V19.226H18.6328V22.1849H21.4195ZM24.4158 19.226V19.9686H23.1806V22.1849H22.1612V19.9686H20.9297V19.226H24.4158ZM25.7565 22.1849V19.226H24.7334V22.1849H25.7565ZM30.4507 19.226V22.1849H29.5056V20.5868L28.8137 22.1849H27.9653L27.2808 20.5868V22.1849H26.332V19.226H27.6343L28.3932 21.0014L29.1894 19.226H30.4507ZM32.0305 21.6383H33.6081L33.8648 22.1849H34.94L33.4667 19.226H32.265L30.7061 22.1849H31.7589L32.0305 21.6383ZM33.2918 20.9749H32.358L32.7263 20.2625L32.8379 19.9912L32.9421 20.2588L33.2918 20.9749ZM38.1032 19.226V19.9686H36.8682V22.1849H35.8487V19.9686H34.6172V19.226H38.1032ZM41.4932 22.1849V21.4499H39.3993V21.0654H41.4077V20.3455H39.3993V19.9648H41.4675V19.226H38.417V22.1849H41.4932ZM21.1669 23.7578H22.1306L21.0627 26.7166H19.9689C19.9689 26.7166 19.3847 24.9488 19.381 24.8999C19.3773 24.9488 18.7895 26.7166 18.7895 26.7166H17.6994L16.6055 23.7578H17.6882C17.6882 23.7578 18.3207 25.6198 18.3207 25.665C18.3207 25.6198 18.9048 23.7578 18.9048 23.7578H19.9503C19.9503 23.7578 20.5381 25.6198 20.5381 25.665C20.5381 25.6198 21.1669 23.7578 21.1669 23.7578ZM23.4499 26.7166V23.7578H22.4268V26.7166H23.4499ZM27.4288 23.7578V26.7166H26.4317L24.9844 25.0694V26.7166H24.0244V23.7578H25.0737L26.4763 25.3672V23.7578H27.4288ZM31.415 26.7166V23.7578H30.4626V25.3672L29.0599 23.7578H28.0107V26.7166H28.9706V25.0694L30.4179 26.7166H31.415ZM35.073 25.9816V26.7166H31.9961V23.7578H35.047V24.4965H32.9784V24.8772H34.9874V25.5971H32.9784V25.9816H35.073ZM39.0061 24.6586C39.0061 24.391 38.9425 24.1987 38.8086 24.0593C38.6338 23.8708 38.3326 23.7578 37.871 23.7578H35.5459V26.7166H36.5393V25.6726H37.4434L38.1691 26.7166H39.2778L38.3961 25.5104C38.5929 25.4803 38.7533 25.3597 38.857 25.2165C38.9501 25.0845 39.0061 24.8885 39.0061 24.6586ZM38.039 24.7528C38.039 24.8019 38.0314 24.8621 38.0049 24.9074C37.9678 24.9827 37.871 25.0129 37.7113 25.0129H36.543V24.4739H37.6924C37.849 24.4739 37.9534 24.5003 38.0049 24.5983C38.0314 24.636 38.039 24.6963 38.039 24.7528ZM18.4806 28.1818V29.6277C18.4806 30.1656 18.0536 30.4445 17.3569 30.4445C16.6827 30.4445 16.2275 30.1827 16.2275 29.5906V28.1818H16.5787V29.6021C16.5787 29.9265 16.84 30.1315 17.3709 30.1315C17.8204 30.1315 18.1323 29.9407 18.1323 29.6049V28.1818H18.4806ZM20.9804 30.416V30.0888H19.4605V28.1818H19.1094V30.416H20.9804ZM22.9759 28.1818V28.5063H21.9814V30.416H21.6273V28.5063H20.6328V28.1818H22.9759ZM25.4732 28.8136C25.4732 28.6542 25.4394 28.5376 25.3804 28.4436C25.2765 28.2871 25.077 28.1818 24.7455 28.1818H23.3184V30.416H23.6639V29.474H24.6696L25.2849 30.416H25.6894L25.0236 29.4142C25.1922 29.3943 25.3242 29.2975 25.3944 29.1723C25.4451 29.0869 25.4732 28.9617 25.4732 28.8136ZM25.1247 28.8421C25.1247 28.9047 25.1107 28.9816 25.0855 29.0328C25.0405 29.1153 24.9365 29.158 24.768 29.1609H23.6667V28.5006H24.7034C24.9141 28.5006 25.0264 28.5518 25.0855 28.6486C25.1107 28.6941 25.1247 28.7709 25.1247 28.8421ZM27.8468 29.8639H26.473L26.1864 30.416H25.8184L26.973 28.1818H27.386L28.5042 30.416H28.1277L27.8468 29.8639ZM26.6247 29.5479H27.7006L27.268 28.6913L27.1697 28.4835L27.0713 28.6913L26.6247 29.5479ZM32.0666 30.2026C32.1537 30.1001 32.1931 29.955 32.1931 29.7984C32.1931 29.6505 32.1509 29.5024 32.0638 29.4113C31.9767 29.326 31.8363 29.2549 31.6817 29.2406C31.7716 29.2263 31.8419 29.1694 31.8896 29.1096C31.9655 29.0214 32.0104 28.8791 32.0104 28.7368C32.0104 28.5859 31.9655 28.4493 31.8699 28.3554C31.766 28.2501 31.589 28.1818 31.3418 28.1818H29.8584V30.416H31.4514C31.7492 30.416 31.957 30.3392 32.0666 30.2026ZM31.648 28.808C31.648 28.9076 31.6171 28.9958 31.5638 29.047C31.5103 29.1068 31.4204 29.1324 31.3249 29.1324H30.2011V28.4892H31.2603C31.3895 28.4892 31.4878 28.5148 31.5553 28.5774C31.6143 28.6343 31.648 28.7169 31.648 28.808ZM31.7604 29.9862C31.6901 30.066 31.5693 30.1059 31.3923 30.1059H30.2011V29.4427H31.4008C31.5637 29.4427 31.6761 29.4768 31.7436 29.5423C31.8053 29.6021 31.8307 29.6789 31.8307 29.7671C31.8307 29.8582 31.811 29.935 31.7604 29.9862ZM34.744 30.0888V30.416H32.6875V28.1818H34.7243V28.5063H33.0303V29.1267H34.6766V29.4512H33.0303V30.0888H34.744ZM37.4886 29.7557C37.4886 29.3914 37.2503 29.2036 36.663 29.1353C36.6017 29.1264 36.4961 29.1143 36.3972 29.103L36.397 29.1029L36.3964 29.1029L36.3961 29.1028C36.3363 29.096 36.279 29.0894 36.2357 29.084C35.6907 29.0186 35.5249 28.9446 35.5249 28.7539C35.5249 28.5689 35.7075 28.4636 36.2582 28.4636C36.685 28.4636 36.9044 28.549 37.0142 28.7026C37.0452 28.7453 37.0618 28.7966 37.0702 28.8364H37.4463C37.4357 28.7709 37.4099 28.6799 37.3706 28.6059C37.2192 28.3412 36.9075 28.1505 36.2582 28.1505C35.4828 28.1476 35.1625 28.4323 35.1625 28.7852C35.1625 29.1381 35.4126 29.3174 36.0616 29.3943C36.1536 29.4059 36.304 29.4233 36.4095 29.4355L36.4717 29.4427C36.9748 29.5053 37.1322 29.5821 37.1322 29.7956C37.1322 29.992 36.9521 30.1343 36.3761 30.1343C35.9042 30.1343 35.6513 30.0489 35.5502 29.8838C35.5193 29.8383 35.4997 29.7671 35.4969 29.7188H35.126C35.1345 29.8212 35.1625 29.9322 35.2131 30.0205C35.3592 30.2909 35.7019 30.4474 36.3649 30.4474C37.1572 30.4474 37.4886 30.1884 37.4886 29.7557ZM40.008 28.1818V28.5063H39.0136V30.416H38.6594V28.5063H37.665V28.1818H40.008ZM15.2333 32.358C15.2333 32.1303 15.1884 31.9766 15.1125 31.8599C15.0058 31.6919 14.7978 31.6038 14.4354 31.6038H13.042V33.838H13.3903V33.1093H14.4214C14.7613 33.1065 14.9945 33.0268 15.1182 32.8447C15.1968 32.7337 15.2333 32.5743 15.2333 32.358ZM14.8793 32.358C14.8793 32.4718 14.868 32.5572 14.8316 32.6142C14.7669 32.7194 14.6349 32.7849 14.3624 32.7849H13.3903V31.9225H14.3737C14.6293 31.9225 14.7613 31.9823 14.8316 32.0989C14.8652 32.1502 14.8793 32.2442 14.8793 32.358ZM17.7762 33.5107V33.838H15.7197V31.6038H17.7565V31.9282H16.0625V32.5487H17.7088V32.8731H16.0625V33.5107H17.7762ZM20.4565 32.2356C20.4565 32.0762 20.4229 31.9595 20.3638 31.8656C20.2599 31.709 20.0605 31.6038 19.7289 31.6038H18.3018V33.838H18.6473V32.8959H19.6531L20.2683 33.838H20.6729L20.007 32.8361C20.1756 32.8162 20.3077 32.7194 20.3779 32.5942C20.4285 32.5088 20.4565 32.3836 20.4565 32.2356ZM20.1082 32.264C20.1082 32.3267 20.0941 32.4035 20.0689 32.4548C20.0239 32.5373 19.9199 32.58 19.7514 32.5828H18.6501V31.9225H19.6868C19.8975 31.9225 20.0098 31.9738 20.0689 32.0705C20.0941 32.116 20.1082 32.1929 20.1082 32.264ZM23.0606 31.6038V31.9282H21.4479V32.5544H22.9876V32.8874H21.4479V33.838H21.0996V31.6038H23.0606ZM24.6602 31.5639C24.191 31.5639 23.8679 31.6806 23.6375 31.9254C23.4437 32.1161 23.3594 32.3808 23.3594 32.7138C23.3594 33.0781 23.469 33.3513 23.6712 33.5363C23.8876 33.7555 24.219 33.8693 24.6602 33.8693C25.1153 33.8693 25.4692 33.7555 25.68 33.5249C25.8626 33.3371 25.9581 33.0696 25.9581 32.7109C25.9581 32.3637 25.8766 32.099 25.6828 31.9111C25.4608 31.6778 25.1293 31.5639 24.6602 31.5639ZM24.6602 33.5506C24.3511 33.5506 24.1319 33.4823 23.9662 33.3456C23.7977 33.2062 23.7162 32.9927 23.7162 32.7194C23.7162 32.4633 23.7864 32.2498 23.9213 32.1217C24.0758 31.9738 24.3118 31.8855 24.6574 31.8855C25.0141 31.8855 25.2361 31.9709 25.4018 32.1189C25.5423 32.2442 25.6041 32.4661 25.6041 32.7166C25.6041 32.9699 25.5395 33.1862 25.3962 33.3171C25.2305 33.4737 24.9973 33.5506 24.6602 33.5506ZM28.5015 31.8656C28.5605 31.9595 28.5942 32.0762 28.5942 32.2356C28.5942 32.3836 28.5662 32.5088 28.5155 32.5942C28.4453 32.7194 28.3133 32.8162 28.1447 32.8361L28.8105 33.838H28.406L27.7907 32.8959H26.785V33.838H26.4395V31.6038H27.8666C28.1981 31.6038 28.3976 31.709 28.5015 31.8656ZM28.2066 32.4548C28.2318 32.4035 28.2458 32.3267 28.2458 32.264C28.2458 32.1929 28.2318 32.116 28.2066 32.0705C28.1475 31.9738 28.0352 31.9225 27.8245 31.9225H26.7878V32.5828H27.8891C28.0576 32.58 28.1616 32.5373 28.2066 32.4548ZM31.954 33.838V31.6038H31.4989L30.5914 33.4424L29.7008 31.6038H29.2373V33.838H29.5716V32.1189L30.4032 33.838H30.7684L31.6197 32.1189V33.838H31.954ZM34.3145 33.2858H32.9407L32.6541 33.838H32.2861L33.4408 31.6038H33.8538L34.9719 33.838H34.5955L34.3145 33.2858ZM33.0925 32.9699H34.1684L33.7358 32.1132L33.6375 31.9054L33.5391 32.1132L33.0925 32.9699ZM37.5027 33.838V31.6038H37.1682V33.3399L35.7077 31.6038H35.3115V33.838H35.6515V32.0904L37.1236 33.838H37.5027ZM40.1681 33.0041H40.5336C40.5223 33.1264 40.4746 33.2858 40.3793 33.4196C40.2105 33.6957 39.8707 33.8693 39.3001 33.8693C38.7439 33.8693 38.3761 33.71 38.1847 33.4452C38.053 33.2773 37.9766 33.0382 37.9766 32.7138C37.9766 32.4234 38.0386 32.1957 38.162 32.0335C38.3534 31.7517 38.6993 31.5639 39.2774 31.5639C39.8843 31.5639 40.2158 31.7773 40.3959 32.0477C40.4799 32.1729 40.5193 32.321 40.5306 32.4462H40.1651C40.1515 32.3352 40.1091 32.2413 40.0365 32.1616C39.9071 32.0107 39.6626 31.9026 39.2752 31.9026C38.8756 31.9026 38.5918 32.0165 38.4571 32.2356C38.3761 32.3438 38.3391 32.5031 38.3391 32.7166C38.3391 32.9557 38.3928 33.1151 38.4768 33.2232C38.6372 33.4537 38.9717 33.542 39.2835 33.542C39.6543 33.542 39.8957 33.4652 40.0471 33.2858C40.1174 33.209 40.1568 33.1065 40.1681 33.0041ZM43.0471 33.838V33.5107H41.333V32.8731H42.9797V32.5487H41.333V31.9282H43.0274V31.6038H40.9902V33.838H43.0471ZM17.7752 37.3676L17.355 36.0575L16.9349 37.3676H15.5752L16.6752 38.1773L16.255 39.4873L17.355 38.6777L18.455 39.4873L18.0349 38.1773L19.1348 37.3676H17.7752ZM22.2048 36.0576L22.6335 37.3676H24.021L22.8985 38.1772L23.3272 39.4873L22.2048 38.6776L21.0824 39.4873L21.5111 38.1772L20.3887 37.3676H21.7761L22.2048 36.0576ZM27.4461 37.3676L27.0173 36.0576L26.5886 37.3676H25.2012L26.3236 38.1772L25.8949 39.4873L27.0173 38.6776L28.1398 39.4873L27.711 38.1772L28.8335 37.3676H27.4461ZM31.8298 36.0576L32.2585 37.3676H33.646L32.5235 38.1772L32.9522 39.4873L31.8298 38.6776L30.7074 39.4873L31.1361 38.1772L30.0137 37.3676H31.4011L31.8298 36.0576ZM37.1003 37.3676L36.6803 36.0576L36.2601 37.3676H34.9004L36.0004 38.1772L35.5802 39.4873L36.6803 38.6776L37.7799 39.4873L37.3599 38.1772L38.4602 37.3676H37.1003ZM27.0168 13.9537L27.3409 14.9442H28.3899L27.5413 15.5564L27.8654 16.5469L27.0168 15.9347L26.1681 16.5469L26.4923 15.5564L25.6436 14.9442H26.6926L27.0168 13.9537ZM30.9805 14.9442L30.6564 13.9537L30.3322 14.9442H29.2832L30.1319 15.5564L29.8077 16.5469L30.6564 15.9347L31.505 16.5469L31.1809 15.5564L32.0295 14.9442H30.9805ZM34.3232 13.9537L34.6409 14.9442H35.6689L34.8373 15.5564L35.155 16.5469L34.3232 15.9347L33.4915 16.5469L33.8092 15.5564L32.9775 14.9442H34.0055L34.3232 13.9537ZM41.9914 11.854L41.9886 11.8537C42.9171 12.4823 43.775 13.1845 44.5593 13.9498C44.6736 14.0402 44.7842 14.1343 44.8904 14.2317C43.916 13.13 43.019 11.921 42.2487 10.7055C42.1795 10.5964 42.1021 10.4797 42.0206 10.3568C41.4531 9.50108 40.6853 8.34342 41.1181 7.34613C42.9214 8.11165 44.6461 9.6078 45.365 11.3428C45.7605 12.296 46.3444 13.8264 45.3891 14.7529L45.3893 14.7532C45.3795 14.7624 45.3696 14.7716 45.3596 14.7805C46.5557 16.1013 47.5525 17.5808 48.337 19.1729C47.8171 17.8707 47.4151 16.4907 47.1576 15.1513C47.1355 15.0362 47.1102 14.9143 47.0837 14.7873L47.0837 14.7872L47.0837 14.787C46.8741 13.7791 46.5973 12.4483 47.3385 11.6436C48.7014 12.9282 49.6799 14.9496 49.7669 16.7222C49.818 17.7527 49.8631 19.3674 48.6986 19.949C49.3284 21.3806 49.7923 22.8938 50.0813 24.4573C50.0203 23.2571 50.0642 22.0408 50.2131 20.8911C50.2272 20.7813 50.2406 20.665 50.2546 20.5442L50.2546 20.5439L50.2546 20.5437L50.2546 20.5435L50.2547 20.5435C50.3728 19.5178 50.5289 18.1622 51.486 17.6255C52.3419 19.2893 52.637 21.5001 52.1973 23.2116C51.9489 24.1804 51.5314 25.7117 50.3002 25.9321C50.4823 27.549 50.4812 29.2079 50.2876 30.876C50.6134 29.5913 51.0416 28.324 51.5465 27.1394C51.5871 27.0442 51.6293 26.9424 51.6734 26.8359L51.6739 26.8348L51.6742 26.8341C52.1125 25.7768 52.7442 24.2528 53.9212 24.0137C54.3072 26.1413 53.9999 28.6068 52.9458 30.3854C52.3673 31.3608 51.382 32.82 50.0181 32.6019C49.6701 34.363 49.1157 35.9903 48.3829 37.4737C49.1508 36.2606 50.0103 35.0936 50.9211 34.0344C50.9919 33.9521 51.0666 33.8634 51.1449 33.7704C51.9028 32.8703 53.0015 31.5653 54.2327 31.7329C53.9814 33.9797 52.9212 36.3629 51.2896 37.7651C50.3806 38.5459 48.8889 39.6453 47.6068 38.8839C46.6186 40.5041 45.3997 41.9238 43.9945 43.1265C43.8068 43.3365 43.6082 43.5354 43.4003 43.7206C44.8957 42.6193 46.4761 41.5871 48.0606 40.6951C48.1663 40.6356 48.279 40.5704 48.3973 40.5018L48.3979 40.5015C49.4798 39.8751 51.0404 38.9713 52.2114 39.5825C51.1868 41.8132 49.2245 43.8211 47.0231 44.5828C45.7798 45.0132 43.7772 45.5467 42.765 44.2238L42.7646 44.224L42.7558 44.2117L42.752 44.2065L42.7521 44.2064C42.7353 44.1826 42.719 44.1584 42.7034 44.1341C40.8874 45.424 38.8214 46.3938 36.5825 47.0155C36.3003 47.1162 36.0143 47.2032 35.7271 47.2759C37.8769 46.9157 40.05 46.6043 42.192 46.3787C42.3543 46.3616 42.533 46.3391 42.7233 46.3152L42.7234 46.3152C44.0808 46.1447 46.0359 45.8991 46.9444 46.9828C44.8581 48.83 41.8605 49.9272 39.1657 49.7035C37.8524 49.5945 34.9588 49.2964 34.7209 47.4498L34.7207 47.4482L34.7201 47.4447C33.5736 47.6567 32.3902 47.7823 31.1791 47.8182L31.1738 47.6333C32.3805 47.5975 33.5591 47.4721 34.7004 47.2604C34.6307 46.0411 35.7397 44.8481 36.5617 43.9638L36.5618 43.9636L36.5621 43.9634L36.5627 43.9627C36.6788 43.8378 36.7892 43.719 36.8897 43.6072C38.1028 42.2566 39.3673 40.855 40.7855 39.6872C41.848 40.9367 41.2857 42.6225 40.6357 43.8254C40.0647 44.881 39.1112 45.7443 37.9964 46.3726C39.6612 45.7739 41.2111 44.97 42.6104 43.9742C42.0799 42.9601 42.4077 41.578 42.6639 40.4978L42.664 40.4971C42.6898 40.3885 42.7148 40.283 42.7382 40.1812C43.1097 38.5648 43.6243 36.8817 44.3886 35.3882C45.722 36.1018 45.8772 37.751 45.8061 39.0408C45.7452 40.1502 45.315 41.2906 44.6488 42.2835C45.7191 41.2517 46.6624 40.0807 47.4554 38.7793C46.5077 38.0533 46.32 36.642 46.1742 35.5457L46.1741 35.5456C46.1651 35.4778 46.1563 35.4113 46.1474 35.3462C45.9393 33.8126 45.841 32.1137 46.0998 30.5234C47.5278 30.7081 48.1044 32.1901 48.4397 33.3141C48.7728 34.4312 48.7313 35.8149 48.3683 37.0817C49.0212 35.6951 49.5192 34.1856 49.84 32.5615C48.7481 32.2398 48.1588 31.0279 47.6959 30.0758C47.6624 30.0071 47.6296 29.9396 47.5974 29.874C46.9443 28.5444 46.3918 26.9932 46.1943 25.4713C47.5338 25.1888 48.4782 26.3659 49.0935 27.2796C49.7244 28.2159 50.0791 29.5107 50.1137 30.7907C50.2983 29.1578 50.2971 27.5346 50.1188 25.9524C49.1121 26.0021 48.2925 25.1251 47.6633 24.452C47.6266 24.4127 47.5905 24.374 47.5551 24.3364C46.65 23.3741 45.7934 22.1672 45.25 20.9046C46.3148 20.316 47.3977 21.073 48.1665 21.6879C48.9415 22.3071 49.5161 23.2729 49.8666 24.3051C49.578 22.82 49.1297 21.3823 48.5297 20.0195C47.6044 20.3459 46.5857 19.7872 45.7978 19.3551C45.7514 19.3296 45.7058 19.3046 45.6611 19.2803C44.4972 18.6464 43.3098 17.7718 42.376 16.7596C43.2198 15.8573 44.5017 16.2274 45.4401 16.5652C46.2502 16.8569 46.995 17.4513 47.5987 18.1763C46.9255 17.0034 46.1293 15.9031 45.2161 14.8961C44.4295 15.4634 43.2996 15.2708 42.4159 15.1202C42.3531 15.1095 42.2915 15.099 42.2314 15.089C40.8458 14.8588 39.3723 14.4129 38.0654 13.7817C38.6027 12.6225 40.0504 12.5741 41.0584 12.5973C41.8838 12.6164 42.786 12.8823 43.6054 13.3239C42.97 12.7751 42.2921 12.2655 41.5731 11.7996C40.3842 11.6228 39.2095 11.2642 38.0514 10.9107C37.6499 10.7881 37.2504 10.6662 36.853 10.5526C36.2942 10.3929 35.7266 10.2452 35.157 10.0969C33.8111 9.74667 32.4541 9.39349 31.1758 8.87264C33.1684 8.06504 35.5171 8.22826 37.4206 8.77842C39.0832 9.25904 41.0303 10.1708 41.9914 11.854ZM29.4025 9.72647H26.2861V10.1924H29.4025V9.72647ZM28.5697 47.3341L28.0675 45.7684L27.5654 47.3341H25.9404L27.2551 48.3017L26.7529 49.8674L28.0675 48.8997L29.3822 49.8674L28.8801 48.3017L30.1947 47.3341H28.5697Z" fill="#0F73F6"/>
</svg>
