<svg width="38" height="38" viewBox="0 0 38 38" fill="none" xmlns="http://www.w3.org/2000/svg">
<rect width="38" height="38" rx="4" fill="#B0CDEE"/>
<path d="M4 27V11H10.2437C11.3644 11 12.3541 11.1933 13.2128 11.5799C14.086 11.9664 14.7701 12.5392 15.2649 13.298C15.7597 14.0568 16.0072 14.9946 16.0072 16.1114C16.0072 17.1996 15.7525 18.123 15.2431 18.8819C14.7482 19.6407 14.0642 20.2206 13.1909 20.6215C12.3322 21.0081 11.3498 21.2013 10.2437 21.2013H7.38384V27H4ZM7.38384 18.302H10.2656C10.7458 18.302 11.1606 18.2089 11.5099 18.0228C11.8592 17.8367 12.1285 17.579 12.3177 17.2497C12.5214 16.9204 12.6233 16.5409 12.6233 16.1114C12.6233 15.6676 12.5214 15.281 12.3177 14.9517C12.1285 14.6224 11.8592 14.3647 11.5099 14.1785C11.1606 13.9924 10.7458 13.8993 10.2656 13.8993H7.38384V18.302Z" fill="#0F73F6"/>
<path d="M17.5007 27V15.2738H20.7754V27H17.5007ZM17.5007 14.2215V11H20.7754V14.2215H17.5007Z" fill="#0F73F6"/>
<path d="M21.7964 27L25.9661 21.1154L21.7745 15.2738H25.5732L28.7168 19.8268H27.0577L30.2014 15.2738H34L29.8084 21.1154L33.9563 27H30.1795L27.1013 22.447H28.6732L25.595 27H21.7964Z" fill="#0F73F6"/>
</svg>
