<svg width="189" height="189" viewBox="0 0 189 189" fill="none" xmlns="http://www.w3.org/2000/svg">
<rect width="189" height="189" rx="20.25" fill="#B0CDEE"/>
<path d="M20.25 135V54H51.1564C56.7038 54 61.6027 54.9785 65.8532 56.9356C70.1758 58.8926 73.5618 61.7919 76.0113 65.6336C78.4607 69.4752 79.6855 74.2228 79.6855 79.8765C79.6855 85.3852 78.4247 90.0604 75.9032 93.902C73.4537 97.7436 70.0677 100.679 65.7451 102.709C61.4946 104.666 56.6317 105.644 51.1564 105.644H37V135H20.25ZM37 90.9664H51.2645C53.6419 90.9664 55.6951 90.4953 57.4242 89.553C59.1532 88.6107 60.486 87.306 61.4226 85.6389C62.4312 83.9718 62.9355 82.051 62.9355 79.8765C62.9355 77.6295 62.4312 75.6725 61.4226 74.0054C60.486 72.3383 59.1532 71.0336 57.4242 70.0913C55.6951 69.149 53.6419 68.6779 51.2645 68.6779H37V90.9664Z" fill="#0F73F6"/>
<path d="M87.0786 135V75.6362H103.288V135H87.0786ZM87.0786 70.3087V54H103.288V70.3087H87.0786Z" fill="#0F73F6"/>
<path d="M108.342 135L128.982 105.209L108.234 75.6362H127.037L142.598 98.6859H134.385L149.947 75.6362H168.75L148.002 105.209L168.534 135H149.839L134.602 111.95H142.382L127.145 135H108.342Z" fill="#0F73F6"/>
</svg>
