<svg width="126" height="126" viewBox="0 0 126 126" fill="none" xmlns="http://www.w3.org/2000/svg">
<rect width="126" height="126" rx="13.5" fill="#B0CDEE"/>
<path d="M13.5 90V36H34.1043C37.8025 36 41.0684 36.6523 43.9021 37.957C46.7839 39.2617 49.0412 41.1946 50.6742 43.7557C52.3072 46.3168 53.1236 49.4819 53.1236 53.251C53.1236 56.9235 52.2831 60.0403 50.6021 62.6013C48.9692 65.1624 46.7118 67.1195 43.8301 68.4725C40.9964 69.7772 37.7545 70.4295 34.1043 70.4295H24.6667V90H13.5ZM24.6667 60.6443H34.1763C35.7613 60.6443 37.1301 60.3302 38.2828 59.702C39.4355 59.0738 40.324 58.204 40.9484 57.0926C41.6208 55.9812 41.957 54.7007 41.957 53.251C41.957 51.753 41.6208 50.4483 40.9484 49.3369C40.324 48.2255 39.4355 47.3557 38.2828 46.7275C37.1301 46.0993 35.7613 45.7852 34.1763 45.7852H24.6667V60.6443Z" fill="#0F73F6"/>
<path d="M58.0524 90V50.4242H68.8588V90H58.0524ZM58.0524 46.8725V36H68.8588V46.8725H58.0524Z" fill="#0F73F6"/>
<path d="M72.228 90L85.9882 70.1396L72.1559 50.4242H84.6914L95.0656 65.7906H89.5903L99.9645 50.4242H112.5L98.6677 70.1396L112.356 90H99.8925L89.7344 74.6336H94.9215L84.7635 90H72.228Z" fill="#0F73F6"/>
</svg>
