<svg width="84" height="84" viewBox="0 0 84 84" fill="none" xmlns="http://www.w3.org/2000/svg">
<rect width="84" height="84" rx="9" fill="#B0CDEE"/>
<path d="M9 60V24H22.7362C25.2017 24 27.379 24.4349 29.2681 25.3047C31.1892 26.1745 32.6941 27.4631 33.7828 29.1705C34.8714 30.8779 35.4158 32.9879 35.4158 35.5007C35.4158 37.949 34.8554 40.0268 33.7348 41.7342C32.6461 43.4416 31.1412 44.7463 29.2201 45.6483C27.3309 46.5181 25.1696 46.953 22.7362 46.953H16.4444V60H9ZM16.4444 40.4295H22.7842C23.8409 40.4295 24.7534 40.2201 25.5219 39.8013C26.2903 39.3826 26.8827 38.8027 27.2989 38.0617C27.7472 37.3208 27.9713 36.4671 27.9713 35.5007C27.9713 34.502 27.7472 33.6322 27.2989 32.8913C26.8827 32.1503 26.2903 31.5705 25.5219 31.1517C24.7534 30.7329 23.8409 30.5235 22.7842 30.5235H16.4444V40.4295Z" fill="#0F73F6"/>
<path d="M38.7016 60V33.6161H45.9059V60H38.7016ZM38.7016 31.2483V24H45.9059V31.2483H38.7016Z" fill="#0F73F6"/>
<path d="M48.152 60L57.3255 46.7597L48.104 33.6161H56.4609L63.3771 43.8604H59.7269L66.643 33.6161H75L65.7785 46.7597L74.9039 60H66.595L59.8229 49.7557H63.281L56.509 60H48.152Z" fill="#0F73F6"/>
</svg>
