<svg width="56" height="56" viewBox="0 0 56 56" fill="none" xmlns="http://www.w3.org/2000/svg">
<rect width="56" height="56" rx="6" fill="#B0CDEE"/>
<path d="M6 40V16H15.1575C16.8011 16 18.2526 16.2899 19.5121 16.8698C20.7928 17.4497 21.7961 18.3087 22.5219 19.447C23.2476 20.5852 23.6105 21.9919 23.6105 23.6671C23.6105 25.2993 23.2369 26.6846 22.4898 27.8228C21.7641 28.9611 20.7608 29.8309 19.48 30.4322C18.2206 31.0121 16.7798 31.302 15.1575 31.302H10.963V40H6ZM10.963 26.953H15.1895C15.8939 26.953 16.5023 26.8134 17.0146 26.5342C17.5269 26.255 17.9218 25.8685 18.1993 25.3745C18.4981 24.8805 18.6475 24.3114 18.6475 23.6671C18.6475 23.0013 18.4981 22.4215 18.1993 21.9275C17.9218 21.4336 17.5269 21.047 17.0146 20.7678C16.5023 20.4886 15.8939 20.349 15.1895 20.349H10.963V26.953Z" fill="#0F73F6"/>
<path d="M25.8011 40V22.4107H30.6039V40H25.8011ZM25.8011 20.8322V16H30.6039V20.8322H25.8011Z" fill="#0F73F6"/>
<path d="M32.1013 40L38.217 31.1732L32.0693 22.4107H37.6406L42.2514 29.2403H39.8179L44.4287 22.4107H50L43.8523 31.1732L49.936 40H44.3967L39.882 33.1705H42.1873L37.6726 40H32.1013Z" fill="#0F73F6"/>
</svg>
