<svg width="76" height="70" viewBox="0 0 76 70" fill="none" xmlns="http://www.w3.org/2000/svg">
<g filter="url(#filter0_d_4_6468)">
<path d="M38.1504 35.6332V26.3668H41.8307C42.5069 26.3668 43.0709 26.4679 43.5227 26.67C43.9745 26.8721 44.3141 27.1526 44.5415 27.5115C44.7689 27.8675 44.8826 28.2777 44.8826 28.7422C44.8826 29.1042 44.8108 29.4224 44.6672 29.6969C44.5236 29.9684 44.3261 30.1916 44.0747 30.3666C43.8264 30.5385 43.5422 30.6607 43.222 30.733V30.8235C43.5721 30.8386 43.8997 30.9382 44.2049 31.1222C44.5131 31.3062 44.7629 31.5641 44.9544 31.8959C45.1459 32.2247 45.2417 32.6168 45.2417 33.0723C45.2417 33.5639 45.1205 34.0028 44.8781 34.3889C44.6388 34.772 44.2842 35.0751 43.8144 35.2984C43.3447 35.5216 42.7657 35.6332 42.0775 35.6332H38.1504ZM40.0938 34.0315H41.6781C42.2196 34.0315 42.6146 33.9274 42.8629 33.7193C43.1113 33.5081 43.2355 33.2276 43.2355 32.8777C43.2355 32.6213 43.1741 32.3951 43.0514 32.199C42.9288 32.0029 42.7537 31.8491 42.5263 31.7375C42.3019 31.6259 42.0341 31.5701 41.723 31.5701H40.0938V34.0315ZM40.0938 30.2444H41.5345C41.8007 30.2444 42.0371 30.1976 42.2436 30.1041C42.453 30.0076 42.6176 29.8719 42.7373 29.6969C42.86 29.522 42.9213 29.3123 42.9213 29.068C42.9213 28.7332 42.8031 28.4632 42.5667 28.2581C42.3333 28.053 42.0012 27.9504 41.5704 27.9504H40.0938V30.2444Z" fill="#0F73F6"/>
<path d="M30.7578 35.6332V26.3668H36.8437V27.9821H32.7012V30.1901H36.4398V31.8054H32.7012V35.6332H30.7578Z" fill="#0F73F6"/>
</g>
<defs>
<filter id="filter0_d_4_6468" x="-4" y="-7" width="84" height="84" filterUnits="userSpaceOnUse" color-interpolation-filters="sRGB">
<feFlood flood-opacity="0" result="BackgroundImageFix"/>
<feColorMatrix in="SourceAlpha" type="matrix" values="0 0 0 0 0 0 0 0 0 0 0 0 0 0 0 0 0 0 127 0" result="hardAlpha"/>
<feOffset dy="4"/>
<feGaussianBlur stdDeviation="15"/>
<feComposite in2="hardAlpha" operator="out"/>
<feColorMatrix type="matrix" values="0 0 0 0 0.111813 0 0 0 0 0.225177 0 0 0 0 0.373682 0 0 0 0.05 0"/>
<feBlend mode="normal" in2="BackgroundImageFix" result="effect1_dropShadow_4_6468"/>
<feBlend mode="normal" in="SourceGraphic" in2="effect1_dropShadow_4_6468" result="shape"/>
</filter>
</defs>
</svg>
