<svg width="76" height="68" viewBox="0 0 76 68" fill="none" xmlns="http://www.w3.org/2000/svg">
<g filter="url(#filter0_d_4_6456)">
<path d="M40.1953 38V26H44.9613C45.837 26 46.5674 26.1309 47.1525 26.3926C47.7376 26.6543 48.1774 27.0176 48.4719 27.4824C48.7663 27.9434 48.9136 28.4746 48.9136 29.0762C48.9136 29.5449 48.8206 29.957 48.6346 30.3125C48.4486 30.6641 48.1929 30.9531 47.8674 31.1797C47.5458 31.4023 47.1777 31.5605 46.7631 31.6543V31.7715C47.2164 31.791 47.6407 31.9199 48.0359 32.1582C48.4351 32.3965 48.7586 32.7305 49.0066 33.1602C49.2546 33.5859 49.3786 34.0938 49.3786 34.6836C49.3786 35.3203 49.2216 35.8887 48.9078 36.3887C48.5978 36.8848 48.1386 37.2773 47.5303 37.5664C46.9219 37.8555 46.1722 38 45.281 38H40.1953ZM42.712 35.9258H44.7637C45.465 35.9258 45.9765 35.791 46.2981 35.5215C46.6197 35.248 46.7805 34.8848 46.7805 34.4316C46.7805 34.0996 46.7011 33.8066 46.5422 33.5527C46.3834 33.2988 46.1567 33.0996 45.8622 32.9551C45.5716 32.8105 45.2248 32.7383 44.8218 32.7383H42.712V35.9258ZM42.712 31.0215H44.5777C44.9226 31.0215 45.2287 30.9609 45.496 30.8398C45.7673 30.7148 45.9804 30.5391 46.1354 30.3125C46.2942 30.0859 46.3737 29.8145 46.3737 29.498C46.3737 29.0645 46.2206 28.7148 45.9145 28.4492C45.6123 28.1836 45.1822 28.0508 44.6242 28.0508H42.712V31.0215Z" fill="#0F73F6"/>
<path d="M30.6211 38V26H38.5024V28.0918H33.1378V30.9512H37.9793V33.043H33.1378V38H30.6211Z" fill="#0F73F6"/>
</g>
<defs>
<filter id="filter0_d_4_6456" x="-6" y="-10" width="92" height="92" filterUnits="userSpaceOnUse" color-interpolation-filters="sRGB">
<feFlood flood-opacity="0" result="BackgroundImageFix"/>
<feColorMatrix in="SourceAlpha" type="matrix" values="0 0 0 0 0 0 0 0 0 0 0 0 0 0 0 0 0 0 127 0" result="hardAlpha"/>
<feOffset dy="4"/>
<feGaussianBlur stdDeviation="15"/>
<feComposite in2="hardAlpha" operator="out"/>
<feColorMatrix type="matrix" values="0 0 0 0 0.111813 0 0 0 0 0.225177 0 0 0 0 0.373682 0 0 0 0.05 0"/>
<feBlend mode="normal" in2="BackgroundImageFix" result="effect1_dropShadow_4_6456"/>
<feBlend mode="normal" in="SourceGraphic" in2="effect1_dropShadow_4_6456" result="shape"/>
</filter>
</defs>
</svg>
