<svg width="72" height="70" viewBox="0 0 72 70" fill="none" xmlns="http://www.w3.org/2000/svg">
<g filter="url(#filter0_d_4_6464)">
<path d="M39.7897 29.3621C39.7268 29.1419 39.6386 28.9473 39.5249 28.7784C39.4112 28.6065 39.272 28.4617 39.1075 28.344C38.9459 28.2234 38.7604 28.1314 38.551 28.068C38.3445 28.0047 38.1156 27.973 37.8643 27.973C37.3945 27.973 36.9816 28.0907 36.6255 28.3259C36.2725 28.5612 35.9972 28.9036 35.7997 29.353C35.6022 29.7995 35.5035 30.3454 35.5035 30.9909C35.5035 31.6364 35.6007 32.1854 35.7952 32.6379C35.9897 33.0903 36.265 33.4357 36.621 33.674C36.9771 33.9093 37.3975 34.0269 37.8822 34.0269C38.3221 34.0269 38.6976 33.9485 39.0087 33.7916C39.3229 33.6318 39.5623 33.4071 39.7268 33.1175C39.8944 32.8279 39.9782 32.4856 39.9782 32.0904L40.3731 32.1492H38.0034V30.6742H41.8497V31.8416C41.8497 32.656 41.6792 33.3558 41.3381 33.941C40.997 34.5231 40.5272 34.9726 39.9288 35.2893C39.3304 35.603 38.6452 35.7598 37.8732 35.7598C37.0115 35.7598 36.2545 35.5683 35.6022 35.1852C34.95 34.7991 34.4413 34.2516 34.0763 33.5428C33.7142 32.8309 33.5332 31.9863 33.5332 31.009C33.5332 30.2579 33.6409 29.5883 33.8563 29.0001C34.0748 28.4089 34.38 27.9082 34.7719 27.4979C35.1639 27.0877 35.6202 26.7755 36.1408 26.5614C36.6614 26.3472 37.2255 26.2401 37.8328 26.2401C38.3535 26.2401 38.8382 26.317 39.287 26.4709C39.7358 26.6217 40.1338 26.8358 40.4809 27.1134C40.8309 27.3909 41.1167 27.7212 41.3381 28.1042C41.5595 28.4843 41.7016 28.9036 41.7645 29.3621H39.7897Z" fill="#0F73F6"/>
<path d="M32.0957 26.3668V35.6332H30.1523V26.3668H32.0957Z" fill="#0F73F6"/>
</g>
<defs>
<filter id="filter0_d_4_6464" x="-6" y="-7" width="84" height="84" filterUnits="userSpaceOnUse" color-interpolation-filters="sRGB">
<feFlood flood-opacity="0" result="BackgroundImageFix"/>
<feColorMatrix in="SourceAlpha" type="matrix" values="0 0 0 0 0 0 0 0 0 0 0 0 0 0 0 0 0 0 127 0" result="hardAlpha"/>
<feOffset dy="4"/>
<feGaussianBlur stdDeviation="15"/>
<feComposite in2="hardAlpha" operator="out"/>
<feColorMatrix type="matrix" values="0 0 0 0 0.111813 0 0 0 0 0.225177 0 0 0 0 0.373682 0 0 0 0.05 0"/>
<feBlend mode="normal" in2="BackgroundImageFix" result="effect1_dropShadow_4_6464"/>
<feBlend mode="normal" in="SourceGraphic" in2="effect1_dropShadow_4_6464" result="shape"/>
</filter>
</defs>
</svg>
