<svg width="76" height="68" viewBox="0 0 76 68" fill="none" xmlns="http://www.w3.org/2000/svg">
<g filter="url(#filter0_d_4_6452)">
<path d="M42.7752 29.9354C42.696 29.6578 42.5847 29.4125 42.4414 29.1996C42.2981 28.9829 42.1227 28.8004 41.9153 28.6521C41.7116 28.5 41.4778 28.384 41.2137 28.3042C40.9535 28.2243 40.665 28.1844 40.3481 28.1844C39.756 28.1844 39.2355 28.3327 38.7867 28.6293C38.3416 28.9259 37.9946 29.3574 37.7457 29.924C37.4968 30.4867 37.3723 31.1749 37.3723 31.9886C37.3723 32.8023 37.4949 33.4943 37.74 34.0646C37.9852 34.635 38.3322 35.0703 38.781 35.3707C39.2298 35.6673 39.7598 35.8156 40.3708 35.8156C40.9252 35.8156 41.3986 35.7167 41.7908 35.519C42.1868 35.3175 42.4886 35.0342 42.696 34.6692C42.9072 34.3042 43.0128 33.8726 43.0128 33.3745L43.5107 33.4487H40.5235V31.5894H45.372V33.0608C45.372 34.0875 45.157 34.9696 44.727 35.7072C44.2971 36.4411 43.7049 37.0076 42.9506 37.4068C42.1963 37.8023 41.3325 38 40.3595 38C39.2732 38 38.319 37.7586 37.4968 37.2757C36.6746 36.789 36.0334 36.0989 35.5732 35.2053C35.1169 34.308 34.8887 33.2433 34.8887 32.0114C34.8887 31.0646 35.0245 30.2205 35.296 29.4791C35.5713 28.7338 35.9561 28.1027 36.4501 27.5856C36.9442 27.0684 37.5194 26.6749 38.1757 26.4049C38.8319 26.135 39.5429 26 40.3085 26C40.9648 26 41.5758 26.097 42.1416 26.2909C42.7073 26.481 43.2089 26.751 43.6465 27.1008C44.0877 27.4506 44.4479 27.8669 44.727 28.3498C45.0061 28.8289 45.1853 29.3574 45.2645 29.9354H42.7752Z" fill="#0F73F6"/>
<path d="M33.0766 26.16V37.8406H30.627V26.16H33.0766Z" fill="#0F73F6"/>
</g>
<defs>
<filter id="filter0_d_4_6452" x="-8" y="-10" width="92" height="92" filterUnits="userSpaceOnUse" color-interpolation-filters="sRGB">
<feFlood flood-opacity="0" result="BackgroundImageFix"/>
<feColorMatrix in="SourceAlpha" type="matrix" values="0 0 0 0 0 0 0 0 0 0 0 0 0 0 0 0 0 0 127 0" result="hardAlpha"/>
<feOffset dy="4"/>
<feGaussianBlur stdDeviation="15"/>
<feComposite in2="hardAlpha" operator="out"/>
<feColorMatrix type="matrix" values="0 0 0 0 0.111813 0 0 0 0 0.225177 0 0 0 0 0.373682 0 0 0 0.05 0"/>
<feBlend mode="normal" in2="BackgroundImageFix" result="effect1_dropShadow_4_6452"/>
<feBlend mode="normal" in="SourceGraphic" in2="effect1_dropShadow_4_6452" result="shape"/>
</filter>
</defs>
</svg>
