<svg width="48" height="48" viewBox="0 0 48 48" fill="none" xmlns="http://www.w3.org/2000/svg">
<path fill-rule="evenodd" clip-rule="evenodd" d="M31.9927 31.584H23.5687C23.2567 31.584 23.0167 31.344 23.0167 31.032C23.0167 30.744 23.2567 30.48 23.5687 30.48H31.9927V26.4H30.6967H30.6727H30.6487H30.6247H30.5767L30.5287 26.376H30.4807H30.4327H30.4087L30.3607 26.352H30.3127L30.2647 26.328H30.2407H30.1927L30.1447 26.304L30.1207 26.28H30.0727C30.0487 26.256 30.0247 26.256 30.0007 26.232C29.9527 26.232 29.9047 26.208 29.8807 26.184C29.3287 25.896 28.9687 25.32 28.9687 24.648V15.984C28.9687 15.432 29.2087 14.952 29.5927 14.64L29.6407 14.616L29.6647 14.592L29.6887 14.568H29.7127L29.7367 14.544L29.7607 14.52H29.7847V14.496H29.8087L29.8327 14.472H29.8567L29.8807 14.448H29.9047L29.9287 14.424C30.1687 14.304 30.4327 14.232 30.6967 14.232H31.9927V13.416C31.9927 12.768 31.4887 12.264 30.8407 12.264H17.1607C16.5127 12.264 16.0087 12.768 16.0087 13.416V16.416H24.4327C24.7447 16.416 24.9847 16.656 24.9847 16.968C24.9847 17.256 24.7447 17.52 24.4327 17.52H16.0087V21.6H17.3047H17.3287H17.3527H17.3767H17.4007H17.4247L17.4727 21.624H17.5207H17.5447H17.5687H17.5927H17.6167L17.6407 21.648H17.6647H17.6887L17.7367 21.672H17.7607H17.8087V21.696H17.8567L17.8807 21.72H17.9047H17.9287L17.9767 21.744L18.0007 21.768H18.0487V21.792H18.0727H18.0967L18.1207 21.816L18.1687 21.84L18.1927 21.864L18.2407 21.888H18.2647L18.2887 21.912L18.3127 21.936L18.3367 21.96L18.3607 21.984L18.3847 22.008L18.4327 22.032H18.4567V22.056H18.4807V22.08H18.5047V22.104C18.5287 22.128 18.5527 22.152 18.6007 22.176V22.2L18.6487 22.248L18.6727 22.272L18.6967 22.296V22.32L18.7207 22.368L18.7447 22.392L18.7687 22.416C18.7687 22.44 18.7927 22.464 18.7927 22.488L18.8167 22.512L18.8407 22.536V22.56L18.8647 22.584V22.608L18.8887 22.632V22.68L18.9127 22.704C18.9127 22.728 18.9367 22.752 18.9367 22.752V22.776V22.8H18.9607V22.824V22.848V22.872V22.896C18.9847 22.896 18.9847 22.92 18.9847 22.944L19.0087 22.992V23.04V23.088V23.112L19.0327 23.16V23.208V23.256V23.304V23.352V30.984V32.016C19.0327 32.112 19.0327 32.208 19.0087 32.28C19.0087 32.328 19.0087 32.376 18.9847 32.4C18.9847 32.448 18.9607 32.496 18.9607 32.544L18.9367 32.568V32.592V32.616L18.9127 32.664C18.9127 32.688 18.8887 32.712 18.8887 32.736L18.8647 32.76V32.784L18.8407 32.808L18.8167 32.832V32.856L18.7927 32.88V32.904V32.928H18.7687V32.952L18.7447 32.976V33H18.7207V33.024H18.6967V33.048C18.6727 33.072 18.6727 33.072 18.6727 33.096L18.6247 33.12L18.6007 33.144V33.168C18.2887 33.528 17.8087 33.768 17.3047 33.768H16.0087V34.584C16.0087 35.232 16.5127 35.736 17.1607 35.736H30.8407C31.4887 35.736 31.9927 35.232 31.9927 34.584V31.584ZM18.7687 22.416C18.7687 22.44 18.7927 22.464 18.7927 22.488L18.7687 22.416ZM33.1207 44.472H14.8807C13.4647 44.472 12.3127 43.32 12.3127 41.928V38.88V33.768H8.61667H8.56867L8.52067 33.744H8.49667H8.44867H8.40067H8.35267L8.30467 33.72H8.28067H8.25667H8.23267L8.18467 33.696C7.44067 33.504 6.88867 32.832 6.88867 32.016V23.352C6.88867 22.392 7.65667 21.6 8.61667 21.6H12.3127V9.12002V6.07202C12.3127 4.68002 13.4647 3.52802 14.8807 3.52802H33.1207C34.5367 3.52802 35.6887 4.68002 35.6887 6.07202V9.09601V9.12002V9.14402V14.232H39.3847C40.3447 14.232 41.1127 15.024 41.1127 15.984V24.648C41.1127 25.608 40.3447 26.4 39.3847 26.4H35.6887V38.88V41.928C35.6887 43.32 34.5367 44.472 33.1207 44.472ZM12.8647 32.664H14.3287L13.3927 31.728L13.3687 31.704L10.3207 28.656L7.96867 31.032V32.016V32.04V32.064V32.088V32.112L7.99267 32.136V32.16V32.184V32.208L8.01667 32.232V32.256V32.28H8.04067V32.304V32.328L8.06467 32.352V32.376H8.08867V32.4L8.11267 32.424L8.13667 32.448L8.16067 32.472L8.18467 32.496V32.52H8.20867L8.23267 32.544L8.25667 32.568H8.28067L8.30467 32.592H8.32867L8.35267 32.616H8.37667H8.40067V32.64H8.42467H8.44867H8.47267L8.49667 32.664H8.52067H8.54467H8.56867H8.59267H8.61667H12.8647ZM30.0727 24.744V24.768V24.792V24.816V24.84C30.0967 24.84 30.0967 24.864 30.0967 24.888V24.912H30.1207V24.936V24.96H30.1447V24.984L30.1687 25.008V25.032H30.1927V25.056L30.2167 25.08C30.2407 25.104 30.2407 25.128 30.2647 25.128V25.152C30.3847 25.248 30.5527 25.296 30.6967 25.296H32.5447H32.5687H35.1367H35.1607H39.3847C39.7447 25.296 40.0327 25.008 40.0327 24.648V15.984C40.0327 15.624 39.7447 15.336 39.3847 15.336H30.6967C30.4087 15.336 30.1447 15.552 30.0727 15.816V15.84V15.864V15.888V15.912V15.936H30.0487V15.96V15.984V24.648V24.672V24.696H30.0727V24.72V24.744ZM13.4167 33.768V38.328H34.5847V26.4H33.0967V31.008V31.032V31.056V34.584C33.0967 35.832 32.0887 36.84 30.8407 36.84H17.1607C15.9127 36.84 14.9047 35.832 14.9047 34.584V33.768H13.4167ZM13.4167 39.432V41.928C13.4167 42.72 14.0647 43.392 14.8807 43.392H33.1207C33.9367 43.392 34.5847 42.72 34.5847 41.928V39.432H13.4167ZM33.0967 14.232H34.5847V9.67202H13.4167V21.6H14.9047V13.416C14.9047 12.168 15.9127 11.16 17.1607 11.16H30.8407C32.0887 11.16 33.0967 12.168 33.0967 13.416V14.232ZM34.5847 8.56802V6.07202C34.5847 5.28002 33.9367 4.60802 33.1207 4.60802H28.5127V5.08802C28.5127 5.97602 27.7927 6.67202 26.9287 6.67202H21.0727C20.2087 6.67202 19.4887 5.97602 19.4887 5.08802V4.60802H14.8807C14.0647 4.60802 13.4167 5.28002 13.4167 6.07202V8.56802H34.5847ZM20.5927 4.60802V5.08802C20.5927 5.37602 20.8087 5.59202 21.0727 5.59202H26.9287C27.1927 5.59202 27.4087 5.37602 27.4087 5.08802V4.60802H20.5927ZM26.0407 41.952H21.7687C21.4807 41.952 21.2407 41.712 21.2407 41.4C21.2407 41.112 21.4807 40.872 21.7687 40.872H26.0407C26.3527 40.872 26.5927 41.112 26.5927 41.4C26.5927 41.712 26.3527 41.952 26.0407 41.952ZM15.8407 32.664H17.3047C17.6407 32.664 17.9527 32.376 17.9527 32.016V31.224L16.2967 29.568L14.5447 31.344L15.5527 32.352L15.7447 32.544H15.7687V32.568C15.7927 32.592 15.8167 32.616 15.8407 32.664ZM17.9527 29.664V23.352C17.9527 23.232 17.9287 23.136 17.8807 23.064C17.8567 23.04 17.8567 23.04 17.8567 23.016L17.8327 22.992V22.968H17.8087V22.944L17.7847 22.92V22.896H17.7607L17.7367 22.872L17.7127 22.848L17.6887 22.824H17.6647V22.8H17.6407L17.6167 22.776H17.5927V22.752H17.5687C17.4967 22.728 17.4007 22.704 17.3047 22.704H8.61667C8.25667 22.704 7.96867 22.992 7.96867 23.352V29.472L9.93667 27.504C10.1527 27.288 10.5127 27.288 10.7047 27.504L13.7767 30.552L15.9127 28.416C16.1287 28.2 16.4887 28.2 16.6807 28.416L17.9527 29.664ZM30.0727 26.28C30.0487 26.256 30.0247 26.256 30.0007 26.232L30.0727 26.28ZM13.9207 28.128C12.7447 28.128 11.7847 27.168 11.7847 25.992C11.7847 24.816 12.7447 23.856 13.9207 23.856C15.0967 23.856 16.0567 24.816 16.0567 25.992C16.0567 27.168 15.0967 28.128 13.9207 28.128ZM13.9207 24.936C13.3447 24.936 12.8647 25.416 12.8647 25.992C12.8647 26.568 13.3447 27.048 13.9207 27.048C14.4967 27.048 14.9767 26.568 14.9767 25.992C14.9767 25.416 14.4967 24.936 13.9207 24.936ZM38.1607 18.336H34.6807C34.3927 18.336 34.1287 18.096 34.1287 17.784C34.1287 17.496 34.3927 17.232 34.6807 17.232H38.1607C38.4487 17.232 38.6887 17.496 38.6887 17.784C38.6887 18.096 38.4487 18.336 38.1607 18.336ZM32.9287 18.336H31.9447C31.6327 18.336 31.3927 18.096 31.3927 17.784C31.3927 17.496 31.6327 17.232 31.9447 17.232H32.9287C33.2407 17.232 33.4807 17.496 33.4807 17.784C33.4807 18.096 33.2407 18.336 32.9287 18.336ZM38.1607 20.856H37.2727C36.9607 20.856 36.7207 20.616 36.7207 20.328C36.7207 20.016 36.9607 19.776 37.2727 19.776H38.1607C38.4487 19.776 38.6887 20.016 38.6887 20.328C38.6887 20.616 38.4487 20.856 38.1607 20.856ZM35.0407 20.856H31.9447C31.6327 20.856 31.3927 20.616 31.3927 20.328C31.3927 20.016 31.6327 19.776 31.9447 19.776H35.0407C35.3287 19.776 35.5927 20.016 35.5927 20.328C35.5927 20.616 35.3287 20.856 35.0407 20.856ZM38.1607 23.4H35.4727C35.1847 23.4 34.9207 23.16 34.9207 22.848C34.9207 22.56 35.1847 22.296 35.4727 22.296H38.1607C38.4487 22.296 38.6887 22.56 38.6887 22.848C38.6887 23.16 38.4487 23.4 38.1607 23.4ZM33.1927 23.4H31.9447C31.6327 23.4 31.3927 23.16 31.3927 22.848C31.3927 22.56 31.6327 22.296 31.9447 22.296H33.1927C33.4807 22.296 33.7447 22.56 33.7447 22.848C33.7447 23.16 33.4807 23.4 33.1927 23.4Z" fill="#0F73F6"/>
</svg>
