<svg width="48" height="48" viewBox="0 0 48 48" fill="none" xmlns="http://www.w3.org/2000/svg">
<path d="M2.90625 25.5441H5.96316C7.64662 25.5441 9.01134 24.1794 9.01134 22.4959C9.01134 20.8125 10.3761 19.4478 12.0595 19.4478H16.2051C18.8313 19.4478 20.9603 17.3188 20.9603 14.6926C20.9603 12.0663 18.8313 9.93738 16.2051 9.93738" stroke="#0F73F6" stroke-width="1.12" stroke-miterlimit="10" stroke-linejoin="round"/>
<path d="M33.7637 36.6562C37.7477 36.6562 40.9775 33.4265 40.9775 29.4424C40.9775 26.3662 39.0519 23.7397 36.3403 22.7025" stroke="#0F73F6" stroke-width="1.12" stroke-miterlimit="10" stroke-linejoin="round"/>
<path d="M30.2106 22.2288H22.4496C20.8933 22.2288 19.6317 23.4904 19.6317 25.0466C19.6317 26.6029 18.3701 27.8644 16.8139 27.8644H16.3958C13.9681 27.8644 12 29.8325 12 32.2603C11.9999 34.6881 13.968 36.6562 16.3957 36.6562" stroke="#0F73F6" stroke-width="1.12" stroke-miterlimit="10" stroke-linejoin="round"/>
<path d="M29.7482 36.6561V38.7186C29.7482 39.8577 28.8248 40.7811 27.6857 40.7811H20.3145C19.1754 40.7811 18.252 39.8577 18.252 38.7186V36.6561" stroke="#0F73F6" stroke-width="1.12" stroke-miterlimit="10" stroke-linejoin="round"/>
<path d="M37.7967 20.8947L32.9805 17.5223" stroke="#0F73F6" stroke-width="1.12" stroke-miterlimit="10" stroke-linejoin="round"/>
<path d="M42.8438 44.9062H5.15625C2.87803 44.9062 1.03125 43.0595 1.03125 40.7812V36.6562H46.9688V40.7812C46.9688 43.0595 45.122 44.9062 42.8438 44.9062Z" stroke="#0F73F6" stroke-width="1.12" stroke-miterlimit="10" stroke-linecap="round" stroke-linejoin="round"/>
<path d="M30.6016 22.1958C31.6321 19.7229 33.4227 16.5454 35.724 13.2588C40.2978 6.72672 45.1567 2.23741 46.5767 3.23163C47.9966 4.22584 45.4398 10.3272 40.8659 16.8593C38.5564 20.1575 36.1743 22.935 34.1989 24.7487" stroke="#0F73F6" stroke-width="1.12" stroke-miterlimit="10" stroke-linecap="round" stroke-linejoin="round"/>
<path d="M26.695 26.8889C26.9658 28.2797 26.632 29.6458 25.8789 30.7181C28.5781 31.807 31.7522 30.9969 33.5765 28.6062C34.9432 26.8152 34.6214 24.2241 32.7745 22.9339C31.0052 21.6978 28.5685 22.1285 27.3302 23.897C26.6961 24.8025 26.4992 25.8833 26.695 26.8889Z" stroke="#0F73F6" stroke-width="1.12" stroke-miterlimit="10" stroke-linecap="round" stroke-linejoin="round"/>
<path d="M45.094 36.6562V13.6875C45.094 12.8348 44.8094 12.0486 44.3301 11.4187" stroke="#0F73F6" stroke-width="1.12" stroke-miterlimit="10" stroke-linejoin="round"/>
<path d="M38.1573 9.9375H6.65625C4.58522 9.9375 2.90625 11.6165 2.90625 13.6875V36.6562" stroke="#0F73F6" stroke-width="1.12" stroke-miterlimit="10" stroke-linejoin="round"/>
</svg>
