<svg width="48" height="48" viewBox="0 0 48 48" fill="none" xmlns="http://www.w3.org/2000/svg">
<mask id="mask0_4_6557" style="mask-type:luminance" maskUnits="userSpaceOnUse" x="0" y="0" width="48" height="48">
<path d="M0 3.8147e-06H48V48H0V3.8147e-06Z" fill="white"/>
</mask>
<g mask="url(#mask0_4_6557)">
<path d="M13.5283 45.7721H32.0377C32.2928 45.7721 32.5054 45.5622 32.5054 45.3044V44.2068C32.5054 43.3431 31.7985 42.6388 30.9375 42.6388H14.6258C13.7648 42.6388 13.0605 43.3431 13.0605 44.2068V45.3044C13.0605 45.5622 13.2705 45.7721 13.5283 45.7721Z" stroke="#0F73F6" stroke-width="1.12" stroke-miterlimit="10" stroke-linecap="round" stroke-linejoin="round"/>
<path d="M16.5547 42.6388L17.8064 38.4532M27.7587 38.4532L29.0077 42.6388" stroke="#0F73F6" stroke-width="1.12" stroke-miterlimit="10" stroke-linecap="round" stroke-linejoin="round"/>
<path d="M5.81055 34.8973H36.1033" stroke="#0F73F6" stroke-width="1.12" stroke-miterlimit="10" stroke-linecap="round" stroke-linejoin="round"/>
<path d="M0.703125 26.1248C0.703125 26.8052 1.2585 27.3632 1.93884 27.3632H29.8132C30.4936 27.3632 31.049 26.8052 31.049 26.1248V3.46375C31.049 2.78341 30.4936 2.22804 29.8132 2.22804H1.93884C1.2585 2.22804 0.703125 2.78341 0.703125 3.46375V26.1248Z" stroke="#0F73F6" stroke-width="1.12" stroke-miterlimit="10" stroke-linecap="round" stroke-linejoin="round"/>
<path d="M21.1602 38.4532H7.09145C6.3872 38.4532 5.81055 37.8765 5.81055 37.1723V27.3631M36.1033 38.4532H24.3944M31.0488 14.9098H38.4738C39.1779 14.9098 39.7547 15.4865 39.7547 16.1907V28.9922" stroke="#0F73F6" stroke-width="1.12" stroke-miterlimit="10" stroke-linecap="round" stroke-linejoin="round"/>
<path d="M17.5012 8.7868H31.0491M0.703125 8.7868H14.2537" stroke="#0F73F6" stroke-width="1.12" stroke-miterlimit="10" stroke-linecap="round" stroke-linejoin="round"/>
<path d="M27.332 5.50473V5.51007" stroke="#0F73F6" stroke-width="1.12" stroke-miterlimit="10" stroke-linecap="round" stroke-linejoin="round"/>
<path d="M23.8555 5.50473V5.51007" stroke="#0F73F6" stroke-width="1.12" stroke-miterlimit="10" stroke-linecap="round" stroke-linejoin="round"/>
<path d="M20.3789 5.50473V5.51007" stroke="#0F73F6" stroke-width="1.12" stroke-miterlimit="10" stroke-linecap="round" stroke-linejoin="round"/>
<path d="M4.42188 5.50473L11.6184 5.51007" stroke="#0F73F6" stroke-width="1.12" stroke-miterlimit="10" stroke-linecap="round" stroke-linejoin="round"/>
<path d="M26.9542 12.4091H16.5421C16.2817 12.4091 16.0664 12.6217 16.0664 12.8848V16.0234C16.0664 16.2864 16.2817 16.5016 16.5421 16.5016H26.9542C27.2146 16.5016 27.4298 16.2864 27.4298 16.0234V12.8848C27.4298 12.6217 27.2146 12.4091 26.9542 12.4091Z" stroke="#0F73F6" stroke-width="1.12" stroke-miterlimit="10" stroke-linecap="round" stroke-linejoin="round"/>
<path d="M27.4297 20.4109H16.0664" stroke="#0F73F6" stroke-width="1.12" stroke-miterlimit="10" stroke-linecap="round" stroke-linejoin="round"/>
<path d="M21.6126 23.7409H27.4297M16.0664 23.7409H17.8017" stroke="#0F73F6" stroke-width="1.12" stroke-miterlimit="10" stroke-linecap="round" stroke-linejoin="round"/>
<path d="M41.6997 42.9604H41.6758" stroke="#0F73F6" stroke-width="1.12" stroke-miterlimit="10" stroke-linecap="round" stroke-linejoin="round"/>
<path d="M37.3977 45.7721H46C46.7122 45.7721 47.2969 45.1901 47.2969 44.4753V30.2865C47.2969 29.5743 46.7122 28.9923 46 28.9923H37.3977C36.6855 28.9923 36.1035 29.5743 36.1035 30.2865V44.4753C36.1035 45.1901 36.6855 45.7721 37.3977 45.7721Z" stroke="#0F73F6" stroke-width="1.12" stroke-miterlimit="10" stroke-linecap="round" stroke-linejoin="round"/>
<path d="M4.80067 12.4091H11.968C12.231 12.4091 12.4463 12.6217 12.4463 12.8848V23.2626C12.4463 23.5257 12.231 23.7409 11.968 23.7409H4.80067C4.53761 23.7409 4.32227 23.5257 4.32227 23.2626V12.8848C4.32227 12.6217 4.53761 12.4091 4.80067 12.4091Z" stroke="#0F73F6" stroke-width="1.12" stroke-miterlimit="10" stroke-linecap="round" stroke-linejoin="round"/>
</g>
</svg>
