<svg width="150" height="150" viewBox="0 0 150 150" fill="none" xmlns="http://www.w3.org/2000/svg">
<path fill-rule="evenodd" clip-rule="evenodd" d="M99.9754 98.7H73.6504C72.6754 98.7 71.9254 97.95 71.9254 96.975C71.9254 96.075 72.6754 95.25 73.6504 95.25H99.9754V82.5H95.9254H95.8504H95.7754H95.7004H95.5504L95.4004 82.425H95.2504H95.1004H95.0254L94.8754 82.35H94.7254L94.5754 82.275H94.5004H94.3504L94.2004 82.2L94.1254 82.125H93.9754C93.9004 82.05 93.8254 82.05 93.7504 81.975C93.6004 81.975 93.4504 81.9 93.3754 81.825C91.6504 80.925 90.5254 79.125 90.5254 77.025V49.95C90.5254 48.225 91.2754 46.725 92.4754 45.75L92.6254 45.675L92.7004 45.6L92.7754 45.525H92.8504L92.9254 45.45L93.0004 45.375H93.0754V45.3H93.1504L93.2254 45.225H93.3004L93.3754 45.15H93.4504L93.5254 45.075C94.2754 44.7 95.1004 44.475 95.9254 44.475H99.9754V41.925C99.9754 39.9 98.4004 38.325 96.3754 38.325H53.6254C51.6004 38.325 50.0254 39.9 50.0254 41.925V51.3H76.3504C77.3254 51.3 78.0754 52.05 78.0754 53.025C78.0754 53.925 77.3254 54.75 76.3504 54.75H50.0254V67.5H54.0754H54.1504H54.2254H54.3004H54.3754H54.4504L54.6004 67.575H54.7504H54.8254H54.9004H54.9754H55.0504L55.1254 67.65H55.2004H55.2754L55.4254 67.725H55.5004H55.6504V67.8H55.8004L55.8754 67.875H55.9504H56.0254L56.1754 67.95L56.2504 68.025H56.4004V68.1H56.4754H56.5504L56.6254 68.175L56.7754 68.25L56.8504 68.325L57.0004 68.4H57.0754L57.1504 68.475L57.2254 68.55L57.3004 68.625L57.3754 68.7L57.4504 68.775L57.6004 68.85H57.6754V68.925H57.7504V69H57.8254V69.075C57.9004 69.15 57.9754 69.225 58.1254 69.3V69.375L58.2754 69.525L58.3504 69.6L58.4254 69.675V69.75L58.5004 69.9L58.5754 69.975L58.6504 70.05C58.6504 70.125 58.7254 70.2 58.7254 70.275L58.8004 70.35L58.8754 70.425V70.5L58.9504 70.575V70.65L59.0254 70.725V70.875L59.1004 70.95C59.1004 71.025 59.1754 71.1 59.1754 71.1V71.175V71.25H59.2504V71.325V71.4V71.475V71.55C59.3254 71.55 59.3254 71.625 59.3254 71.7L59.4004 71.85V72V72.15V72.225L59.4754 72.375V72.525V72.675V72.825V72.975V96.825V100.05C59.4754 100.35 59.4754 100.65 59.4004 100.875C59.4004 101.025 59.4004 101.175 59.3254 101.25C59.3254 101.4 59.2504 101.55 59.2504 101.7L59.1754 101.775V101.85V101.925L59.1004 102.075C59.1004 102.15 59.0254 102.225 59.0254 102.3L58.9504 102.375V102.45L58.8754 102.525L58.8004 102.6V102.675L58.7254 102.75V102.825V102.9H58.6504V102.975L58.5754 103.05V103.125H58.5004V103.2H58.4254V103.275C58.3504 103.35 58.3504 103.35 58.3504 103.425L58.2004 103.5L58.1254 103.575V103.65C57.1504 104.775 55.6504 105.525 54.0754 105.525H50.0254V108.075C50.0254 110.1 51.6004 111.675 53.6254 111.675H96.3754C98.4004 111.675 99.9754 110.1 99.9754 108.075V98.7ZM58.6504 70.05C58.6504 70.125 58.7254 70.2 58.7254 70.275L58.6504 70.05ZM103.5 138.975H46.5004C42.0754 138.975 38.4754 135.375 38.4754 131.025V121.5V105.525H26.9254H26.7754L26.6254 105.45H26.5504H26.4004H26.2504H26.1004L25.9504 105.375H25.8754H25.8004H25.7254L25.5754 105.3C23.2504 104.7 21.5254 102.6 21.5254 100.05V72.975C21.5254 69.975 23.9254 67.5 26.9254 67.5H38.4754V28.5V18.975C38.4754 14.625 42.0754 11.025 46.5004 11.025H103.5C107.925 11.025 111.525 14.625 111.525 18.975V28.425V28.5V28.575V44.475H123.075C126.075 44.475 128.475 46.95 128.475 49.95V77.025C128.475 80.025 126.075 82.5 123.075 82.5H111.525V121.5V131.025C111.525 135.375 107.925 138.975 103.5 138.975ZM40.2004 102.075H44.7754L41.8504 99.15L41.7754 99.075L32.2504 89.55L24.9004 96.975V100.05V100.125V100.2V100.275V100.35L24.9754 100.425V100.5V100.575V100.65L25.0504 100.725V100.8V100.875H25.1254V100.95V101.025L25.2004 101.1V101.175H25.2754V101.25L25.3504 101.325L25.4254 101.4L25.5004 101.475L25.5754 101.55V101.625H25.6504L25.7254 101.7L25.8004 101.775H25.8754L25.9504 101.85H26.0254L26.1004 101.925H26.1754H26.2504V102H26.3254H26.4004H26.4754L26.5504 102.075H26.6254H26.7004H26.7754H26.8504H26.9254H40.2004ZM93.9754 77.325V77.4V77.475V77.55V77.625C94.0504 77.625 94.0504 77.7 94.0504 77.775V77.85H94.1254V77.925V78H94.2004V78.075L94.2754 78.15V78.225H94.3504V78.3L94.4254 78.375C94.5004 78.45 94.5004 78.525 94.5754 78.525V78.6C94.9504 78.9 95.4754 79.05 95.9254 79.05H101.7H101.775H109.8H109.875H123.075C124.2 79.05 125.1 78.15 125.1 77.025V49.95C125.1 48.825 124.2 47.925 123.075 47.925H95.9254C95.0254 47.925 94.2004 48.6 93.9754 49.425V49.5V49.575V49.65V49.725V49.8H93.9004V49.875V49.95V77.025V77.1V77.175H93.9754V77.25V77.325ZM41.9254 105.525V119.775H108.075V82.5H103.425V96.9V96.975V97.05V108.075C103.425 111.975 100.275 115.125 96.3754 115.125H53.6254C49.7254 115.125 46.5754 111.975 46.5754 108.075V105.525H41.9254ZM41.9254 123.225V131.025C41.9254 133.5 43.9504 135.6 46.5004 135.6H103.5C106.05 135.6 108.075 133.5 108.075 131.025V123.225H41.9254ZM103.425 44.475H108.075V30.225H41.9254V67.5H46.5754V41.925C46.5754 38.025 49.7254 34.875 53.6254 34.875H96.3754C100.275 34.875 103.425 38.025 103.425 41.925V44.475ZM108.075 26.775V18.975C108.075 16.5 106.05 14.4 103.5 14.4H89.1004V15.9C89.1004 18.675 86.8504 20.85 84.1504 20.85H65.8504C63.1504 20.85 60.9004 18.675 60.9004 15.9V14.4H46.5004C43.9504 14.4 41.9254 16.5 41.9254 18.975V26.775H108.075ZM64.3504 14.4V15.9C64.3504 16.8 65.0254 17.475 65.8504 17.475H84.1504C84.9754 17.475 85.6504 16.8 85.6504 15.9V14.4H64.3504ZM81.3754 131.1H68.0254C67.1254 131.1 66.3754 130.35 66.3754 129.375C66.3754 128.475 67.1254 127.725 68.0254 127.725H81.3754C82.3504 127.725 83.1004 128.475 83.1004 129.375C83.1004 130.35 82.3504 131.1 81.3754 131.1ZM49.5004 102.075H54.0754C55.1254 102.075 56.1004 101.175 56.1004 100.05V97.575L50.9254 92.4L45.4504 97.95L48.6004 101.1L49.2004 101.7H49.2754V101.775C49.3504 101.85 49.4254 101.925 49.5004 102.075ZM56.1004 92.7V72.975C56.1004 72.6 56.0254 72.3 55.8754 72.075C55.8004 72 55.8004 72 55.8004 71.925L55.7254 71.85V71.775H55.6504V71.7L55.5754 71.625V71.55H55.5004L55.4254 71.475L55.3504 71.4L55.2754 71.325H55.2004V71.25H55.1254L55.0504 71.175H54.9754V71.1H54.9004C54.6754 71.025 54.3754 70.95 54.0754 70.95H26.9254C25.8004 70.95 24.9004 71.85 24.9004 72.975V92.1L31.0504 85.95C31.7254 85.275 32.8504 85.275 33.4504 85.95L43.0504 95.475L49.7254 88.8C50.4004 88.125 51.5254 88.125 52.1254 88.8L56.1004 92.7ZM93.9754 82.125C93.9004 82.05 93.8254 82.05 93.7504 81.975L93.9754 82.125ZM43.5004 87.9C39.8254 87.9 36.8254 84.9 36.8254 81.225C36.8254 77.55 39.8254 74.55 43.5004 74.55C47.1754 74.55 50.1754 77.55 50.1754 81.225C50.1754 84.9 47.1754 87.9 43.5004 87.9ZM43.5004 77.925C41.7004 77.925 40.2004 79.425 40.2004 81.225C40.2004 83.025 41.7004 84.525 43.5004 84.525C45.3004 84.525 46.8004 83.025 46.8004 81.225C46.8004 79.425 45.3004 77.925 43.5004 77.925ZM119.25 57.3H108.375C107.475 57.3 106.65 56.55 106.65 55.575C106.65 54.675 107.475 53.85 108.375 53.85H119.25C120.15 53.85 120.9 54.675 120.9 55.575C120.9 56.55 120.15 57.3 119.25 57.3ZM102.9 57.3H99.8254C98.8504 57.3 98.1004 56.55 98.1004 55.575C98.1004 54.675 98.8504 53.85 99.8254 53.85H102.9C103.875 53.85 104.625 54.675 104.625 55.575C104.625 56.55 103.875 57.3 102.9 57.3ZM119.25 65.175H116.475C115.5 65.175 114.75 64.425 114.75 63.525C114.75 62.55 115.5 61.8 116.475 61.8H119.25C120.15 61.8 120.9 62.55 120.9 63.525C120.9 64.425 120.15 65.175 119.25 65.175ZM109.5 65.175H99.8254C98.8504 65.175 98.1004 64.425 98.1004 63.525C98.1004 62.55 98.8504 61.8 99.8254 61.8H109.5C110.4 61.8 111.225 62.55 111.225 63.525C111.225 64.425 110.4 65.175 109.5 65.175ZM119.25 73.125H110.85C109.95 73.125 109.125 72.375 109.125 71.4C109.125 70.5 109.95 69.675 110.85 69.675H119.25C120.15 69.675 120.9 70.5 120.9 71.4C120.9 72.375 120.15 73.125 119.25 73.125ZM103.725 73.125H99.8254C98.8504 73.125 98.1004 72.375 98.1004 71.4C98.1004 70.5 98.8504 69.675 99.8254 69.675H103.725C104.625 69.675 105.45 70.5 105.45 71.4C105.45 72.375 104.625 73.125 103.725 73.125Z" fill="#0F73F6"/>
</svg>
