<svg width="150" height="150" viewBox="0 0 150 150" fill="none" xmlns="http://www.w3.org/2000/svg">
<path d="M9.08203 79.8255H18.6349C23.8957 79.8255 28.1604 75.5608 28.1604 70.3C28.1604 65.0391 32.4252 60.7744 37.686 60.7744H50.6408C58.8478 60.7744 65.5008 54.1213 65.5008 45.9144C65.5008 37.7075 58.8478 31.0544 50.6408 31.0544" stroke="#0F73F6" stroke-width="3.5" stroke-miterlimit="10" stroke-linejoin="round"/>
<path d="M105.51 114.551C117.96 114.551 128.053 104.458 128.053 92.0078C128.053 82.3946 122.036 74.1868 113.562 70.9454" stroke="#0F73F6" stroke-width="3.5" stroke-miterlimit="10" stroke-linejoin="round"/>
<path d="M94.408 69.465H70.1549C65.2916 69.465 61.3491 73.4074 61.3491 78.2707C61.3491 83.134 57.4066 87.0765 52.5434 87.0765H51.237C43.6503 87.0765 37.5 93.2268 37.5 100.813C37.4997 108.401 43.65 114.551 51.2367 114.551" stroke="#0F73F6" stroke-width="3.5" stroke-miterlimit="10" stroke-linejoin="round"/>
<path d="M92.963 114.551V120.996C92.963 124.556 90.0772 127.441 86.5177 127.441H63.4824C59.9229 127.441 57.0371 124.556 57.0371 120.996V114.551" stroke="#0F73F6" stroke-width="3.5" stroke-miterlimit="10" stroke-linejoin="round"/>
<path d="M118.117 65.2964L103.066 54.7577" stroke="#0F73F6" stroke-width="3.5" stroke-miterlimit="10" stroke-linejoin="round"/>
<path d="M133.887 140.332H16.1133C8.99385 140.332 3.22266 134.561 3.22266 127.441V114.551H146.777V127.441C146.777 134.561 141.006 140.332 133.887 140.332Z" stroke="#0F73F6" stroke-width="3.5" stroke-miterlimit="10" stroke-linecap="round" stroke-linejoin="round"/>
<path d="M95.6289 69.3618C98.8492 61.6342 104.445 51.7046 111.636 41.434C125.93 21.0211 141.114 6.99202 145.551 10.099C149.988 13.2059 141.998 32.2726 127.705 52.6855C120.488 62.9924 113.044 71.6719 106.871 77.3397" stroke="#0F73F6" stroke-width="3.5" stroke-miterlimit="10" stroke-linecap="round" stroke-linejoin="round"/>
<path d="M83.4253 84.0279C84.2717 88.3743 83.2284 92.6432 80.875 95.9942C89.3099 99.397 99.2289 96.8655 104.93 89.3945C109.201 83.7976 108.195 75.7005 102.424 71.6687C96.8945 67.8059 89.28 69.1518 85.4102 74.6783C83.4288 77.5081 82.8133 80.8855 83.4253 84.0279Z" stroke="#0F73F6" stroke-width="3.5" stroke-miterlimit="10" stroke-linecap="round" stroke-linejoin="round"/>
<path d="M140.918 114.551V42.7734C140.918 40.1089 140.029 37.6521 138.531 35.6836" stroke="#0F73F6" stroke-width="3.5" stroke-miterlimit="10" stroke-linejoin="round"/>
<path d="M119.241 31.0547H20.8008C14.3288 31.0547 9.08203 36.3015 9.08203 42.7734V114.551" stroke="#0F73F6" stroke-width="3.5" stroke-miterlimit="10" stroke-linejoin="round"/>
</svg>
