<svg width="150" height="150" viewBox="0 0 150 150" fill="none" xmlns="http://www.w3.org/2000/svg">
<mask id="mask0_4_6668" style="mask-type:luminance" maskUnits="userSpaceOnUse" x="0" y="0" width="150" height="150">
<path d="M0 1.52588e-05H150V150H0V1.52588e-05Z" fill="white"/>
</mask>
<g mask="url(#mask0_4_6668)">
<path d="M42.2761 143.038H100.118C100.915 143.038 101.58 142.382 101.58 141.576V138.146C101.58 135.447 99.3707 133.246 96.6798 133.246H45.7059C43.0152 133.246 40.8145 135.447 40.8145 138.146V141.576C40.8145 142.382 41.4704 143.038 42.2761 143.038Z" stroke="#0F73F6" stroke-width="3.5" stroke-miterlimit="10" stroke-linecap="round" stroke-linejoin="round"/>
<path d="M51.7344 133.246L55.6461 120.166M86.7468 120.166L90.65 133.246" stroke="#0F73F6" stroke-width="3.5" stroke-miterlimit="10" stroke-linecap="round" stroke-linejoin="round"/>
<path d="M18.1582 109.054H112.823" stroke="#0F73F6" stroke-width="3.5" stroke-miterlimit="10" stroke-linecap="round" stroke-linejoin="round"/>
<path d="M2.19727 81.6399C2.19727 83.766 3.93281 85.5097 6.05889 85.5097H93.1664C95.2925 85.5097 97.028 83.766 97.028 81.6399V10.8241C97.028 8.69799 95.2925 6.96245 93.1664 6.96245H6.05889C3.93281 6.96245 2.19727 8.69799 2.19727 10.8241V81.6399Z" stroke="#0F73F6" stroke-width="3.5" stroke-miterlimit="10" stroke-linecap="round" stroke-linejoin="round"/>
<path d="M66.126 120.166H22.161C19.9603 120.166 18.1582 118.364 18.1582 116.163V85.5097M112.823 120.166H76.2328M97.0277 46.5932H120.231C122.431 46.5932 124.234 48.3952 124.234 50.596V90.6006" stroke="#0F73F6" stroke-width="3.5" stroke-miterlimit="10" stroke-linecap="round" stroke-linejoin="round"/>
<path d="M54.6911 27.4587H97.0283M2.19727 27.4587H44.5427" stroke="#0F73F6" stroke-width="3.5" stroke-miterlimit="10" stroke-linecap="round" stroke-linejoin="round"/>
<path d="M85.4102 17.2022V17.2189" stroke="#0F73F6" stroke-width="3.5" stroke-miterlimit="10" stroke-linecap="round" stroke-linejoin="round"/>
<path d="M74.5469 17.2022V17.2189" stroke="#0F73F6" stroke-width="3.5" stroke-miterlimit="10" stroke-linecap="round" stroke-linejoin="round"/>
<path d="M63.6855 17.2022V17.2189" stroke="#0F73F6" stroke-width="3.5" stroke-miterlimit="10" stroke-linecap="round" stroke-linejoin="round"/>
<path d="M13.8164 17.2022L36.3056 17.2189" stroke="#0F73F6" stroke-width="3.5" stroke-miterlimit="10" stroke-linecap="round" stroke-linejoin="round"/>
<path d="M84.2312 38.7783H51.6936C50.8797 38.7783 50.207 39.4428 50.207 40.2648V50.0731C50.207 50.8949 50.8797 51.5676 51.6936 51.5676H84.2312C85.0451 51.5676 85.7178 50.8949 85.7178 50.0731V40.2648C85.7178 39.4428 85.0451 38.7783 84.2312 38.7783Z" stroke="#0F73F6" stroke-width="3.5" stroke-miterlimit="10" stroke-linecap="round" stroke-linejoin="round"/>
<path d="M85.7175 63.7842H50.207" stroke="#0F73F6" stroke-width="3.5" stroke-miterlimit="10" stroke-linecap="round" stroke-linejoin="round"/>
<path d="M67.5388 74.1903H85.7175M50.207 74.1903H55.6299" stroke="#0F73F6" stroke-width="3.5" stroke-miterlimit="10" stroke-linecap="round" stroke-linejoin="round"/>
<path d="M130.313 134.251H130.238" stroke="#0F73F6" stroke-width="3.5" stroke-miterlimit="10" stroke-linecap="round" stroke-linejoin="round"/>
<path d="M116.869 143.038H143.751C145.976 143.038 147.804 141.219 147.804 138.985V94.6451C147.804 92.4195 145.976 90.6007 143.751 90.6007H116.869C114.643 90.6007 112.824 92.4195 112.824 94.6451V138.985C112.824 141.219 114.643 143.038 116.869 143.038Z" stroke="#0F73F6" stroke-width="3.5" stroke-miterlimit="10" stroke-linecap="round" stroke-linejoin="round"/>
<path d="M15.0028 38.7783H37.4006C38.2227 38.7783 38.8953 39.4428 38.8953 40.2648V72.6956C38.8953 73.5177 38.2227 74.1903 37.4006 74.1903H15.0028C14.1808 74.1903 13.5078 73.5177 13.5078 72.6956V40.2648C13.5078 39.4428 14.1808 38.7783 15.0028 38.7783Z" stroke="#0F73F6" stroke-width="3.5" stroke-miterlimit="10" stroke-linecap="round" stroke-linejoin="round"/>
</g>
</svg>
