<svg width="32" height="32" viewBox="0 0 32 32" fill="none" xmlns="http://www.w3.org/2000/svg">
<g clip-path="url(#clip0_4_6426)">
<path d="M15.9993 0.498291C9.37777 0.498291 4 5.87976 4 12.5012C4 19.1227 9.37777 24.5005 15.9993 24.5005C22.6207 24.5005 27.9985 19.1227 27.9985 12.5012C27.9985 5.87976 22.6207 0.498291 15.9993 0.498291ZM15.9993 1.49854C22.0803 1.49854 26.9983 6.42019 26.9983 12.5012C26.9983 18.5823 22.0803 23.5003 15.9993 23.5003C9.91821 23.5003 5.00025 18.5823 5.00025 12.5012C5.00025 6.42019 9.91821 1.49854 15.9993 1.49854Z" fill="white"/>
<path d="M16.0005 3.49902C11.0358 3.49902 7.00195 7.5366 7.00195 12.5012C7.00195 17.4659 11.0358 21.4998 16.0005 21.4998C20.9651 21.4998 24.999 17.4659 24.999 12.5012C24.999 7.5366 20.9651 3.49902 16.0005 3.49902ZM16.0005 4.49927C20.4247 4.49927 23.9988 8.07704 23.9988 12.5012C23.9988 16.9254 20.4247 20.4995 16.0005 20.4995C11.5763 20.4995 7.99851 16.9254 7.99851 12.5012C7.99851 8.07704 11.5763 4.49927 16.0005 4.49927Z" fill="white"/>
<path d="M6.54762 19.3738L1.85274 27.5049C1.80528 27.5882 1.78274 27.6833 1.78781 27.779C1.79288 27.8748 1.82535 27.967 1.88135 28.0448C1.93735 28.1225 2.01452 28.1826 2.10368 28.2178C2.19284 28.2529 2.29022 28.2617 2.38424 28.2431L7.1677 27.2982L8.74005 31.9156C8.77082 32.007 8.82734 32.0875 8.9028 32.1474C8.97826 32.2074 9.06944 32.2443 9.16538 32.2536C9.26131 32.263 9.3579 32.2444 9.44353 32.2002C9.52916 32.1559 9.60017 32.0879 9.64802 32.0042L14.2469 24.0391L13.3796 23.5372L9.3306 30.5463L7.97233 26.5601C7.93315 26.4459 7.85404 26.3498 7.74958 26.2895C7.64512 26.2291 7.52236 26.2085 7.40392 26.2316L3.27007 27.0473L7.4113 19.8757L6.54762 19.3738Z" fill="white"/>
<path d="M25.4532 19.3738L24.5895 19.8757L28.7308 27.0473L24.5969 26.2316C24.4785 26.2085 24.3557 26.2291 24.2513 26.2895C24.1468 26.3498 24.0677 26.4459 24.0285 26.5601L22.6702 30.5463L18.6213 23.5372L17.7539 24.0391L22.3528 32.0042C22.4007 32.0879 22.4717 32.1559 22.5573 32.2002C22.6429 32.2444 22.7395 32.263 22.8355 32.2537C22.9314 32.2443 23.0226 32.2074 23.098 32.1474C23.1735 32.0875 23.23 32.007 23.2608 31.9156L24.8331 27.2982L29.6166 28.2431C29.7106 28.2617 29.808 28.2529 29.8972 28.2178C29.9863 28.1826 30.0635 28.1226 30.1195 28.0448C30.1755 27.967 30.208 27.8748 30.213 27.7791C30.2181 27.6833 30.1956 27.5882 30.1481 27.5049L25.4532 19.3738Z" fill="white"/>
<path d="M16.0009 6.93164C15.6461 6.93164 15.5856 7.0869 15.4915 7.18262C14.9451 7.81423 14.2101 9.11461 13.9377 9.54483C13.0183 9.77479 12.0419 9.9648 11.2137 10.2904C11.0936 10.3503 10.9284 10.3627 10.8188 10.7001C10.7092 11.0375 10.8343 11.1421 10.8963 11.2611C11.2991 11.9358 12.4438 13.2035 12.6643 13.4683C12.6084 14.4751 12.4696 15.3823 12.5314 16.2882C12.5512 16.4209 12.5102 16.5816 12.7972 16.7901C13.0842 16.9987 13.2258 16.912 13.3582 16.8898C14.1454 16.6992 15.559 16.0691 16.0009 15.8932C16.8878 16.2304 17.7696 16.6647 18.6436 16.8898C18.776 16.912 18.9176 16.9987 19.2046 16.7901C19.4916 16.5816 19.4505 16.4209 19.4704 16.2882C19.5373 15.508 19.3604 13.8109 19.3375 13.4683C19.8485 12.8707 20.3955 12.2302 20.8766 11.6154C21.1515 11.3171 21.2633 11 21.1829 10.7001C21.1025 10.4 20.9082 10.3503 20.788 10.2904C19.9052 9.94053 18.9694 9.77333 18.0641 9.54484C17.5435 8.75014 17.0864 7.8786 16.5102 7.18262C16.4162 7.0869 16.3557 6.93164 16.0009 6.93164ZM16.0009 8.14596C16.4401 8.78702 16.8083 9.43878 17.2263 10.0763C17.2937 10.1714 17.3173 10.2369 17.4773 10.3531C17.6373 10.4694 17.7019 10.4697 17.8131 10.5045C18.5608 10.7041 19.2904 10.8664 20.0277 11.0729C19.5592 11.6927 19.0487 12.2413 18.5735 12.8372C18.5039 12.9307 18.45 12.9702 18.3889 13.1583C18.3278 13.3463 18.347 13.4108 18.3483 13.5274C18.3855 14.3019 18.4574 15.0459 18.4923 15.8121C17.662 15.5247 16.7753 15.059 16.0009 14.893C15.8031 14.893 15.7496 14.9333 15.6392 14.9705C14.9141 15.2444 14.2272 15.5426 13.5095 15.8121C13.534 15.034 13.6181 14.2904 13.6535 13.5274C13.6548 13.4108 13.674 13.3463 13.6129 13.1583C13.5517 12.9702 13.4979 12.9307 13.4283 12.8372C12.954 12.2397 12.3921 11.6051 11.9741 11.0729C12.719 10.8526 13.4528 10.7026 14.1886 10.5045C14.2999 10.4697 14.3645 10.4694 14.5245 10.3531C14.6845 10.2369 14.7081 10.1714 14.7755 10.0763C15.0392 9.68771 15.2964 9.25233 15.5211 8.88415C15.6932 8.60421 15.8607 8.34344 16.0009 8.14596Z" fill="white"/>
</g>
<defs>
<clipPath id="clip0_4_6426">
<rect width="32" height="32" fill="white"/>
</clipPath>
</defs>
</svg>
