<svg width="32" height="32" viewBox="0 0 32 32" fill="none" xmlns="http://www.w3.org/2000/svg">
<path d="M26.9472 10.9464C26.9472 4.90087 22.0463 0 16.0007 0C9.95521 0 5.05434 4.90087 5.05434 10.9464C3.49144 11.141 2.01367 12.1627 2.01367 14.5344V20.2509C2.01367 22.9266 3.88672 23.8997 5.66247 23.8997H7.42606C7.7619 23.8997 8.0342 23.6274 8.0342 23.2915V11.5181C8.0342 11.1822 7.7619 10.9099 7.42606 10.9099H6.27061C6.27061 5.53615 10.627 1.17978 16.0007 1.17978C21.3745 1.17978 25.7309 5.53615 25.7309 10.9099H24.5754C24.2396 10.9099 23.9673 11.1822 23.9673 11.5181V23.2733C23.9673 23.6091 24.2396 23.8814 24.5754 23.8814H25.7309C25.5606 28.0593 23.5538 29.0384 19.5462 29.2147V28.8073C19.5462 28.1355 19.0017 27.591 18.3299 27.591H14.5047C13.833 27.591 13.2885 28.1355 13.2885 28.8073V30.7837C13.2885 31.4555 13.833 32 14.5047 32H18.3421C19.0138 32 19.5583 31.4555 19.5583 30.7837V30.431C23.4139 30.2547 26.7465 29.458 26.9472 23.8449C28.5101 23.6503 29.9878 22.6287 29.9878 20.2569V14.5405C29.9878 12.1566 28.5161 11.141 26.9472 10.9464ZM6.81793 12.0836V22.6651H5.63207C4.73203 22.6651 3.19953 22.3489 3.19953 20.2326V14.5162C3.19953 12.4181 4.71379 12.0836 5.63207 12.0836H6.81793ZM18.3421 29.8655V30.7898H14.5047V28.8134H18.3421V29.8655ZM28.7716 20.2509C28.7716 22.3489 27.2573 22.6834 26.339 22.6834H25.1836V12.1262H26.3694C27.2695 12.1262 28.802 12.4424 28.802 14.5587L28.7716 20.2509Z" fill="white"/>
</svg>
