<svg width="32" height="32" viewBox="0 0 32 32" fill="none" xmlns="http://www.w3.org/2000/svg">
<g clip-path="url(#clip0_4_6346)">
<path d="M23.3897 16.6714L24.1752 15.886C24.1754 15.8857 24.1757 15.8855 24.1759 15.8852C24.1762 15.885 24.1764 15.8847 24.1767 15.8845L26.9474 13.1137C26.9476 13.1136 26.9478 13.1134 26.9479 13.1133C26.9481 13.1132 26.9482 13.113 26.9484 13.1128L29.7196 10.3416C29.7197 10.3415 29.7197 10.3414 29.7198 10.3414C29.7199 10.3413 29.7199 10.3412 29.72 10.3412L31.2422 8.81899C31.7309 8.33037 32 7.68062 32 6.98956C32 6.29849 31.7308 5.64874 31.2422 5.16018L26.8399 0.757869C26.3513 0.269244 25.7016 5.67852e-05 25.0105 5.67852e-05C24.3194 5.67852e-05 23.6697 0.269182 23.1811 0.757869L15.3286 8.61024L9.99862 3.28024C9.10637 2.38799 7.98812 1.75287 6.76469 1.44356L1.16731 0.0286193C0.847313 -0.0523182 0.508062 0.0411193 0.274625 0.274682C0.041125 0.508119 -0.0523125 0.847182 0.028625 1.16731L1.44362 6.76468C1.75287 7.98806 2.388 9.10637 3.28025 9.99862L8.61025 15.3286L0.75775 23.181C0.269125 23.6697 0 24.3194 0 25.0104C0 25.7016 0.269125 26.3512 0.757812 26.8398L5.16012 31.2421C5.64881 31.7309 6.2985 32 6.98962 32C7.68069 32 8.33038 31.7309 8.819 31.2422L13.1113 26.9499C13.112 26.9493 13.1126 26.9486 13.1133 26.948C13.114 26.9474 13.1146 26.9467 13.1152 26.946L16.6714 23.3898L23.8902 30.6086C24.8163 31.5347 26.0328 31.9979 27.2494 31.9979C28.4659 31.9979 29.6824 31.5348 30.6086 30.6086C32.4609 28.7564 32.4609 25.7425 30.6086 23.8902L23.3897 16.6714ZM3.26137 6.30518L2.23163 2.23168L6.30513 3.26149C7.20081 3.48787 8.0195 3.95287 8.67275 4.60612L9.41187 5.34524L5.34513 9.41199L4.606 8.67287C3.95275 8.01956 3.48781 7.20087 3.26137 6.30518ZM6.67094 10.7377L10.7377 6.67099L14.0028 9.93606L9.936 14.0028L6.67094 10.7377ZM6.98962 30.125C6.79938 30.125 6.62056 30.0509 6.486 29.9164L2.08363 25.5141C1.94913 25.3796 1.87506 25.2007 1.87506 25.0104C1.87506 24.8202 1.94913 24.6413 2.08363 24.5067L24.5068 2.08362C24.6413 1.94912 24.8202 1.87499 25.0105 1.87499C25.2008 1.87499 25.3796 1.94912 25.5141 2.08362L29.9164 6.48599C30.0509 6.62043 30.1251 6.79931 30.1251 6.98956C30.1251 7.17981 30.0509 7.35868 29.9164 7.49324L29.057 8.35268L26.1972 5.49281C25.8312 5.12668 25.2376 5.12668 24.8714 5.49281C24.5052 5.85887 24.5052 6.45249 24.8714 6.81862L27.7312 9.67849L26.2851 11.1246L24.8112 9.65081C24.4451 9.28462 23.8515 9.28474 23.4854 9.65081C23.1192 10.0169 23.1192 10.6105 23.4854 10.9766L24.9592 12.4504L23.5131 13.8966L20.6533 11.0367C20.2872 10.6706 19.6936 10.6706 19.3275 11.0367C18.9614 11.4027 18.9614 11.9964 19.3275 12.3625L22.1873 15.2223L20.7412 16.6684L19.2673 15.1946C18.9013 14.8286 18.3076 14.8286 17.9415 15.1946C17.5754 15.5607 17.5754 16.1543 17.9415 16.5204L19.4153 17.9942L17.9942 19.4153L15.1344 16.5555C14.7683 16.1894 14.1748 16.1894 13.8086 16.5555C13.4425 16.9216 13.4425 17.5152 13.8086 17.8813L16.6684 20.7411L15.2223 22.1872L13.7485 20.7134C13.3824 20.3474 12.7888 20.3474 12.4227 20.7134C12.0566 21.0795 12.0566 21.6731 12.4227 22.0392L13.8965 23.5131L12.4504 24.9592L9.59062 22.0994C9.22456 21.7334 8.63094 21.7334 8.26481 22.0994C7.89869 22.4655 7.89869 23.0591 8.26481 23.4252L11.1246 26.285L9.67844 27.7311L8.20463 26.2573C7.83856 25.8912 7.24494 25.8912 6.87881 26.2573C6.51269 26.6234 6.51269 27.217 6.87881 27.5831L8.35262 29.0569L7.49319 29.9164C7.35869 30.0509 7.17981 30.125 6.98962 30.125ZM18.6534 21.4079C18.6547 21.4066 18.6559 21.4054 18.6572 21.4041C18.6586 21.4027 18.6598 21.4015 18.6611 21.4002L21.4031 18.6582C21.4034 18.6578 21.4038 18.6575 21.4041 18.6571C21.4044 18.6567 21.4048 18.6564 21.4052 18.6561L22.064 17.9972L26.0366 21.9699L21.9699 26.0366L17.9972 22.064L18.6534 21.4079ZM29.2827 29.2827C28.1616 30.4039 26.3372 30.4039 25.216 29.2827L23.2957 27.3624L27.3624 23.2956L29.2828 25.2159C30.404 26.3372 30.404 28.1616 29.2827 29.2827Z" fill="#0F73F6"/>
</g>
<defs>
<clipPath id="clip0_4_6346">
<rect width="32" height="32" fill="white"/>
</clipPath>
</defs>
</svg>
