<svg width="32" height="32" viewBox="0 0 32 32" fill="none" xmlns="http://www.w3.org/2000/svg">
<path d="M29.4219 2.1396C23.4768 1.39217 17.6847 3.56685 13.2784 7.7572C6.95857 6.89031 3.03162 11.9253 2.45666 16.0376C2.3984 16.3547 2.69177 16.6588 3.01028 16.6123C3.01027 16.6123 7.752 16.0362 7.752 16.0362C8.08855 16.3731 8.50848 16.7911 9.033 17.3135L8.22218 18.9487C7.93654 19.5258 8.05031 20.2197 8.50587 20.6752L11.3237 23.4931C11.7809 23.9508 12.4781 24.0611 13.0503 23.7763L14.6831 22.9671C15.3092 23.5933 15.8248 24.109 16.1348 24.4189C16.2921 24.5764 16.5338 24.6097 16.7271 24.5048C18.2907 23.655 20.8608 22.0621 23.3253 19.6702C23.5959 24.5129 19.8166 27.6968 16.4638 28.4178C16.4639 28.4179 16.6846 26.6054 16.6846 26.6054C16.752 25.9483 15.7803 25.8336 15.6924 26.4843C15.6924 26.4843 15.3872 28.9892 15.3872 28.9892C15.3682 29.1455 15.4233 29.3012 15.5366 29.4101C15.6498 29.5195 15.8094 29.5684 15.9634 29.5434C19.8356 29.0016 25.1156 25.2458 24.2452 18.7309C28.0058 14.9489 30.7407 8.50301 29.8592 2.57705C29.832 2.34761 29.6514 2.16695 29.4219 2.1396ZM12.606 22.8803C12.4151 22.976 12.1826 22.9379 12.0308 22.7861L9.21292 19.9682C9.06106 19.8164 9.02298 19.5849 9.11819 19.393L9.77936 18.059C11.0729 19.3551 12.6427 20.926 13.9371 22.2209L12.606 22.8803ZM28.7154 8.07759C27.1914 16.5683 19.9624 21.5454 16.5757 23.4458C14.9255 21.7965 10.8277 17.6896 8.55325 15.4228C9.28922 14.0905 10.5089 12.2863 11.5689 11.0297C11.9841 10.5247 11.2172 9.88981 10.7983 10.3921C9.69084 11.6986 8.36161 13.6778 7.62021 15.0445C7.6202 15.0445 3.57961 15.5356 3.57961 15.5356C3.9258 14.1308 4.98733 11.1967 7.99807 9.61714C10.1436 8.49067 12.2715 8.60835 13.3491 8.77729C13.5013 8.79617 13.6603 8.76144 13.7779 8.65376C17.8976 4.67305 23.3021 2.49955 28.9092 3.08983C29.0747 4.7768 29.0098 6.45259 28.7154 8.07759Z" fill="white"/>
<path d="M8.55924 23.4585C5.10709 20.3841 2.04917 26.4524 2.00169 29.4682C1.97627 29.7597 2.24141 30.0246 2.53239 29.999C5.54088 29.952 11.5948 26.9063 8.55924 23.4585ZM7.61685 26.8472C6.84293 27.5376 5.96256 28.0762 5.00113 28.4473C4.37466 28.6885 3.7233 28.8545 3.05728 28.9434C3.28169 27.249 4.0137 25.6575 5.15835 24.378C6.94127 22.2929 9.72416 25.0338 7.61685 26.8472Z" fill="white"/>
<path d="M17.6754 8.64307C15.1496 11.1188 16.9798 15.5377 20.5163 15.5019C24.0557 15.5315 25.8783 11.1316 23.3574 8.64304C21.7911 7.07666 19.2418 7.07666 17.6754 8.64307ZM22.6505 13.6182C19.7435 16.3536 15.6474 12.2555 18.3825 9.35005C21.3069 6.62636 25.3737 10.6941 22.6505 13.6182Z" fill="white"/>
</svg>
