<svg width="32" height="32" viewBox="0 0 32 32" fill="none" xmlns="http://www.w3.org/2000/svg">
<g clip-path="url(#clip0_4_6433)">
<path d="M12.756 17.787L1.96899 28.575L2 22C2 21.448 1.552 21 1 21C0.448 21 0 21.448 0 22V31C0 31.296 0.121987 31.535 0.315974 31.699C0.496993 31.884 0.74902 32 1.02902 32H10C10.552 32 11 31.5521 11 31C11 30.448 10.552 30 10 30H3.37098L14.17 19.202L12.756 17.787ZM31.684 0.30102C31.503 0.116026 31.251 0 30.972 0H22C21.448 0 21 0.448 21 1C21 1.552 21.448 2 22 2H28.628L17.83 12.799L19.244 14.213L30.032 3.42499L30 10C30 10.552 30.448 11 31 11C31.552 11 32 10.552 32 10V1C32 0.704 31.878 0.465046 31.684 0.30102Z" fill="#0F73F6"/>
</g>
<defs>
<clipPath id="clip0_4_6433">
<rect width="32" height="32" fill="white"/>
</clipPath>
</defs>
</svg>
