<svg width="32" height="32" viewBox="0 0 32 32" fill="none" xmlns="http://www.w3.org/2000/svg">
<path d="M0.9375 16.9375C1.45525 16.9375 1.875 16.5178 1.875 16V15.0625H3.75V20.6875H2.8125C2.29475 20.6875 1.875 21.1073 1.875 21.625C1.875 22.1427 2.29475 22.5625 2.8125 22.5625H6.5625C7.08025 22.5625 7.5 22.1427 7.5 21.625C7.5 21.1073 7.08025 20.6875 6.5625 20.6875H5.625V15.0625H7.5V16C7.5 16.5178 7.91975 16.9375 8.4375 16.9375C8.95525 16.9375 9.375 16.5178 9.375 16V14.125C9.375 13.6072 8.95525 13.1875 8.4375 13.1875H0.9375C0.41975 13.1875 0 13.6072 0 14.125V16C0 16.5178 0.41975 16.9375 0.9375 16.9375Z" fill="#0F73F6"/>
<path d="M10.375 11.3125C10.8928 11.3125 11.3125 10.8928 11.3125 10.375V9.4375H14.125V20.6875H13.1875C12.6697 20.6875 12.25 21.1073 12.25 21.625C12.25 22.1427 12.6697 22.5625 13.1875 22.5625H16.9375C17.4552 22.5625 17.875 22.1427 17.875 21.625C17.875 21.1073 17.4552 20.6875 16.9375 20.6875H16V9.4375H18.8125V10.375C18.8125 10.8928 19.2323 11.3125 19.75 11.3125C20.2677 11.3125 20.6875 10.8928 20.6875 10.375V8.5C20.6875 7.98225 20.2677 7.5625 19.75 7.5625H10.375C9.85725 7.5625 9.4375 7.98225 9.4375 8.5V10.375C9.4375 10.8928 9.85725 11.3125 10.375 11.3125Z" fill="#0F73F6"/>
<path d="M31.0625 1.9375H19.8125C19.2947 1.9375 18.875 2.35725 18.875 2.875V4.75C18.875 5.26775 19.2947 5.6875 19.8125 5.6875C20.3303 5.6875 20.75 5.26775 20.75 4.75V3.8125H24.5V20.6875H23.5625C23.0448 20.6875 22.625 21.1073 22.625 21.625C22.625 22.1427 23.0448 22.5625 23.5625 22.5625H27.3125C27.8302 22.5625 28.25 22.1427 28.25 21.625C28.25 21.1073 27.8302 20.6875 27.3125 20.6875H26.375V3.8125H30.125V4.75C30.125 5.26775 30.5448 5.6875 31.0625 5.6875C31.5802 5.6875 32 5.26775 32 4.75V2.875C32 2.35725 31.5802 1.9375 31.0625 1.9375Z" fill="#0F73F6"/>
<path d="M31.0625 24.4375C30.5448 24.4375 30.125 24.8572 30.125 25.375V26.3125H1.875V25.375C1.875 24.8572 1.45525 24.4375 0.9375 24.4375C0.41975 24.4375 0 24.8572 0 25.375V29.125C0 29.6427 0.41975 30.0625 0.9375 30.0625C1.45525 30.0625 1.875 29.6427 1.875 29.125V28.1875H30.125V29.125C30.125 29.6427 30.5448 30.0625 31.0625 30.0625C31.5802 30.0625 32 29.6427 32 29.125V25.375C32 24.8572 31.5802 24.4375 31.0625 24.4375Z" fill="#0F73F6"/>
</svg>
