<svg width="60" height="24" viewBox="0 0 60 24" fill="none" xmlns="http://www.w3.org/2000/svg">
<rect width="60" height="24" fill="#016FD0"/>
<path d="M14.6816 18.5609V13.3276H22.9727L23.8622 14.1026L24.7811 13.3276H54.8755V18.2C54.8755 18.2 54.0885 18.5557 53.1782 18.5609H36.5144L35.5115 17.736V18.5609H32.225V17.1527C32.225 17.1527 31.776 17.3493 30.8055 17.3493H29.6868V18.5609H24.7108L23.8225 17.7693L22.9206 18.5609H14.6816Z" fill="white"/>
<path d="M5 9.38327L6.86966 6.47015H10.103L11.1641 8.10196V6.47015H15.1835L15.8151 7.64958L16.4275 6.47015H34.4703V7.06309C34.4703 7.06309 35.4188 6.47015 36.9776 6.47015L42.8319 6.48383L43.8746 8.09428V6.47015H47.2382L48.164 7.39523V6.47015H51.5585V11.7035H48.164L47.2768 10.7754V11.7035H42.3349L41.8379 10.8785H40.5094L40.0205 11.7035H36.669C35.3277 11.7035 34.4703 11.1226 34.4703 11.1226V11.7035H29.4172L28.4143 10.8785V11.7035H9.62403L9.12739 10.8785H7.80307L7.30994 11.7035H5V9.38327Z" fill="white"/>
<path d="M7.53152 7.11536L5.00977 11.0339H6.65156L7.11686 10.2492H9.82184L10.2847 11.0339H11.9627L9.44333 7.11536H7.53152ZM8.46453 8.02732L9.28904 9.39849H7.6376L8.46453 8.02732Z" fill="#016FD0"/>
<path d="M12.1367 11.0332V7.11465L14.4698 7.12045L15.8268 9.64687L17.1513 7.11465H19.4657V11.0332H17.9999V8.14585L16.4461 11.0332H15.1606L13.6025 8.14585V11.0332H12.1367Z" fill="#016FD0"/>
<path d="M20.4688 11.0332V7.11465H25.2519V7.99117H21.95V8.66144H25.1747V9.4864H21.95V10.1825H25.2519V11.0332H20.4688Z" fill="#016FD0"/>
<path d="M26.0996 7.11536V11.0339H27.5654V9.64178H28.1826L29.9401 11.0339H31.7314L29.8027 9.59022C30.5942 9.54558 31.4107 9.09154 31.4107 8.38663C31.4107 7.56203 30.4423 7.11536 29.3615 7.11536H26.0996ZM27.5654 7.99187H29.241C29.6429 7.99187 29.9353 8.202 29.9353 8.40435C29.9353 8.66468 29.5564 8.81683 29.2627 8.81683H27.5654V7.99187Z" fill="#016FD0"/>
<path d="M33.5064 11.0332H32.0098V7.11465H33.5064V11.0332Z" fill="#016FD0"/>
<path d="M37.0539 11.0332H36.7309C35.1678 11.0332 34.2188 10.2102 34.2188 9.09003C34.2188 7.94222 35.1572 7.11465 37.1311 7.11465H38.7512V8.04273H37.0718C36.2705 8.04273 35.7038 8.46066 35.7038 9.0997C35.7038 9.85857 36.3518 10.1773 37.2854 10.1773H37.6711L37.0539 11.0332Z" fill="#016FD0"/>
<path d="M40.2444 7.11536L37.7227 11.0339H39.3645L39.8297 10.2492H42.5347L42.9976 11.0339H44.6756L42.1562 7.11536H40.2444ZM41.1774 8.02732L42.0019 9.39849H40.3505L41.1774 8.02732Z" fill="#016FD0"/>
<path d="M44.8457 11.0332V7.11465H46.7093L49.0888 9.57663V7.11465H50.5546V11.0332H48.7513L46.3115 8.50677V11.0332H44.8457Z" fill="#016FD0"/>
<path d="M15.6855 17.8907V13.9721H20.4687V14.8487H17.1668V15.5189H20.3915V16.3439H17.1668V17.0399H20.4687V17.8907H15.6855Z" fill="#016FD0"/>
<path d="M39.1211 17.8907V13.9721H43.9042V14.8487H40.6023V15.5189H43.8117V16.3439H40.6023V17.0399H43.9042V17.8907H39.1211Z" fill="#016FD0"/>
<path d="M20.6531 17.8907L22.982 15.9556L20.5977 13.9721H22.4444L23.8644 15.1983L25.2892 13.9721H27.0636L24.7106 15.9314L27.0438 17.8907H25.1973L23.8186 16.6839L22.4733 17.8907H20.6531Z" fill="#016FD0"/>
<path d="M27.2188 13.9727V17.8913H28.7231V16.6538H30.2661C31.5716 16.6538 32.5612 16.1909 32.5612 15.2907C32.5612 14.545 31.7851 13.9727 30.4565 13.9727H27.2188ZM28.7231 14.8589H30.348C30.7698 14.8589 31.0713 15.0317 31.0713 15.31C31.0713 15.5716 30.7713 15.7612 30.3432 15.7612H28.7231V14.8589Z" fill="#016FD0"/>
<path d="M33.1973 13.9721V17.8907H34.6631V16.4986H35.2802L37.0378 17.8907H38.829L36.9003 16.447C37.6919 16.4024 38.5084 15.9483 38.5084 15.2434C38.5084 14.4188 37.54 13.9721 36.4592 13.9721H33.1973ZM34.6631 14.8487H36.3386C36.7406 14.8487 37.0329 15.0588 37.0329 15.2611C37.0329 15.5215 36.6541 15.6736 36.3603 15.6736H34.6631V14.8487Z" fill="#016FD0"/>
<path d="M44.5846 17.8907V17.0399H47.5181C47.9521 17.0399 48.1401 16.8832 48.1401 16.7112C48.1401 16.5465 47.9527 16.38 47.5181 16.38H46.1925C45.0402 16.38 44.3984 15.9108 44.3984 15.2064C44.3984 14.578 44.9861 13.9721 46.6984 13.9721H49.5529L48.9357 14.8538H46.467C45.995 14.8538 45.8498 15.0193 45.8498 15.1773C45.8498 15.3398 46.0293 15.5189 46.3898 15.5189H47.7785C49.063 15.5189 49.6204 16.0059 49.6204 16.6436C49.6204 17.3292 48.9993 17.8907 47.7085 17.8907H44.5846Z" fill="#016FD0"/>
<path d="M49.9635 17.8907V17.0399H52.897C53.3311 17.0399 53.519 16.8832 53.519 16.7112C53.519 16.5465 53.3316 16.38 52.897 16.38H51.5714C50.4191 16.38 49.7773 15.9108 49.7773 15.2064C49.7773 14.578 50.365 13.9721 52.0773 13.9721H54.9318L54.3146 14.8538H51.8459C51.374 14.8538 51.2287 15.0193 51.2287 15.1773C51.2287 15.3398 51.4082 15.5189 51.7687 15.5189H53.1574C54.4419 15.5189 54.9993 16.0059 54.9993 16.6436C54.9993 17.3292 54.3782 17.8907 53.0874 17.8907H49.9635Z" fill="#016FD0"/>
</svg>
