<svg width="60" height="24" viewBox="0 0 60 24" fill="none" xmlns="http://www.w3.org/2000/svg">
<g clip-path="url(#clip0_4_6779)">
<path d="M11.6803 3.0942C10.9952 3.90485 9.89911 4.54424 8.80301 4.4529C8.666 3.3568 9.20263 2.1922 9.8306 1.47288C10.5157 0.639391 11.7145 0.0456708 12.685 0C12.7992 1.14177 12.3539 2.2607 11.6803 3.0942ZM12.6736 4.66984C11.0865 4.5785 9.72784 5.57184 8.97427 5.57184C8.20929 5.57184 7.0561 4.71551 5.80015 4.73834C4.16742 4.76118 2.64887 5.68601 1.81538 7.1589C0.102723 10.1047 1.37009 14.4662 3.02565 16.8639C3.83631 18.0514 4.80681 19.353 6.0856 19.3073C7.29587 19.2617 7.77541 18.5195 9.23688 18.5195C10.7098 18.5195 11.1322 19.3073 12.411 19.2845C13.7355 19.2617 14.5689 18.0971 15.3796 16.9096C16.3044 15.5623 16.6812 14.2493 16.7041 14.1808C16.6812 14.1579 14.1465 13.1874 14.1237 10.2645C14.1008 7.82112 16.1218 6.65652 16.2131 6.58801C15.0713 4.89819 13.2902 4.71551 12.6736 4.66984ZM21.842 1.35871V19.1589H24.6051V13.0733H28.43C31.9238 13.0733 34.3787 10.6755 34.3787 7.20457C34.3787 3.73359 31.9695 1.35871 28.5214 1.35871H21.842ZM24.6051 3.68792H27.7906C30.1884 3.68792 31.5585 4.9667 31.5585 7.21598C31.5585 9.46527 30.1884 10.7555 27.7792 10.7555H24.6051V3.68792ZM39.4253 19.2959C41.1608 19.2959 42.7707 18.4167 43.5014 17.0238H43.5585V19.1589H46.116V10.2988C46.116 7.72978 44.0609 6.07421 40.8982 6.07421C37.9638 6.07421 35.7944 7.75262 35.7145 10.059H38.2036C38.4091 8.96289 39.4253 8.24358 40.8182 8.24358C42.508 8.24358 43.4557 9.0314 43.4557 10.4814V11.4634L40.0076 11.6689C36.7992 11.863 35.0637 13.176 35.0637 15.4596C35.0637 17.7659 36.8563 19.2959 39.4253 19.2959ZM40.1674 17.1836C38.6945 17.1836 37.7583 16.4757 37.7583 15.3911C37.7583 14.2721 38.6603 13.6213 40.3844 13.5186L43.4557 13.3245V14.3292C43.4557 15.9962 42.0399 17.1836 40.1674 17.1836ZM49.5299 24C52.2245 24 53.4919 22.9724 54.5994 19.8554L59.4519 6.24548H56.6432L53.3891 16.7612H53.332L50.078 6.24548H47.1893L51.8706 19.2046L51.6194 19.9924C51.1969 21.3283 50.5119 21.8421 49.2902 21.8421C49.0732 21.8421 48.6508 21.8192 48.4795 21.7964V23.9315C48.6394 23.9772 49.3244 24 49.5299 24Z" fill="black"/>
</g>
<defs>
<clipPath id="clip0_4_6779">
<rect width="60" height="24" fill="white"/>
</clipPath>
</defs>
</svg>
