<svg width="60" height="24" viewBox="0 0 60 24" fill="none" xmlns="http://www.w3.org/2000/svg">
<path d="M28.7985 11.395V18.2297H26.5938V1.32678H32.326C33.7224 1.32678 35.0452 1.84122 36.0741 2.7966C37.1029 3.67849 37.6174 5.00132 37.6174 6.39765C37.6174 7.79397 37.1029 9.04332 36.0741 9.9987C35.0452 10.9541 33.7958 11.4685 32.326 11.4685L28.7985 11.395ZM28.7985 3.38453V9.26379H32.473C33.2814 9.26379 34.0898 8.96983 34.6042 8.3819C35.7801 7.27954 35.7801 5.44227 34.6777 4.33991L34.6042 4.26641C34.0163 3.67849 33.2814 3.31103 32.473 3.38453H28.7985Z" fill="#5F6368"/>
<path d="M42.6881 6.32416C44.3049 6.32416 45.5542 6.7651 46.5096 7.64699C47.465 8.52888 47.9059 9.70473 47.9059 11.1746V18.2297H45.8482V16.6129H45.7747C44.8928 17.9357 43.6434 18.5971 42.1736 18.5971C40.9243 18.5971 39.8219 18.2297 38.94 17.4948C38.1316 16.7599 37.6172 15.731 37.6172 14.6286C37.6172 13.4528 38.0581 12.4974 38.94 11.7625C39.8219 11.0276 41.0713 10.7336 42.5411 10.7336C43.8639 10.7336 44.8928 10.9541 45.7012 11.4685V10.9541C45.7012 10.2192 45.4072 9.48426 44.8193 9.04332C44.2314 8.52888 43.4965 8.23492 42.6881 8.23492C41.4387 8.23492 40.4833 8.74935 39.8219 9.77823L37.9112 8.60237C39.087 7.05907 40.6303 6.32416 42.6881 6.32416ZM39.8954 14.7021C39.8954 15.29 40.1894 15.8045 40.6303 16.0984C41.1447 16.4659 41.7327 16.6864 42.3206 16.6864C43.2025 16.6864 44.0844 16.3189 44.7458 15.6575C45.4807 14.9961 45.8482 14.1877 45.8482 13.3058C45.1867 12.7913 44.2314 12.4974 42.982 12.4974C42.1001 12.4974 41.3652 12.7179 40.7773 13.1588C40.1894 13.5263 39.8954 14.0407 39.8954 14.7021Z" fill="#5F6368"/>
<path d="M59.8115 6.69165L52.5359 23.3741H50.3312L53.0503 17.5683L48.2734 6.76514H50.6251L54.0792 15.0696H54.1527L57.5333 6.76514H59.8115V6.69165Z" fill="#5F6368"/>
<path d="M20.0521 9.92523C20.0521 9.26381 19.9786 8.6024 19.9051 7.94098H10.7188V11.689H15.9366C15.7161 12.8649 15.0547 13.9672 14.0258 14.6286V17.0538H17.1859C19.0232 15.3636 20.0521 12.8649 20.0521 9.92523Z" fill="#4285F4"/>
<path d="M10.7188 19.4056C13.3645 19.4056 15.5692 18.5237 17.186 17.0539L14.0259 14.6287C13.144 15.2166 12.0416 15.584 10.7188 15.584C8.2201 15.584 6.01538 13.8938 5.28047 11.5421H2.04688V14.0407C3.73716 17.3478 7.04425 19.4056 10.7188 19.4056Z" fill="#34A853"/>
<path d="M5.28084 11.542C4.8399 10.3662 4.8399 9.04332 5.28084 7.79398V5.29529H2.04724C0.650919 8.01445 0.650919 11.248 2.04724 14.0407L5.28084 11.542Z" fill="#FBBC04"/>
<path d="M10.7195 3.82548C12.1158 3.82548 13.4387 4.33991 14.4676 5.29529L17.2602 2.50264C15.4964 0.885844 13.1447 -0.0695369 10.793 0.00395391C7.11847 0.00395391 3.73789 2.0617 2.12109 5.36878L5.35469 7.86747C6.01611 5.51576 8.22083 3.82548 10.7195 3.82548Z" fill="#EA4335"/>
</svg>
