<svg width="166" height="40" viewBox="0 0 166 40" fill="none" xmlns="http://www.w3.org/2000/svg">
<g opacity="0.25" clip-path="url(#clip0_4_6843)">
<path d="M49.9512 28.3066H61.6172V24.7927H54.0975V11.5571H49.9512V28.3066Z" fill="white"/>
<path d="M68.53 25.964C66.8668 25.964 66 24.5116 66 22.333C66 20.1544 66.8668 18.6786 68.53 18.6786C70.1933 18.6786 71.0834 20.1544 71.0834 22.333C71.0834 24.5116 70.1933 25.964 68.53 25.964ZM68.5535 28.6814C72.4187 28.6814 74.9487 25.9406 74.9487 22.333C74.9487 18.7254 72.4187 15.9846 68.5535 15.9846C64.7116 15.9846 62.1348 18.7254 62.1348 22.333C62.1348 25.9406 64.7116 28.6814 68.5535 28.6814Z" fill="white"/>
<path d="M81.6395 32.4525C83.4199 32.4525 84.9894 32.0542 86.0436 31.1172C87.0041 30.2505 87.6366 28.9386 87.6366 27.1348V16.3121H83.9821V17.6005H83.9353C83.2325 16.5932 82.1549 15.9607 80.562 15.9607C77.5869 15.9607 75.5254 18.4438 75.5254 21.9577C75.5254 25.6356 78.032 27.6502 80.7259 27.6502C82.1783 27.6502 83.0919 27.0645 83.7947 26.2681H83.8884V27.4628C83.8884 28.9152 83.2091 29.7585 81.5927 29.7585C80.3277 29.7585 79.6952 29.2197 79.4844 28.5872H75.7831C76.1579 31.0938 78.3365 32.4525 81.6395 32.4525ZM81.6161 24.8157C80.1871 24.8157 79.2501 23.6444 79.2501 21.8406C79.2501 20.0134 80.1871 18.8421 81.6161 18.8421C83.2091 18.8421 84.0524 20.2008 84.0524 21.8172C84.0524 23.5038 83.2793 24.8157 81.6161 24.8157Z" fill="white"/>
<path d="M95.1492 25.964C93.4859 25.964 92.6192 24.5116 92.6192 22.333C92.6192 20.1544 93.4859 18.6786 95.1492 18.6786C96.8124 18.6786 97.7022 20.1544 97.7022 22.333C97.7022 24.5116 96.8124 25.964 95.1492 25.964ZM95.1726 28.6814C99.0375 28.6814 101.567 25.9406 101.567 22.333C101.567 18.7254 99.0375 15.9846 95.1726 15.9846C91.3307 15.9846 88.7539 18.7254 88.7539 22.333C88.7539 25.9406 91.3307 28.6814 95.1726 28.6814Z" fill="white"/>
<path d="M102.684 28.3066H106.502V16.3126H102.684V28.3066ZM102.684 14.6493H106.502V11.5571H102.684V14.6493Z" fill="white"/>
<path d="M108.158 32.2651H111.977V27.0645H112.023C112.773 28.0719 113.874 28.6809 115.42 28.6809C118.559 28.6809 120.644 26.1978 120.644 22.3091C120.644 18.7015 118.7 15.9607 115.514 15.9607C113.874 15.9607 112.703 16.6869 111.883 17.7645H111.813V16.3121H108.158V32.2651ZM114.436 25.7293C112.797 25.7293 111.859 24.394 111.859 22.4497C111.859 20.5053 112.703 19.0295 114.366 19.0295C116.006 19.0295 116.779 20.3882 116.779 22.4497C116.779 24.4877 115.889 25.7293 114.436 25.7293Z" fill="white"/>
<path d="M126.86 28.6809C129.999 28.6809 132.319 27.3222 132.319 24.6985C132.319 21.6297 129.835 21.091 127.727 20.7396C126.204 20.4585 124.846 20.3413 124.846 19.498C124.846 18.7484 125.572 18.397 126.509 18.397C127.563 18.397 128.289 18.7249 128.43 19.8025H131.944C131.756 17.4365 129.929 15.9607 126.532 15.9607C123.698 15.9607 121.355 17.2725 121.355 19.8025C121.355 22.6136 123.581 23.1759 125.666 23.5272C127.259 23.8084 128.711 23.9255 128.711 25.0031C128.711 25.7761 127.985 26.1978 126.837 26.1978C125.572 26.1978 124.775 25.6121 124.635 24.4174H121.027C121.144 27.0645 123.347 28.6809 126.86 28.6809Z" fill="white"/>
<path d="M137.506 28.6579C139.169 28.6579 140.223 28.002 141.09 26.8307H141.16V28.3065H144.815V16.3125H140.996V23.0123C140.996 24.4413 140.2 25.4252 138.888 25.4252C137.67 25.4252 137.084 24.699 137.084 23.3871V16.3125H133.289V24.1836C133.289 26.8541 134.741 28.6579 137.506 28.6579Z" fill="white"/>
<path d="M146.477 28.3061H150.295V21.5829C150.295 20.1539 150.998 19.1466 152.192 19.1466C153.34 19.1466 153.879 19.8962 153.879 21.1847V28.3061H157.698V21.5829C157.698 20.1539 158.377 19.1466 159.595 19.1466C160.743 19.1466 161.282 19.8962 161.282 21.1847V28.3061H165.1V20.5053C165.1 17.8113 163.741 15.9607 161.024 15.9607C159.478 15.9607 158.189 16.6166 157.252 18.069H157.206C156.597 16.7806 155.402 15.9607 153.832 15.9607C152.099 15.9607 150.951 16.7806 150.201 18.0222H150.131V16.3121H146.477V28.3061Z" fill="white"/>
<path fill-rule="evenodd" clip-rule="evenodd" d="M19.5215 39.043C30.303 39.043 39.043 30.3029 39.043 19.5215C39.043 8.74008 30.303 0 19.5215 0C8.74007 0 0 8.74008 0 19.5215C0 30.3029 8.74007 39.043 19.5215 39.043ZM22.5346 15.0829C24.1987 13.4188 24.1987 10.7208 22.5346 9.05668C20.8705 7.39259 18.1726 7.39259 16.5084 9.05668C14.8444 10.7208 14.8444 13.4188 16.5084 15.0829L19.5215 18.0959L22.5346 15.0829ZM23.9602 22.5346C25.6243 24.1988 28.3223 24.1988 29.9864 22.5346C31.6504 20.8705 31.6504 18.1726 29.9864 16.5084C28.3223 14.8444 25.6243 14.8444 23.9602 16.5084L20.9472 19.5216L23.9602 22.5346ZM22.5346 29.9864C24.1987 28.3223 24.1987 25.6243 22.5346 23.9602L19.5215 20.9472L16.5084 23.9602C14.8444 25.6243 14.8444 28.3223 16.5084 29.9864C18.1726 31.6505 20.8705 31.6505 22.5346 29.9864ZM9.05665 22.5346C7.3926 20.8705 7.3926 18.1726 9.05665 16.5084C10.7208 14.8444 13.4188 14.8444 15.0829 16.5084L18.0959 19.5216L15.0829 22.5346C13.4188 24.1988 10.7208 24.1988 9.05665 22.5346Z" fill="white"/>
</g>
<defs>
<clipPath id="clip0_4_6843">
<rect width="166" height="40" fill="white"/>
</clipPath>
</defs>
</svg>
