<svg width="166" height="40" viewBox="0 0 166 40" fill="none" xmlns="http://www.w3.org/2000/svg">
<g opacity="0.25" clip-path="url(#clip0_4_6881)">
<path d="M48.6875 27.873H60.5729V24.293H52.9118V10.8086H48.6875V27.873Z" fill="white"/>
<path d="M67.6151 25.4862C65.9206 25.4862 65.0375 24.0065 65.0375 21.787C65.0375 19.5674 65.9206 18.0638 67.6151 18.0638C69.3096 18.0638 70.2165 19.5674 70.2165 21.787C70.2165 24.0065 69.3096 25.4862 67.6151 25.4862ZM67.639 28.2547C71.5769 28.2547 74.1544 25.4624 74.1544 21.787C74.1544 18.1116 71.5769 15.3192 67.639 15.3192C63.7249 15.3192 61.0996 18.1116 61.0996 21.787C61.0996 25.4624 63.7249 28.2547 67.639 28.2547Z" fill="white"/>
<path d="M80.9693 32.0973C82.7831 32.0973 84.3822 31.6915 85.4562 30.7369C86.4347 29.8538 87.0791 28.5173 87.0791 26.6796V15.6534H83.3559V16.9661H83.3082C82.5922 15.9398 81.4944 15.2954 79.8715 15.2954C76.8405 15.2954 74.7402 17.8253 74.7402 21.4052C74.7402 25.1522 77.2939 27.2047 80.0385 27.2047C81.5182 27.2047 82.449 26.608 83.165 25.7966H83.2605V27.0137C83.2605 28.4935 82.5684 29.3526 80.9216 29.3526C79.6328 29.3526 78.9884 28.8037 78.7736 28.1593H75.0028C75.3846 30.713 77.6042 32.0973 80.9693 32.0973ZM80.9455 24.3169C79.4896 24.3169 78.535 23.1236 78.535 21.2859C78.535 19.4243 79.4896 18.231 80.9455 18.231C82.5684 18.231 83.4275 19.6152 83.4275 21.262C83.4275 22.9804 82.64 24.3169 80.9455 24.3169Z" fill="white"/>
<path d="M94.7342 25.4862C93.0397 25.4862 92.1567 24.0065 92.1567 21.787C92.1567 19.5674 93.0397 18.0638 94.7342 18.0638C96.4287 18.0638 97.3356 19.5674 97.3356 21.787C97.3356 24.0065 96.4287 25.4862 94.7342 25.4862ZM94.7581 28.2547C98.696 28.2547 101.273 25.4624 101.273 21.787C101.273 18.1116 98.696 15.3192 94.7581 15.3192C90.844 15.3192 88.2188 18.1116 88.2188 21.787C88.2188 25.4624 90.844 28.2547 94.7581 28.2547Z" fill="white"/>
<path d="M102.41 27.873H106.3V15.6535H102.41V27.873ZM102.41 13.959H106.3V10.8086H102.41V13.959Z" fill="white"/>
<path d="M107.988 31.9063H111.878V26.608H111.926C112.69 27.6343 113.812 28.2548 115.387 28.2548C118.585 28.2548 120.709 25.725 120.709 21.7632C120.709 18.0878 118.728 15.2954 115.482 15.2954C113.812 15.2954 112.618 16.0353 111.783 17.1331H111.711V15.6534H107.988V31.9063ZM114.384 25.2477C112.714 25.2477 111.759 23.8873 111.759 21.9064C111.759 19.9255 112.618 18.4219 114.313 18.4219C115.983 18.4219 116.771 19.8062 116.771 21.9064C116.771 23.9827 115.864 25.2477 114.384 25.2477Z" fill="white"/>
<path d="M127.042 28.2548C130.24 28.2548 132.603 26.8706 132.603 24.1975C132.603 21.0711 130.073 20.5221 127.925 20.1641C126.374 19.8778 124.99 19.7584 124.99 18.8992C124.99 18.1355 125.73 17.7775 126.684 17.7775C127.758 17.7775 128.498 18.1117 128.641 19.2095H132.221C132.03 16.799 130.169 15.2954 126.708 15.2954C123.82 15.2954 121.434 16.6319 121.434 19.2095C121.434 22.0734 123.701 22.6462 125.825 23.0042C127.448 23.2906 128.928 23.41 128.928 24.5078C128.928 25.2954 128.188 25.725 127.018 25.725C125.73 25.725 124.918 25.1283 124.775 23.9111H121.1C121.219 26.608 123.462 28.2548 127.042 28.2548Z" fill="white"/>
<path d="M137.888 28.2308C139.582 28.2308 140.656 27.5625 141.539 26.3692H141.611V27.8728H145.334V15.6533H141.444V22.479C141.444 23.9349 140.632 24.9372 139.296 24.9372C138.055 24.9372 137.458 24.1974 137.458 22.8609V15.6533H133.592V23.6723C133.592 26.3931 135.071 28.2308 137.888 28.2308Z" fill="white"/>
<path d="M147.027 27.8729H150.918V21.0233C150.918 19.5675 151.634 18.5412 152.851 18.5412C154.02 18.5412 154.569 19.305 154.569 20.6176V27.8729H158.459V21.0233C158.459 19.5675 159.151 18.5412 160.392 18.5412C161.562 18.5412 162.111 19.305 162.111 20.6176V27.8729H166.001V19.9255C166.001 17.1809 164.617 15.2954 161.848 15.2954C160.273 15.2954 158.96 15.9637 158.006 17.4434H157.958C157.338 16.1308 156.12 15.2954 154.521 15.2954C152.755 15.2954 151.586 16.1308 150.822 17.3957H150.75V15.6534H147.027V27.8729Z" fill="white"/>
<path d="M24.9526 1.04789L21.0416 -9.15527e-05L17.7456 12.3005L14.77 1.19545L10.8588 2.24343L14.0738 14.2416L6.06607 6.23394L3.20293 9.09708L11.9864 17.8806L1.04798 14.9497L0 18.8607L11.9516 22.0632C11.8148 21.473 11.7424 20.858 11.7424 20.2262C11.7424 15.7537 15.3681 12.128 19.8406 12.128C24.3131 12.128 27.9388 15.7537 27.9388 20.2262C27.9388 20.854 27.8673 21.4651 27.7322 22.0519L38.594 24.9622L39.6419 21.0512L27.6428 17.836L38.5819 14.9048L37.5339 10.9937L25.5353 14.2087L33.543 6.20106L30.6798 3.33792L22.0182 11.9996L24.9526 1.04789Z" fill="white"/>
<path d="M27.7216 22.0971C27.3863 23.5148 26.6784 24.7884 25.707 25.8087L33.5759 33.6777L36.4391 30.8146L27.7216 22.0971Z" fill="white"/>
<path d="M25.6264 25.8913C24.6433 26.8954 23.401 27.6447 22.0078 28.0308L24.8712 38.7169L28.7822 37.6689L25.6264 25.8913Z" fill="white"/>
<path d="M21.8624 28.0697C21.2161 28.2358 20.5386 28.3241 19.8404 28.3241C19.0924 28.3241 18.368 28.2227 17.6804 28.0329L14.8145 38.7287L18.7255 39.7766L21.8624 28.0697Z" fill="white"/>
<path d="M17.543 27.9935C16.1711 27.5882 14.9509 26.8293 13.9879 25.8224L6.09961 33.7106L8.96275 36.5738L17.543 27.9935Z" fill="white"/>
<path d="M13.9219 25.7526C12.9754 24.7393 12.286 23.4827 11.9578 22.0869L1.06055 25.0069L2.10852 28.918L13.9219 25.7526Z" fill="white"/>
</g>
<defs>
<clipPath id="clip0_4_6881">
<rect width="166" height="40" fill="white"/>
</clipPath>
</defs>
</svg>
