<svg width="166" height="40" viewBox="0 0 166 40" fill="none" xmlns="http://www.w3.org/2000/svg">
<g opacity="0.25" clip-path="url(#clip0_4_6869)">
<path d="M49.5059 27.7952H61.207V24.2708H53.6647V10.9954H49.5059V27.7952Z" fill="white"/>
<path d="M68.1391 25.4457C66.4709 25.4457 65.6015 23.989 65.6015 21.8038C65.6015 19.6187 66.4709 18.1384 68.1391 18.1384C69.8073 18.1384 70.7002 19.6187 70.7002 21.8038C70.7002 23.989 69.8073 25.4457 68.1391 25.4457ZM68.1626 28.1713C72.0395 28.1713 74.5771 25.4222 74.5771 21.8038C74.5771 18.1854 72.0395 15.4363 68.1626 15.4363C64.3092 15.4363 61.7246 18.1854 61.7246 21.8038C61.7246 25.4222 64.3092 28.1713 68.1626 28.1713Z" fill="white"/>
<path d="M81.2888 31.9541C83.0745 31.9541 84.6488 31.5546 85.7061 30.6148C86.6694 29.7454 87.3038 28.4296 87.3038 26.6204V15.7651H83.6384V17.0574H83.5914C82.8865 16.0471 81.8057 15.4127 80.208 15.4127C77.2239 15.4127 75.1562 17.9033 75.1562 21.4277C75.1562 25.1166 77.6704 27.1373 80.3724 27.1373C81.8292 27.1373 82.7456 26.5499 83.4504 25.751H83.5444V26.9493C83.5444 28.4061 82.863 29.252 81.2418 29.252C79.973 29.252 79.3386 28.7116 79.1271 28.0772H75.4147C75.7907 30.5913 77.9758 31.9541 81.2888 31.9541ZM81.2653 24.2943C79.832 24.2943 78.8922 23.1194 78.8922 21.3102C78.8922 19.4775 79.832 18.3027 81.2653 18.3027C82.863 18.3027 83.7089 19.6655 83.7089 21.2867C83.7089 22.9785 82.9335 24.2943 81.2653 24.2943Z" fill="white"/>
<path d="M94.8403 25.4457C93.172 25.4457 92.3027 23.989 92.3027 21.8038C92.3027 19.6187 93.172 18.1384 94.8403 18.1384C96.5085 18.1384 97.4014 19.6187 97.4014 21.8038C97.4014 23.989 96.5085 25.4457 94.8403 25.4457ZM94.8638 28.1713C98.7407 28.1713 101.278 25.4222 101.278 21.8038C101.278 18.1854 98.7407 15.4363 94.8638 15.4363C91.0104 15.4363 88.4258 18.1854 88.4258 21.8038C88.4258 25.4222 91.0104 28.1713 94.8638 28.1713Z" fill="white"/>
<path d="M102.396 27.7952H106.226V15.7651H102.396V27.7952ZM102.396 14.0969H106.226V10.9954H102.396V14.0969Z" fill="white"/>
<path d="M107.889 31.7661H111.719V26.5499H111.766C112.517 27.5602 113.622 28.1712 115.173 28.1712C118.321 28.1712 120.412 25.6805 120.412 21.7802C120.412 18.1617 118.462 15.4127 115.267 15.4127C113.622 15.4127 112.447 16.141 111.625 17.2219H111.554V15.7651H107.889V31.7661ZM114.186 25.2106C112.541 25.2106 111.601 23.8713 111.601 21.9211C111.601 19.9709 112.447 18.4907 114.115 18.4907C115.76 18.4907 116.535 19.8535 116.535 21.9211C116.535 23.9653 115.642 25.2106 114.186 25.2106Z" fill="white"/>
<path d="M126.647 28.1712C129.796 28.1712 132.122 26.8084 132.122 24.1768C132.122 21.0988 129.631 20.5583 127.517 20.2059C125.99 19.9239 124.627 19.8065 124.627 18.9606C124.627 18.2087 125.355 17.8563 126.295 17.8563C127.352 17.8563 128.081 18.1852 128.222 19.2661H131.746C131.558 16.8929 129.725 15.4127 126.319 15.4127C123.475 15.4127 121.126 16.7285 121.126 19.2661C121.126 22.0856 123.358 22.6495 125.449 23.002C127.047 23.2839 128.504 23.4014 128.504 24.4822C128.504 25.2576 127.775 25.6805 126.624 25.6805C125.355 25.6805 124.556 25.0931 124.415 23.8948H120.797C120.914 26.5499 123.123 28.1712 126.647 28.1712Z" fill="white"/>
<path d="M137.325 28.1477C138.993 28.1477 140.051 27.4899 140.92 26.315H140.99V27.7953H144.656V15.7652H140.826V22.4851C140.826 23.9184 140.027 24.9053 138.711 24.9053C137.49 24.9053 136.902 24.1769 136.902 22.8611V15.7652H133.096V23.66C133.096 26.3385 134.552 28.1477 137.325 28.1477Z" fill="white"/>
<path d="M146.32 27.7952H150.15V21.0518C150.15 19.6185 150.855 18.6082 152.053 18.6082C153.205 18.6082 153.745 19.36 153.745 20.6523V27.7952H157.575V21.0518C157.575 19.6185 158.256 18.6082 159.478 18.6082C160.63 18.6082 161.17 19.36 161.17 20.6523V27.7952H165V19.9709C165 17.2689 163.637 15.4127 160.912 15.4127C159.361 15.4127 158.068 16.0706 157.129 17.5273H157.082C156.471 16.235 155.272 15.4127 153.698 15.4127C151.959 15.4127 150.808 16.235 150.056 17.4803H149.986V15.7651H146.32V27.7952Z" fill="white"/>
<path fill-rule="evenodd" clip-rule="evenodd" d="M19.9634 -9.15527e-05C30.9888 -9.15527e-05 39.9267 8.93778 39.9267 19.9632C39.9267 30.9888 30.9888 39.9267 19.9634 39.9267C8.93789 39.9267 0 30.9888 0 19.9632C0 8.93778 8.93789 -9.15527e-05 19.9634 -9.15527e-05ZM39.1605 19.9632C39.1605 9.361 30.5656 0.766104 19.9634 0.766104C19.1081 0.766104 18.2661 0.822025 17.4404 0.930412C17.9738 0.883772 18.5137 0.859962 19.0592 0.859962C29.1902 0.859962 37.403 9.07278 37.403 19.2038C37.403 29.3347 29.1902 37.5476 19.0592 37.5476C9.46785 37.5476 1.59578 30.1865 0.784349 20.8055C1.22515 31.017 9.64323 39.1604 19.9634 39.1604C30.5656 39.1604 39.1605 30.5655 39.1605 19.9632ZM36.6368 19.2038C36.6368 9.49591 28.7671 1.62617 19.0592 1.62617C18.271 1.62617 17.4948 1.67805 16.734 1.77859C17.2025 1.73917 17.6764 1.71907 18.1551 1.71907C27.3916 1.71907 34.8793 9.20681 34.8793 18.4433C34.8793 27.6799 27.3916 35.1676 18.1551 35.1676C9.42166 35.1676 2.25175 28.4734 1.49657 19.9362C1.88053 29.3044 9.59672 36.7814 19.0592 36.7814C28.7671 36.7814 36.6368 28.9116 36.6368 19.2038ZM18.1551 2.48527C26.9684 2.48527 34.1132 9.62994 34.1132 18.4433C34.1132 27.2567 26.9684 34.4013 18.1551 34.4013C9.54591 34.4013 2.52896 27.5839 2.20848 19.053C2.9004 26.753 9.37097 32.7875 17.251 32.7875C25.5925 32.7875 32.3548 26.0254 32.3548 17.6838C32.3548 9.34221 25.5925 2.58008 17.251 2.58008C16.8195 2.58008 16.3921 2.59818 15.9698 2.63365C16.6843 2.53582 17.4137 2.48527 18.1551 2.48527ZM31.5885 17.6838C31.5885 9.76543 25.1694 3.34628 17.251 3.34628C16.582 3.34628 15.9236 3.3921 15.279 3.48078C15.631 3.45323 15.9867 3.4392 16.3458 3.4392C23.793 3.4392 29.8301 9.47623 29.8301 16.9234C29.8301 24.3704 23.793 30.4075 16.3458 30.4075C9.33647 30.4075 3.57625 25.0593 2.92333 18.221C3.20581 25.8905 9.51243 32.0213 17.251 32.0213C25.1694 32.0213 31.5885 25.6022 31.5885 17.6838ZM16.3458 4.2054C23.3698 4.2054 29.0638 9.89946 29.0638 16.9234C29.0638 23.9473 23.3698 29.6413 16.3458 29.6413C9.46029 29.6413 3.85276 24.1695 3.6345 17.3369C4.22399 23.3385 9.28528 28.0275 15.4417 28.0275C21.9945 28.0275 27.3064 22.7155 27.3064 16.1629C27.3064 9.61026 21.9945 4.29829 15.4417 4.29829C15.1413 4.29829 14.8434 4.30946 14.5485 4.33141C15.1357 4.24835 15.7357 4.2054 16.3458 4.2054ZM26.5402 16.1629C26.5402 10.0334 21.5712 5.0645 15.4417 5.0645C14.8822 5.0645 14.3324 5.1059 13.7951 5.18581C14.0404 5.16824 14.288 5.15931 14.5377 5.15931C20.1953 5.15931 24.7818 9.74576 24.7818 15.4034C24.7818 21.0611 20.1953 25.6475 14.5377 25.6475C9.23613 25.6475 4.87521 21.6203 4.3472 16.4582C4.50374 22.4512 9.41102 27.2614 15.4417 27.2614C21.5712 27.2614 26.5402 22.2924 26.5402 16.1629ZM14.5377 5.92551C19.7722 5.92551 24.0155 10.1689 24.0155 15.4034C24.0155 20.638 19.7722 24.8813 14.5377 24.8813C9.36977 24.8813 5.16793 20.7453 5.06181 15.6028C5.53921 19.9143 9.19479 23.2675 13.6336 23.2675C18.3968 23.2675 22.2581 19.4062 22.2581 14.643C22.2581 9.87978 18.3968 6.01841 13.6336 6.01841C13.4514 6.01841 13.2706 6.02406 13.0912 6.03519C13.5628 5.96297 14.0458 5.92551 14.5377 5.92551ZM21.4919 14.643C21.4919 10.3029 17.9736 6.78461 13.6336 6.78461C13.1977 6.78461 12.7702 6.82009 12.3536 6.88832C12.4778 6.88178 12.6027 6.87847 12.7285 6.87847C16.5972 6.87847 19.7334 10.0147 19.7334 13.8835C19.7334 17.7522 16.5972 20.8885 12.7285 20.8885C9.15121 20.8885 6.20024 18.207 5.77585 14.7444C5.83019 19.0378 9.3274 22.5013 13.6336 22.5013C17.9736 22.5013 21.4919 18.983 21.4919 14.643ZM12.7285 7.64467C16.174 7.64467 18.9672 10.4378 18.9672 13.8835C18.9672 17.3291 16.174 20.1222 12.7285 20.1222C9.28286 20.1222 6.48966 17.3291 6.48966 13.8835C6.48966 13.8752 6.48968 13.8669 6.48971 13.8587C6.84844 16.4844 9.10013 18.5075 11.8244 18.5075C14.7981 18.5075 17.2088 16.0968 17.2088 13.1231C17.2088 10.1492 14.7981 7.73854 11.8244 7.73854C11.7571 7.73854 11.6901 7.73977 11.6235 7.74222C11.9821 7.67812 12.3514 7.64467 12.7285 7.64467ZM16.4426 13.1231C16.4426 10.5724 14.375 8.50474 11.8244 8.50474C9.27375 8.50474 7.20607 10.5724 7.20607 13.1231C7.20607 15.6736 9.27375 17.7413 11.8244 17.7413C14.375 17.7413 16.4426 15.6736 16.4426 13.1231Z" fill="white"/>
</g>
<defs>
<clipPath id="clip0_4_6869">
<rect width="166" height="40" fill="white"/>
</clipPath>
</defs>
</svg>
