<svg width="166" height="40" viewBox="0 0 166 40" fill="none" xmlns="http://www.w3.org/2000/svg">
<g opacity="0.25" clip-path="url(#clip0_4_6831)">
<path d="M48 28H60V24.4336H52.2651V11H48V28Z" fill="white"/>
<path d="M67.4881 26.2177C65.8007 26.2177 64.9214 24.7306 64.9214 22.5C64.9214 20.2694 65.8007 18.7583 67.4881 18.7583C69.1755 18.7583 70.0786 20.2694 70.0786 22.5C70.0786 24.7306 69.1755 26.2177 67.4881 26.2177ZM67.5119 29C71.4333 29 74 26.1937 74 22.5C74 18.8063 71.4333 16 67.5119 16C63.6143 16 61 18.8063 61 22.5C61 26.1937 63.6143 29 67.5119 29Z" fill="white"/>
<path d="M81.058 32C82.8221 32 84.3772 31.6136 85.4217 30.7045C86.3733 29.8636 87 28.5909 87 26.8409V16.3409H83.3791V17.5909H83.3327C82.6364 16.6136 81.5687 16 79.9903 16C77.0426 16 75 18.4091 75 21.8182C75 25.3864 77.4836 27.3409 80.1528 27.3409C81.5919 27.3409 82.4971 26.7727 83.1934 26H83.2863V27.1591C83.2863 28.5682 82.6132 29.3864 81.0116 29.3864C79.7582 29.3864 79.1315 28.8636 78.9226 28.25H75.2553C75.6267 30.6818 77.7853 32 81.058 32ZM81.0348 24.5909C79.619 24.5909 78.6905 23.4545 78.6905 21.7045C78.6905 19.9318 79.619 18.7955 81.0348 18.7955C82.6132 18.7955 83.4487 20.1136 83.4487 21.6818C83.4487 23.3182 82.6828 24.5909 81.0348 24.5909Z" fill="white"/>
<path d="M94.488 26.2177C92.8006 26.2177 91.9213 24.7306 91.9213 22.5C91.9213 20.2694 92.8006 18.7583 94.488 18.7583C96.1753 18.7583 97.0784 20.2694 97.0784 22.5C97.0784 24.7306 96.1753 26.2177 94.488 26.2177ZM94.5117 29C98.433 29 101 26.1937 101 22.5C101 18.8063 98.433 16 94.5117 16C90.6142 16 88 18.8063 88 22.5C88 26.1937 90.6142 29 94.5117 29Z" fill="white"/>
<path d="M102 28H106V15.8266H102V28ZM102 14.1385H106V11H102V14.1385Z" fill="white"/>
<path d="M108 32H111.976V26.8966H112.024C112.805 27.8851 113.951 28.4828 115.561 28.4828C118.829 28.4828 121 26.046 121 22.2299C121 18.6897 118.976 16 115.659 16C113.951 16 112.732 16.7126 111.878 17.7701H111.805V16.3448H108V32ZM114.537 25.5862C112.829 25.5862 111.854 24.2759 111.854 22.3678C111.854 20.4598 112.732 19.0115 114.463 19.0115C116.171 19.0115 116.976 20.3448 116.976 22.3678C116.976 24.3678 116.049 25.5862 114.537 25.5862Z" fill="white"/>
<path d="M127.199 29C130.535 29 133 27.6114 133 24.93C133 21.7937 130.361 21.2431 128.12 20.884C126.502 20.5967 125.058 20.477 125.058 19.6151C125.058 18.849 125.83 18.4899 126.826 18.4899C127.946 18.4899 128.718 18.825 128.867 19.9263H132.602C132.402 17.5083 130.461 16 126.851 16C123.838 16 121.349 17.3407 121.349 19.9263C121.349 22.7993 123.714 23.3738 125.929 23.733C127.622 24.0203 129.166 24.14 129.166 25.2413C129.166 26.0313 128.394 26.4622 127.174 26.4622C125.83 26.4622 124.983 25.8637 124.834 24.6427H121C121.124 27.3481 123.465 29 127.199 29Z" fill="white"/>
<path d="M138.024 29C139.612 29 140.618 28.3093 141.445 27.0759H141.512V28.63H145V16H141.356V23.055C141.356 24.5598 140.596 25.5958 139.343 25.5958C138.181 25.5958 137.622 24.8311 137.622 23.4497V16H134V24.2884C134 27.1006 135.386 29 138.024 29Z" fill="white"/>
<path d="M147 28H150.896V21.4649C150.896 20.0759 151.613 19.0968 152.831 19.0968C154.003 19.0968 154.552 19.8254 154.552 21.0778V28H158.448V21.4649C158.448 20.0759 159.141 19.0968 160.384 19.0968C161.555 19.0968 162.104 19.8254 162.104 21.0778V28H166V20.4175C166 17.7989 164.614 16 161.842 16C160.264 16 158.95 16.6376 157.994 18.0493H157.946C157.325 16.797 156.106 16 154.504 16C152.736 16 151.565 16.797 150.8 18.0038H150.728V16.3416H147V28Z" fill="white"/>
<path fill-rule="evenodd" clip-rule="evenodd" d="M8.55273 3.59787C7.12207 4.59823 5.82837 5.78098 4.70532 7.1124C9.29462 6.68633 15.1252 7.38204 21.8944 10.7667C29.123 14.3809 34.9438 14.5031 38.9948 13.7217C38.6272 12.6088 38.1644 11.5392 37.6163 10.5224C32.979 11.0115 27.034 10.3641 20.1056 6.89998C15.706 4.70018 11.8278 3.79401 8.55273 3.59787ZM34.9074 6.66665C31.2453 2.575 25.9234 0 20 0C18.2605 0 16.5727 0.222107 14.9637 0.63948C17.1429 1.23409 19.4579 2.10399 21.8944 3.32227C26.967 5.85853 31.3464 6.67516 34.9074 6.66665ZM39.8609 17.6281C34.9669 18.5945 28.2088 18.396 20.1056 14.3444C12.53 10.5566 6.50043 10.6043 2.4339 11.508C2.224 11.5546 2.01904 11.6036 1.81903 11.6546C1.28662 12.8125 0.861634 14.0301 0.556702 15.2945C0.882386 15.2075 1.21893 15.1248 1.56616 15.0476C6.49957 13.9513 13.4701 13.9989 21.8944 18.2111C29.4701 21.9989 35.4996 21.9512 39.5662 21.0475C39.7055 21.0166 39.8428 20.9846 39.9778 20.9516C39.9926 20.6363 40 20.319 40 20C40 19.1975 39.9528 18.406 39.8609 17.6281ZM39.3248 25.1723C34.4783 26.0196 27.917 25.6944 20.1056 21.7888C12.53 18.001 6.50043 18.0487 2.4339 18.9524C1.53125 19.1529 0.719239 19.3972 0.00293 19.6551C0.000977 19.7698 0 19.8848 0 20C0 31.0457 8.95429 40 20 40C29.2571 40 37.0453 33.7109 39.3248 25.1723Z" fill="white"/>
</g>
<defs>
<clipPath id="clip0_4_6831">
<rect width="166" height="40" fill="white"/>
</clipPath>
</defs>
</svg>
