<svg width="166" height="40" viewBox="0 0 166 40" fill="none" xmlns="http://www.w3.org/2000/svg">
<g opacity="0.25">
<path d="M24.8572 27.2635H33.4409L12.1775 6H3.59375L24.8572 27.2635Z" fill="white"/>
<path d="M16.5879 6L37.0855 26.4976V6H31.5385V12.4715L25.0669 6L16.5879 6Z" fill="white"/>
<path d="M0 6.71188V27.2634H5.54699V20.7919L12.0184 27.2634H20.5516L0 6.71188Z" fill="white"/>
<path d="M50.4699 24.0662H55.44V26.9951H46.6758V11.4192H50.4699V24.0662Z" fill="white"/>
<path d="M62.2202 27.1725C61.0072 27.1725 59.9126 26.9136 58.9364 26.3958C57.9748 25.8781 57.2131 25.1385 56.651 24.1771C56.1037 23.2156 55.8301 22.0914 55.8301 20.8045C55.8301 19.5325 56.111 18.4156 56.6732 17.4542C57.2353 16.4778 58.0045 15.7309 58.9807 15.2132C59.957 14.6954 61.0516 14.4366 62.2645 14.4366C63.4775 14.4366 64.5721 14.6954 65.5484 15.2132C66.5246 15.7309 67.2938 16.4778 67.8559 17.4542C68.4181 18.4156 68.699 19.5325 68.699 20.8045C68.699 22.0766 68.4106 23.2008 67.8337 24.1771C67.2717 25.1385 66.495 25.8781 65.504 26.3958C64.5277 26.9136 63.4331 27.1725 62.2202 27.1725ZM62.2202 23.8886C62.945 23.8886 63.5589 23.6224 64.0618 23.0899C64.5795 22.5574 64.8383 21.7956 64.8383 20.8045C64.8383 19.8134 64.5869 19.0517 64.084 18.5192C63.5958 17.9867 62.9893 17.7204 62.2645 17.7204C61.5249 17.7204 60.911 17.9867 60.423 18.5192C59.9348 19.0369 59.6908 19.7987 59.6908 20.8045C59.6908 21.7956 59.9274 22.5574 60.4008 23.0899C60.8889 23.6224 61.4954 23.8886 62.2202 23.8886Z" fill="white"/>
<path d="M74.7493 14.4366C75.622 14.4366 76.3838 14.6141 77.0346 14.9691C77.7003 15.3241 78.2106 15.7901 78.5656 16.3669V14.6141H82.3598V26.9728C82.3598 28.1118 82.1304 29.1398 81.6719 30.0569C81.2282 30.9888 80.5403 31.7284 79.6084 32.2757C78.6913 32.823 77.5449 33.0967 76.1693 33.0967C74.3351 33.0967 72.8485 32.6603 71.7095 31.7875C70.5705 30.9296 69.9197 29.7611 69.757 28.2819H73.5068C73.6251 28.7552 73.9061 29.125 74.3499 29.3912C74.7937 29.6723 75.3409 29.8128 75.9919 29.8128C76.7758 29.8128 77.397 29.5836 77.8556 29.125C78.3289 28.6812 78.5656 27.9639 78.5656 26.9728V25.2199C78.1958 25.7968 77.6855 26.2701 77.0346 26.64C76.3838 26.9949 75.622 27.1725 74.7493 27.1725C73.7287 27.1725 72.8041 26.9136 71.9758 26.3958C71.1474 25.8633 70.4892 25.1164 70.0011 24.1549C69.5277 23.1787 69.291 22.0545 69.291 20.7824C69.291 19.5102 69.5277 18.3935 70.0011 17.4319C70.4892 16.4705 71.1474 15.7309 71.9758 15.2132C72.8041 14.6954 73.7287 14.4366 74.7493 14.4366ZM78.5656 20.8045C78.5656 19.8579 78.2994 19.1109 77.7668 18.5635C77.2492 18.0162 76.613 17.7425 75.8587 17.7425C75.1043 17.7425 74.4609 18.0162 73.9284 18.5635C73.4106 19.096 73.1517 19.8357 73.1517 20.7824C73.1517 21.7291 73.4106 22.4834 73.9284 23.0455C74.4609 23.5929 75.1043 23.8664 75.8587 23.8664C76.613 23.8664 77.2492 23.5929 77.7668 23.0455C78.2994 22.4982 78.5656 21.7512 78.5656 20.8045Z" fill="white"/>
<path d="M90.0757 27.1725C88.8627 27.1725 87.7682 26.9136 86.7918 26.3958C85.8304 25.8781 85.0686 25.1385 84.5065 24.1771C83.9592 23.2156 83.6855 22.0914 83.6855 20.8045C83.6855 19.5325 83.9666 18.4156 84.5287 17.4542C85.0908 16.4778 85.8599 15.7309 86.8363 15.2132C87.8125 14.6954 88.9072 14.4366 90.12 14.4366C91.333 14.4366 92.4276 14.6954 93.4039 15.2132C94.3801 15.7309 95.1493 16.4778 95.7114 17.4542C96.2735 18.4156 96.5546 19.5325 96.5546 20.8045C96.5546 22.0766 96.2661 23.2008 95.6893 24.1771C95.1271 25.1385 94.3506 25.8781 93.3595 26.3958C92.3832 26.9136 91.2886 27.1725 90.0757 27.1725ZM90.0757 23.8886C90.8005 23.8886 91.4144 23.6224 91.9172 23.0899C92.435 22.5574 92.6939 21.7956 92.6939 20.8045C92.6939 19.8134 92.4424 19.0517 91.9395 18.5192C91.4513 17.9867 90.8449 17.7204 90.12 17.7204C89.3805 17.7204 88.7666 17.9867 88.2785 18.5192C87.7903 19.0369 87.5463 19.7987 87.5463 20.8045C87.5463 21.7956 87.783 22.5574 88.2562 23.0899C88.7444 23.6224 89.3509 23.8886 90.0757 23.8886Z" fill="white"/>
<path d="M99.81 13.3272C99.1444 13.3272 98.5971 13.1349 98.1681 12.7503C97.754 12.3509 97.5469 11.8628 97.5469 11.2859C97.5469 10.6942 97.754 10.2061 98.1681 9.82149C98.5971 9.4221 99.1444 9.22241 99.81 9.22241C100.461 9.22241 100.993 9.4221 101.408 9.82149C101.836 10.2061 102.051 10.6942 102.051 11.2859C102.051 11.8628 101.836 12.3509 101.408 12.7503C100.993 13.1349 100.461 13.3272 99.81 13.3272ZM101.696 14.6141V26.9949H97.9018V14.6141H101.696Z" fill="white"/>
<path d="M107.573 16.3669C107.944 15.7901 108.454 15.3241 109.104 14.9691C109.755 14.6141 110.517 14.4366 111.39 14.4366C112.411 14.4366 113.335 14.6954 114.163 15.2132C114.992 15.7309 115.642 16.4705 116.116 17.4319C116.604 18.3935 116.848 19.5102 116.848 20.7824C116.848 22.0545 116.604 23.1787 116.116 24.1549C115.642 25.1164 114.992 25.8633 114.163 26.3958C113.335 26.9136 112.411 27.1725 111.39 27.1725C110.532 27.1725 109.77 26.9949 109.104 26.64C108.454 26.2849 107.944 25.8264 107.573 25.2643V32.897H103.779V14.6141H107.573V16.3669ZM112.987 20.7824C112.987 19.8357 112.721 19.096 112.189 18.5635C111.671 18.0162 111.027 17.7425 110.258 17.7425C109.504 17.7425 108.86 18.0162 108.328 18.5635C107.81 19.1109 107.552 19.8579 107.552 20.8045C107.552 21.7512 107.81 22.4982 108.328 23.0455C108.86 23.5929 109.504 23.8664 110.258 23.8664C111.013 23.8664 111.656 23.5929 112.189 23.0455C112.721 22.4834 112.987 21.7291 112.987 20.7824Z" fill="white"/>
<path d="M123.21 27.1725C122.13 27.1725 121.169 26.9876 120.326 26.6178C119.482 26.248 118.817 25.745 118.329 25.109C117.841 24.4582 117.567 23.7333 117.508 22.9345H121.258C121.302 23.3635 121.502 23.7112 121.857 23.9774C122.211 24.2437 122.648 24.3768 123.166 24.3768C123.639 24.3768 124.001 24.288 124.253 24.1106C124.52 23.9183 124.653 23.6741 124.653 23.3784C124.653 23.0233 124.467 22.7645 124.098 22.6017C123.727 22.4242 123.128 22.232 122.3 22.0249C121.413 21.8178 120.673 21.6032 120.081 21.3814C119.49 21.1447 118.98 20.7824 118.55 20.2942C118.122 19.7913 117.907 19.1183 117.907 18.2751C117.907 17.5651 118.099 16.9217 118.484 16.3447C118.883 15.7531 119.461 15.2871 120.214 14.9469C120.984 14.6067 121.894 14.4366 122.944 14.4366C124.497 14.4366 125.718 14.8212 126.605 15.5904C127.507 16.3595 128.025 17.3802 128.158 18.6523H124.653C124.593 18.2233 124.4 17.8831 124.075 17.6316C123.765 17.3802 123.35 17.2545 122.833 17.2545C122.39 17.2545 122.049 17.3432 121.812 17.5207C121.576 17.6834 121.458 17.9127 121.458 18.2085C121.458 18.5635 121.642 18.8298 122.012 19.0073C122.396 19.1848 122.989 19.3623 123.787 19.5398C124.704 19.7765 125.451 20.0131 126.028 20.2499C126.605 20.4717 127.108 20.8415 127.536 21.3592C127.981 21.8622 128.21 22.5425 128.225 23.4005C128.225 24.1254 128.017 24.7762 127.603 25.353C127.204 25.9152 126.62 26.3589 125.851 26.6843C125.096 27.0097 124.216 27.1725 123.21 27.1725Z" fill="white"/>
<path d="M142.105 14.614V26.9949H138.311V25.3087C137.927 25.856 137.402 26.2997 136.736 26.6399C136.086 26.9654 135.361 27.128 134.562 27.128C133.615 27.128 132.779 26.921 132.054 26.5068C131.329 26.0778 130.768 25.4639 130.369 24.6651C129.969 23.8664 129.77 22.9272 129.77 21.8473V14.614H133.541V21.337C133.541 22.1653 133.756 22.8088 134.184 23.2673C134.614 23.726 135.19 23.9552 135.915 23.9552C136.655 23.9552 137.239 23.726 137.668 23.2673C138.098 22.8088 138.311 22.1653 138.311 21.337V14.614H142.105Z" fill="white"/>
<path d="M159.963 14.4809C161.502 14.4809 162.722 14.9468 163.624 15.8787C164.542 16.8106 165 18.1049 165 19.7616V26.9949H161.228V20.2719C161.228 19.4731 161.014 18.8594 160.585 18.4303C160.17 17.9866 159.594 17.7647 158.854 17.7647C158.114 17.7647 157.53 17.9866 157.101 18.4303C156.688 18.8594 156.48 19.4731 156.48 20.2719V26.9949H152.708V20.2719C152.708 19.4731 152.494 18.8594 152.065 18.4303C151.65 17.9866 151.074 17.7647 150.334 17.7647C149.594 17.7647 149.01 17.9866 148.581 18.4303C148.167 18.8594 147.96 19.4731 147.96 20.2719V26.9949H144.166V14.614H147.96V16.1672C148.345 15.6495 148.847 15.2427 149.469 14.9468C150.09 14.6362 150.792 14.4809 151.576 14.4809C152.508 14.4809 153.337 14.6806 154.061 15.08C154.801 15.4794 155.378 16.0489 155.792 16.7885C156.222 16.108 156.806 15.5533 157.545 15.1244C158.285 14.6954 159.091 14.4809 159.963 14.4809Z" fill="white"/>
</g>
</svg>
