<svg width="166" height="40" viewBox="0 0 166 40" fill="none" xmlns="http://www.w3.org/2000/svg">
<g opacity="0.25" clip-path="url(#clip0_4_6898)">
<path fill-rule="evenodd" clip-rule="evenodd" d="M21.0474 12.6634C19.693 11.7547 18.1007 11.2697 16.4718 11.2697V3.00012C19.7296 3.00012 22.9142 3.97013 25.623 5.78748C28.3318 7.60482 30.443 10.1879 31.6897 13.21C32.9364 16.2321 33.2626 19.5577 32.627 22.7659C31.9915 25.9742 30.4227 28.9213 28.119 31.2343C25.8155 33.5474 22.8804 35.1225 19.6852 35.7607C16.4901 36.3989 13.1781 36.0713 10.1683 34.8195C7.15847 33.5677 4.58593 31.4479 2.776 28.728C0.966053 26.0081 0 22.8104 0 19.5393H8.23588C8.23588 21.1749 8.71892 22.7737 9.62388 24.1337C10.5288 25.4936 11.8151 26.5535 13.3201 27.1794C14.8249 27.8054 16.4809 27.9691 18.0785 27.65C19.6761 27.3309 21.1436 26.5433 22.2954 25.3868C23.4472 24.2302 24.2316 22.7568 24.5494 21.1526C24.8672 19.5485 24.7041 17.8857 24.0807 16.3747C23.4574 14.8636 22.4018 13.5721 21.0474 12.6634Z" fill="white"/>
<path fill-rule="evenodd" clip-rule="evenodd" d="M8.23588 3.00013C8.23588 4.08611 8.02286 5.16145 7.60896 6.16477C7.19507 7.16808 6.58842 8.07971 5.82365 8.84762C5.05888 9.61552 4.15096 10.2247 3.15174 10.6402C2.15251 11.0558 1.08155 11.2697 3.59999e-07 11.2697L0 19.5393C2.1631 19.5393 4.30502 19.1115 6.30348 18.2804C8.30193 17.4492 10.1178 16.2309 11.6473 14.6951C13.1768 13.1593 14.3901 11.336 15.2179 9.3294C16.0457 7.32277 16.4718 5.17208 16.4718 3.00012L8.23588 3.00013Z" fill="white"/>
<path d="M103.459 14.9519H99.4629V27.6973H103.459V14.9519Z" fill="white"/>
<path d="M99.9079 12.5653C100.325 12.9849 100.848 13.1947 101.474 13.1947C102.101 13.1947 102.615 12.9849 103.015 12.5653C103.416 12.1283 103.616 11.6037 103.616 10.9918C103.616 10.3624 103.416 9.8379 103.015 9.41832C102.615 8.9987 102.101 8.78891 101.474 8.78891C100.848 8.78891 100.325 8.9987 99.9079 9.41832C99.5068 9.8379 99.3066 10.3624 99.3066 10.9918C99.3066 11.6037 99.5068 12.1283 99.9079 12.5653Z" fill="white"/>
<path d="M42.1309 27.6972V9.18225H46.2314V24.0781H54.4064V27.6972H42.1309Z" fill="white"/>
<path fill-rule="evenodd" clip-rule="evenodd" d="M61.7911 27.9857C60.4852 27.9857 59.3013 27.6972 58.2391 27.1202C57.1944 26.5258 56.3673 25.7216 55.7578 24.7075C55.1485 23.6935 54.8438 22.5571 54.8438 21.2983C54.8438 20.0395 55.1485 18.9118 55.7578 17.9153C56.3673 16.9187 57.1944 16.1319 58.2391 15.555C59.2838 14.9605 60.4679 14.6633 61.7911 14.6633C63.1145 14.6633 64.2985 14.9519 65.3432 15.5287C66.3879 16.1057 67.215 16.9012 67.8244 17.9153C68.4339 18.9118 68.7386 20.0395 68.7386 21.2983C68.7386 22.5571 68.4339 23.6935 67.8244 24.7075C67.215 25.7216 66.3879 26.5258 65.3432 27.1202C64.2985 27.6972 63.1145 27.9857 61.7911 27.9857ZM61.7911 24.3404C62.3657 24.3404 62.8707 24.218 63.306 23.9732C63.7413 23.711 64.0721 23.3526 64.2985 22.898C64.5422 22.426 64.6641 21.8927 64.6641 21.2983C64.6641 20.7039 64.5422 20.1881 64.2985 19.751C64.0547 19.2965 63.7152 18.9468 63.2798 18.702C62.862 18.4397 62.3657 18.3087 61.7911 18.3087C61.234 18.3087 60.7378 18.4397 60.3024 18.702C59.8671 18.9468 59.5276 19.2965 59.2838 19.751C59.04 20.2056 58.9182 20.7301 58.9182 21.3245C58.9182 21.9015 59.04 22.426 59.2838 22.898C59.5276 23.3526 59.8671 23.711 60.3024 23.9732C60.7378 24.218 61.234 24.3404 61.7911 24.3404Z" fill="white"/>
<path fill-rule="evenodd" clip-rule="evenodd" d="M71.9045 32.6799C72.9666 33.1694 74.1942 33.4141 75.5872 33.4141C76.9453 33.4141 78.1555 33.1431 79.2176 32.6012C80.2798 32.0592 81.1155 31.3075 81.7249 30.3459C82.3343 29.3843 82.6394 28.2479 82.6394 26.9366V14.9518H78.7213V15.8081C78.4299 15.5618 78.099 15.3551 77.7289 15.1878C77.0497 14.8556 76.2749 14.6895 75.4044 14.6895C74.2378 14.6895 73.2017 14.9692 72.2963 15.5287C71.3908 16.0706 70.677 16.8224 70.1546 17.784C69.6322 18.7282 69.3711 19.7946 69.3711 20.9835C69.3711 22.1549 69.6322 23.2214 70.1546 24.183C70.677 25.1445 71.3908 25.9051 72.2963 26.4645C73.2017 27.024 74.2378 27.3037 75.4044 27.3037C76.2575 27.3037 77.0324 27.1377 77.7289 26.8055C78.0662 26.6446 78.3709 26.4549 78.643 26.2365V27.0415C78.643 27.9331 78.3557 28.6237 77.7811 29.1133C77.2239 29.6028 76.4491 29.8475 75.4566 29.8475C74.6556 29.8475 73.9679 29.7077 73.3933 29.4279C72.8361 29.1483 72.3311 28.7374 71.8783 28.1954L69.4233 30.6605C70.0327 31.5347 70.8598 32.2079 71.9045 32.6799ZM77.5982 23.37C77.1977 23.6147 76.719 23.7371 76.1617 23.7371C75.6046 23.7371 75.117 23.6147 74.6991 23.37C74.2986 23.1252 73.9852 22.793 73.7589 22.3734C73.5325 21.9363 73.4194 21.473 73.4194 20.9835C73.4194 20.459 73.5325 19.987 73.7589 19.5674C73.9852 19.1478 74.3074 18.8156 74.7252 18.5708C75.1431 18.326 75.622 18.2036 76.1617 18.2036C76.719 18.2036 77.1977 18.326 77.5982 18.5708C78.0161 18.8156 78.3295 19.1478 78.5385 19.5674C78.7649 19.987 78.878 20.459 78.878 20.9835C78.878 21.508 78.7649 21.98 78.5385 22.3996C78.3295 22.8018 78.0161 23.1252 77.5982 23.37Z" fill="white"/>
<path fill-rule="evenodd" clip-rule="evenodd" d="M91.0494 27.9857C89.7431 27.9857 88.5588 27.6972 87.4972 27.1202C86.4521 26.5258 85.6252 25.7216 85.0157 24.7075C84.4063 23.6935 84.1016 22.5571 84.1016 21.2983C84.1016 20.0395 84.4063 18.9118 85.0157 17.9153C85.6252 16.9187 86.4521 16.1319 87.4972 15.555C88.5415 14.9605 89.7259 14.6633 91.0494 14.6633C92.372 14.6633 93.5564 14.9519 94.6007 15.5287C95.6458 16.1057 96.4727 16.9012 97.0821 17.9153C97.6916 18.9118 97.9963 20.0395 97.9963 21.2983C97.9963 22.5571 97.6916 23.6935 97.0821 24.7075C96.4727 25.7216 95.6458 26.5258 94.6007 27.1202C93.5564 27.6972 92.372 27.9857 91.0494 27.9857ZM91.0494 24.3404C91.6234 24.3404 92.1283 24.218 92.5639 23.9732C92.9988 23.711 93.3299 23.3526 93.5564 22.898C93.8001 22.426 93.922 21.8927 93.922 21.2983C93.922 20.7039 93.8001 20.1881 93.5564 19.751C93.3126 19.2965 92.9733 18.9468 92.5376 18.702C92.12 18.4397 91.6234 18.3087 91.0494 18.3087C90.4918 18.3087 89.9952 18.4397 89.5603 18.702C89.1246 18.9468 88.7853 19.2965 88.5415 19.751C88.2977 20.2056 88.1759 20.7301 88.1759 21.3245C88.1759 21.9015 88.2977 22.426 88.5415 22.898C88.7853 23.3526 89.1246 23.711 89.5603 23.9732C89.9952 24.218 90.4918 24.3404 91.0494 24.3404Z" fill="white"/>
<path fill-rule="evenodd" clip-rule="evenodd" d="M113.063 27.9593C112.21 27.9593 111.426 27.7933 110.712 27.4611C110.337 27.2863 109.997 27.0776 109.694 26.8349V33.0733H105.75V14.9518H109.746V15.8314C110.036 15.5933 110.358 15.3875 110.712 15.214C111.426 14.8643 112.21 14.6895 113.063 14.6895C114.264 14.6895 115.327 14.978 116.249 15.5549C117.19 16.1318 117.921 16.9186 118.443 17.9152C118.983 18.9117 119.253 20.0482 119.253 21.3244C119.253 22.6007 118.983 23.7371 118.443 24.7337C117.921 25.7303 117.19 26.517 116.249 27.0939C115.327 27.6709 114.264 27.9593 113.063 27.9593ZM112.332 24.3403C112.906 24.3403 113.403 24.2092 113.82 23.9469C114.256 23.6847 114.595 23.3262 114.839 22.8717C115.083 22.4171 115.205 21.9014 115.205 21.3244C115.205 20.73 115.083 20.2055 114.839 19.7509C114.595 19.2964 114.256 18.9467 113.82 18.7019C113.403 18.4396 112.915 18.3086 112.358 18.3086C111.801 18.3086 111.304 18.4396 110.869 18.7019C110.451 18.9467 110.121 19.2964 109.877 19.7509C109.633 20.2055 109.511 20.73 109.511 21.3244C109.511 21.9014 109.624 22.4171 109.851 22.8717C110.094 23.3262 110.434 23.6847 110.869 23.9469C111.304 24.2092 111.792 24.3403 112.332 24.3403Z" fill="white"/>
<path d="M123.164 27.7234C123.896 27.9158 124.635 28.0119 125.384 28.0119C126.969 28.0119 128.222 27.6448 129.145 26.9104C130.085 26.1762 130.555 25.1884 130.555 23.947C130.555 23.1428 130.408 22.4959 130.111 22.0064C129.816 21.4994 129.433 21.0972 128.962 20.8C128.492 20.5028 127.996 20.2667 127.473 20.0919C126.951 19.9171 126.455 19.7685 125.985 19.6461C125.515 19.5237 125.132 19.3839 124.835 19.2265C124.54 19.0691 124.392 18.8593 124.392 18.5971C124.392 18.3523 124.505 18.1687 124.731 18.0463C124.957 17.9065 125.297 17.8366 125.75 17.8366C126.22 17.8366 126.698 17.9327 127.186 18.1251C127.691 18.3173 128.144 18.6496 128.544 19.1216L130.816 16.8138C130.242 16.0795 129.494 15.5287 128.57 15.1617C127.665 14.777 126.673 14.5847 125.593 14.5847C124.566 14.5847 123.669 14.7595 122.903 15.1091C122.137 15.4589 121.544 15.9397 121.127 16.5515C120.709 17.1459 120.5 17.8541 120.5 18.6758C120.5 19.4451 120.648 20.0832 120.944 20.5902C121.24 21.0797 121.623 21.4644 122.093 21.7441C122.563 22.0239 123.06 22.2424 123.582 22.3997C124.104 22.5571 124.601 22.7057 125.071 22.8456C125.54 22.968 125.924 23.1166 126.22 23.2914C126.534 23.4488 126.69 23.6848 126.69 23.9995C126.69 24.2442 126.559 24.4365 126.298 24.5764C126.054 24.7163 125.698 24.7862 125.228 24.7862C124.548 24.7862 123.921 24.6638 123.347 24.4191C122.772 24.1568 122.276 23.7984 121.858 23.3438L119.586 25.6516C120.022 26.1237 120.544 26.5434 121.153 26.9104C121.78 27.2601 122.45 27.5311 123.164 27.7234Z" fill="white"/>
<path d="M137.843 27.9857C136.677 27.9857 135.641 27.7497 134.736 27.2777C133.847 26.7881 133.151 26.1237 132.646 25.2845C132.141 24.4279 131.889 23.4488 131.889 22.3473V14.9519H135.885V22.2949C135.885 22.7319 135.954 23.1079 136.094 23.4225C136.25 23.7373 136.477 23.9821 136.773 24.1569C137.069 24.3317 137.426 24.4191 137.843 24.4191C138.435 24.4191 138.906 24.2355 139.254 23.8683C139.602 23.4837 139.776 22.9593 139.776 22.2949V14.9519H143.772V22.3211C143.772 23.4401 143.52 24.4279 143.015 25.2845C142.51 26.1237 141.814 26.7881 140.925 27.2777C140.037 27.7497 139.01 27.9857 137.843 27.9857Z" fill="white"/>
<path d="M149.754 14.9518H145.758V27.6971H149.754V20.2492C149.754 19.8121 149.841 19.445 150.015 19.1478C150.207 18.8506 150.46 18.6232 150.773 18.4659C151.086 18.291 151.443 18.2036 151.843 18.2036C152.418 18.2036 152.897 18.3872 153.28 18.7544C153.681 19.104 153.881 19.6023 153.881 20.2492V27.6971H157.877V20.2492C157.877 19.8121 157.964 19.445 158.138 19.1478C158.33 18.8506 158.582 18.6232 158.896 18.4659C159.209 18.291 159.566 18.2036 159.966 18.2036C160.541 18.2036 161.02 18.3872 161.403 18.7544C161.803 19.104 162.003 19.6023 162.003 20.2492V27.6971H166V19.8034C166 18.7369 165.773 17.8278 165.32 17.076C164.885 16.3067 164.284 15.721 163.518 15.3189C162.77 14.8993 161.908 14.6895 160.932 14.6895C159.94 14.6895 159.043 14.908 158.243 15.3451C157.722 15.6236 157.267 15.983 156.878 16.4233C156.515 15.9627 156.073 15.5859 155.552 15.2926C154.856 14.8906 154.064 14.6895 153.176 14.6895C152.235 14.6895 151.391 14.8906 150.643 15.2926C150.316 15.4599 150.021 15.6603 149.754 15.8938V14.9518Z" fill="white"/>
</g>
<defs>
<clipPath id="clip0_4_6898">
<rect width="166" height="40" fill="white"/>
</clipPath>
</defs>
</svg>
