<svg width="32" height="24" viewBox="0 0 32 24" fill="none" xmlns="http://www.w3.org/2000/svg">
<g clip-path="url(#clip0_4_6826)">
<path d="M11.6738 4.13864H20.3262V19.8609H11.6738V4.13864Z" fill="#FF5F00"/>
<path d="M12.2232 12C12.2232 8.80555 13.7064 5.97222 15.9863 4.13889C14.3107 2.80556 12.1957 2 9.88841 2C4.42232 2 0 6.47222 0 12C0 17.5278 4.42232 22 9.88841 22C12.1957 22 14.3107 21.1944 15.9863 19.8611C13.7064 18.0556 12.2232 15.1944 12.2232 12Z" fill="#EB001B"/>
<path d="M31.9999 11.9998C31.9999 17.5275 27.5776 21.9998 22.1115 21.9998C19.8042 21.9998 17.6892 21.1942 16.0137 19.8609C18.321 18.0275 19.7768 15.1942 19.7768 11.9998C19.7768 8.80531 18.2935 5.97198 16.0137 4.13865C17.6892 2.80531 19.8042 1.99976 22.1115 1.99976C27.5776 1.99976 31.9999 6.49975 31.9999 11.9998Z" fill="#F79E1B"/>
</g>
<defs>
<clipPath id="clip0_4_6826">
<rect width="32" height="24" fill="white"/>
</clipPath>
</defs>
</svg>
