<svg width="90" height="24" viewBox="0 0 90 24" fill="none" xmlns="http://www.w3.org/2000/svg">
<g clip-path="url(#clip0_4_6816)">
<path d="M10.8 0.00149536H3.79978C3.32067 0.00149536 2.91332 0.34985 2.83857 0.823223L0.00735098 18.7862C-0.0489598 19.1405 0.22542 19.4602 0.58464 19.4602H3.92666C4.40568 19.4602 4.81303 19.112 4.88778 18.6377L5.65135 13.7929C5.7251 13.3185 6.13345 12.9702 6.61147 12.9702H8.82753C13.4388 12.9702 16.1 10.7373 16.7951 6.3123C17.1083 4.37635 16.8084 2.85532 15.9025 1.79006C14.9076 0.620195 13.1429 0.00149536 10.8 0.00149536ZM11.6076 6.56226C11.2248 9.07589 9.30555 9.07589 7.44979 9.07589H6.39349L7.13453 4.38155C7.17859 4.09778 7.42419 3.88883 7.71083 3.88883H8.19494C9.45904 3.88883 10.6516 3.88883 11.2677 4.60986C11.6352 5.04013 11.7478 5.67926 11.6076 6.56226Z" fill="#283B82"/>
<path d="M31.7242 6.48134H28.3721C28.0866 6.48134 27.8399 6.69031 27.7957 6.97406L27.6475 7.9123L27.413 7.5722C26.6873 6.51816 25.0689 6.16588 23.4538 6.16588C19.7495 6.16588 16.5856 8.97345 15.9694 12.9119C15.6491 14.8764 16.1045 16.755 17.2182 18.065C18.2397 19.2696 19.7013 19.7715 21.4405 19.7715C24.4253 19.7715 26.0804 17.8511 26.0804 17.8511L25.9309 18.7831C25.8745 19.1396 26.1489 19.4592 26.5062 19.4592H29.5256C30.0057 19.4592 30.411 19.1109 30.4868 18.6367L32.2985 7.15531C32.356 6.80191 32.0826 6.48134 31.7242 6.48134ZM27.0517 13.0102C26.7283 14.9266 25.2082 16.2132 23.2697 16.2132C22.2962 16.2132 21.5182 15.9008 21.0187 15.3087C20.5233 14.7208 20.3349 13.8839 20.4926 12.9518C20.7945 11.0517 22.3402 9.72328 24.2491 9.72328C25.2011 9.72328 25.9749 10.0398 26.4847 10.6368C26.9955 11.2401 27.198 12.0821 27.0517 13.0102Z" fill="#283B82"/>
<path d="M49.5773 6.48135H46.2087C45.8873 6.48135 45.5853 6.64114 45.4032 6.90854L40.7571 13.757L38.7878 7.17585C38.664 6.76402 38.2842 6.48135 37.8543 6.48135H34.5441C34.1417 6.48135 33.8624 6.87464 33.9903 7.25364L37.7008 18.1501L34.2124 23.078C33.938 23.4661 34.2144 24 34.6885 24H38.0529C38.3722 24 38.6712 23.8442 38.8523 23.582L50.0563 7.39816C50.3245 7.01089 50.0492 6.48135 49.5773 6.48135Z" fill="#283B82"/>
<path d="M60.7316 0.00149536H53.7304C53.2524 0.00149536 52.8449 0.34985 52.7702 0.823223L49.939 18.7862C49.8828 19.1405 50.157 19.4602 50.5143 19.4602H54.1071C54.4407 19.4602 54.7264 19.2165 54.7785 18.8846L55.582 13.7929C55.6556 13.3185 56.0642 12.9702 56.5421 12.9702H58.7572C63.3693 12.9702 66.0297 10.7373 66.7257 6.3123C67.0401 4.37635 66.7381 2.85532 65.8322 1.79006C64.8382 0.620195 63.0746 0.00149536 60.7316 0.00149536ZM61.5393 6.56226C61.1575 9.07589 59.2384 9.07589 57.3814 9.07589H56.3262L57.0684 4.38155C57.1123 4.09778 57.3558 3.88883 57.6435 3.88883H58.1276C59.3909 3.88883 60.5843 3.88883 61.2004 4.60986C61.5679 5.04013 61.6794 5.67926 61.5393 6.56226Z" fill="#469BDB"/>
<path d="M81.6556 6.48134H78.3054C78.0178 6.48134 77.773 6.69031 77.7301 6.97406L77.5817 7.9123L77.3463 7.5722C76.6206 6.51816 75.0033 6.16588 73.3881 6.16588C69.6837 6.16588 66.521 8.97345 65.9046 12.9119C65.5854 14.8764 66.0388 16.755 67.1525 18.065C68.1761 19.2696 69.6356 19.7715 71.3747 19.7715C74.3594 19.7715 76.0145 17.8511 76.0145 17.8511L75.865 18.7831C75.8089 19.1396 76.0831 19.4592 76.4425 19.4592H79.461C79.939 19.4592 80.3465 19.1109 80.4212 18.6367L82.2339 7.15531C82.289 6.80191 82.0148 6.48134 81.6556 6.48134ZM76.9828 13.0102C76.6614 14.9266 75.1394 16.2132 73.2008 16.2132C72.2293 16.2132 71.4494 15.9008 70.9499 15.3087C70.4546 14.7208 70.2682 13.8839 70.4239 12.9518C70.7278 11.0517 72.2714 9.72328 74.1805 9.72328C75.1323 9.72328 75.9061 10.0398 76.4158 10.6368C76.9286 11.2401 77.1313 12.0821 76.9828 13.0102Z" fill="#469BDB"/>
<path d="M85.6072 0.49432L82.7339 18.7862C82.6777 19.1405 82.9519 19.4602 83.3092 19.4602H86.1977C86.6778 19.4602 87.0852 19.112 87.1589 18.6377L89.9921 0.675762C90.0484 0.321213 89.7742 0.000642776 89.4169 0.000642776H86.1823C85.8968 0.00149918 85.6512 0.210724 85.6072 0.49432Z" fill="#469BDB"/>
</g>
<defs>
<clipPath id="clip0_4_6816">
<rect width="90" height="24" fill="white"/>
</clipPath>
</defs>
</svg>
