<svg width="60" height="24" viewBox="0 0 60 24" fill="none" xmlns="http://www.w3.org/2000/svg">
<path d="M26.5665 20.7578H21.7871L24.7765 2.33408H29.5556L26.5665 20.7578Z" fill="#00579F"/>
<path d="M43.8916 2.78449C42.9489 2.41172 41.4537 2.00012 39.6049 2.00012C34.885 2.00012 31.5614 4.50875 31.541 8.09534C31.5018 10.7415 33.9206 12.2113 35.7297 13.0936C37.5788 13.9952 38.2074 14.5837 38.2074 15.3873C38.1886 16.6216 36.7132 17.1905 35.3372 17.1905C33.429 17.1905 32.4066 16.8972 30.8528 16.2105L30.2235 15.9161L29.5547 20.0518C30.6756 20.5609 32.7409 21.0126 34.885 21.0324C39.8999 21.0324 43.1648 18.5626 43.2035 14.7405C43.2225 12.6432 41.9453 11.0361 39.1917 9.72296C37.52 8.87997 36.4963 8.31156 36.4963 7.44904C36.5159 6.66493 37.3622 5.8618 39.2492 5.8618C40.8029 5.82246 41.9445 6.19472 42.8093 6.56724L43.2416 6.76287L43.8916 2.78449Z" fill="#00579F"/>
<path d="M50.2441 14.2309C50.6377 13.1725 52.1523 9.07612 52.1523 9.07612C52.1324 9.11546 52.5451 7.99817 52.7811 7.31226L53.1151 8.89976C53.1151 8.89976 54.0202 13.3098 54.2168 14.2309C53.4698 14.2309 51.1882 14.2309 50.2441 14.2309ZM56.1437 2.33408H52.4468C51.3068 2.33408 50.4407 2.667 49.9488 3.8627L42.8496 20.7575H47.8645C47.8645 20.7575 48.6901 18.4836 48.8676 17.9939C49.4177 17.9939 54.2962 17.9939 55.004 17.9939C55.1412 18.6407 55.5742 20.7575 55.5742 20.7575H59.9995L56.1437 2.33408Z" fill="#00579F"/>
<path d="M17.796 2.33408L13.1154 14.8973L12.6039 12.3493C11.7386 9.4093 9.02468 6.21503 5.99609 4.62675L10.2834 20.7383H15.3375L22.8499 2.33408H17.796Z" fill="#00579F"/>
<path d="M8.76827 2.33408H1.07867L1 2.70633C6.99837 4.23522 10.971 7.92053 12.6031 12.3501L10.9315 3.88276C10.6563 2.70607 9.81056 2.37289 8.76827 2.33408Z" fill="#FAA61A"/>
</svg>
