<svg width="24" height="24" viewBox="0 0 24 24" fill="none" xmlns="http://www.w3.org/2000/svg">
<path d="M5.52616 8.66861C5.40575 8.66861 5.30814 8.76623 5.30814 8.88664V20.2238C5.30814 20.3443 5.40575 20.4419 5.52616 20.4419H17.7355C17.8559 20.4419 17.9535 20.3443 17.9535 20.2238V8.88664C17.9535 8.76623 17.8559 8.66861 17.7355 8.66861H5.52616ZM4 8.88664C4 8.04376 4.68328 7.36047 5.52616 7.36047H17.7355C18.5783 7.36047 19.2616 8.04376 19.2616 8.88664V20.2238C19.2616 21.0667 18.5783 21.75 17.7355 21.75H5.52616C4.68328 21.75 4 21.0667 4 20.2238V8.88664Z" fill="white"/>
<path d="M11.6302 4.30814C10.3057 4.30814 9.23197 5.38188 9.23197 6.7064V9.75872C9.23197 10.12 8.93913 10.4128 8.5779 10.4128C8.21667 10.4128 7.92383 10.12 7.92383 9.75872V6.7064C7.92383 4.65941 9.58324 3 11.6302 3C13.6772 3 15.3366 4.65941 15.3366 6.7064V9.75872C15.3366 10.12 15.0438 10.4128 14.6825 10.4128C14.3213 10.4128 14.0285 10.12 14.0285 9.75872V6.7064C14.0285 5.38188 12.9548 4.30814 11.6302 4.30814Z" fill="white"/>
</svg>
