<svg width="24" height="24" viewBox="0 0 24 24" fill="none" xmlns="http://www.w3.org/2000/svg">
<path d="M3.18175 20.3175C3.23979 20.3756 3.30872 20.4217 3.3846 20.4532C3.46047 20.4846 3.5418 20.5008 3.62393 20.5008C3.70607 20.5008 3.7874 20.4846 3.86327 20.4532C3.93914 20.4217 4.00807 20.3756 4.06612 20.3175L11.7474 12.6363L19.4317 20.3175C19.549 20.4348 19.7081 20.5007 19.8739 20.5007C20.0398 20.5007 20.1988 20.4348 20.3161 20.3175C20.4334 20.2003 20.4993 20.0412 20.4993 19.8753C20.4993 19.7095 20.4334 19.5504 20.3161 19.4332L12.6317 11.7519L20.313 4.06753C20.4303 3.95026 20.4962 3.7912 20.4962 3.62535C20.4962 3.4595 20.4303 3.30044 20.313 3.18316C20.1957 3.06588 20.0367 3 19.8708 3C19.705 3 19.5459 3.06588 19.4286 3.18316L11.7474 10.8675L4.063 3.18629C3.94343 3.08389 3.78963 3.03039 3.63234 3.03647C3.47504 3.04254 3.32583 3.10775 3.21452 3.21906C3.10321 3.33037 3.038 3.47958 3.03193 3.63688C3.02585 3.79417 3.07935 3.94797 3.18175 4.06753L10.863 11.7519L3.18175 19.4363C3.06534 19.5534 3 19.7118 3 19.8769C3 20.042 3.06534 20.2004 3.18175 20.3175Z" fill="#0F73F6"/>
</svg>
