<svg width="24" height="24" viewBox="0 0 24 24" fill="none" xmlns="http://www.w3.org/2000/svg">
<path d="M22.8385 9.92487C22.7251 9.72013 22.5588 9.54961 22.3569 9.43111C22.1551 9.31261 21.9251 9.25049 21.6911 9.25123H9.25182C8.83243 9.25121 8.42434 9.38723 8.08882 9.63886C7.7533 9.89049 7.50845 10.2442 7.39102 10.6468L4.92887 19.0884C4.79925 19.5328 4.52899 19.9232 4.15866 20.2009C3.78833 20.4787 3.33791 20.6288 2.875 20.6288H18.5182C18.9812 20.6288 19.4317 20.4786 19.8021 20.2008C20.1725 19.923 20.4428 19.5326 20.5725 19.0881L22.9361 10.9845C22.9911 10.8103 23.0108 10.6268 22.994 10.4449C22.9772 10.2629 22.9244 10.0861 22.8385 9.92487Z" fill="#0F73F6"/>
<path d="M4.08735 18.8433L6.55103 10.4021C6.72266 9.81851 7.07823 9.30601 7.56475 8.94092C8.05128 8.57582 8.64274 8.37768 9.25101 8.37599H20.3791V7.93839C20.3791 7.47415 20.1947 7.02893 19.8665 6.70067C19.5382 6.37241 19.093 6.18799 18.6287 6.18799H11.9579C11.8275 6.18799 11.6987 6.15893 11.5809 6.10291C11.4632 6.0469 11.3594 5.96534 11.2771 5.86417L10.4169 4.80645C10.212 4.5545 9.95349 4.35139 9.66022 4.21189C9.36695 4.07239 9.04627 4.00001 8.72152 4H3.75039C3.28616 4 2.84094 4.18442 2.51268 4.51268C2.18442 4.84094 2 5.28616 2 5.75039L2 18.8784C2 19.1105 2.09221 19.3331 2.25634 19.4972C2.42047 19.6613 2.64308 19.7536 2.8752 19.7536C3.14837 19.7528 3.41398 19.6638 3.63243 19.4997C3.85087 19.3357 4.01044 19.1055 4.08735 18.8433Z" fill="#0F73F6"/>
</svg>
