<svg width="24" height="24" viewBox="0 0 24 24" fill="none" xmlns="http://www.w3.org/2000/svg">
<g clip-path="url(#clip0_4_6322)">
<path d="M20.6789 16.704C19.2291 15.464 17.7577 14.7128 16.3257 15.951L15.4706 16.6993C14.8449 17.2426 13.6817 19.7807 9.1842 14.607C4.68766 9.43986 7.36348 8.63533 7.99006 8.0968L8.84984 7.34753C10.2744 6.10655 9.73679 4.54433 8.70936 2.93621L8.08934 1.96216C7.05722 0.35779 5.93332 -0.695869 4.50502 0.543234L3.73328 1.21758C3.10202 1.67744 1.33749 3.17223 0.909472 6.01196C0.39435 9.41925 2.01933 13.3211 5.74225 17.6022C9.4605 21.8852 13.101 24.0365 16.5495 23.9991C19.4155 23.9682 21.1463 22.4303 21.6876 21.8712L22.4622 21.1959C23.8867 19.9577 23.0016 18.6971 21.5509 17.4542L20.6789 16.704Z" fill="#0F73F6"/>
</g>
<defs>
<clipPath id="clip0_4_6322">
<rect width="24" height="24" fill="white"/>
</clipPath>
</defs>
</svg>
