<svg width="24" height="24" viewBox="0 0 24 24" fill="none" xmlns="http://www.w3.org/2000/svg">
<path fill-rule="evenodd" clip-rule="evenodd" d="M12.3604 2V6.60953C13.6104 6.5919 14.8553 6.44543 16.0753 6.1722C15.2314 3.8141 13.8902 2.21736 12.3604 2ZM17.0038 11.6255H12.3604V7.32463C13.6863 7.30717 15.0069 7.1497 16.2998 6.85482C16.7487 8.406 16.9856 10.0108 17.0038 11.6255ZM22.0065 12.3406H17.7195C17.7032 14.0145 17.4604 15.6785 16.9976 17.2872C17.9414 17.5393 18.8522 17.9018 19.7111 18.3671C21.1214 16.6673 21.9287 14.548 22.0065 12.3406ZM16.0753 17.7939C15.2314 20.152 13.8902 21.7487 12.3604 21.9661V17.3566C13.6104 17.374 14.8553 17.5207 16.0753 17.7939ZM15.0748 21.5096C14.9854 21.5385 14.8953 21.5649 14.8049 21.5911L14.7288 21.614C14.6792 21.629 14.6292 21.6441 14.5786 21.6583C14.5642 21.6621 14.5497 21.6655 14.5352 21.6689C14.5207 21.6723 14.5062 21.6757 14.4917 21.6794C15.55 20.6518 16.3355 19.3763 16.7768 17.9688C17.6255 18.1926 18.4469 18.5088 19.2268 18.9116C19.2213 18.9172 19.216 18.923 19.2108 18.9288C19.2057 18.9344 19.2007 18.9399 19.1955 18.9453C19.1546 18.9876 19.1126 19.0288 19.0706 19.0699L19.0704 19.0701L19.0232 19.1165L19.0001 19.1392L19.0001 19.1393L19.0001 19.1393L19.0001 19.1393L19.0001 19.1393L19 19.1393L19 19.1394L19 19.1394L19 19.1394L18.9999 19.1394L18.9999 19.1395L18.9999 19.1395L18.9999 19.1395L18.9999 19.1395C18.9411 19.1974 18.8822 19.2555 18.8219 19.3117C18.7741 19.3563 18.7251 19.3997 18.6761 19.4431L18.6759 19.4432L18.6407 19.4744L18.6115 19.5003C18.5521 19.5531 18.4929 19.6057 18.4315 19.6567C18.3739 19.7047 18.3156 19.7512 18.2571 19.7978L18.257 19.7979L18.2568 19.7981L18.2416 19.8102C18.1698 19.8674 18.0965 19.9245 18.0249 19.9797C17.96 20.0275 17.8938 20.075 17.8273 20.1227C17.7533 20.1756 17.6789 20.2285 17.6035 20.2793C17.5359 20.325 17.4675 20.3694 17.3989 20.413C17.3222 20.4607 17.2451 20.5083 17.1675 20.556C17.0979 20.5979 17.0289 20.6386 16.9573 20.6791C16.8783 20.7241 16.7986 20.7679 16.7185 20.8109C16.6469 20.8491 16.5755 20.8863 16.504 20.9228C16.4224 20.964 16.3402 21.0036 16.2576 21.0425C16.1846 21.0766 16.1117 21.1105 16.0382 21.1428C15.9673 21.1729 15.8959 21.2029 15.8242 21.233L15.7838 21.25L15.7765 21.2529L15.7765 21.2529L15.7765 21.2529L15.7765 21.2529L15.7765 21.2529L15.7764 21.2529L15.7764 21.2529L15.7764 21.2529L15.7764 21.2529L15.7764 21.253L15.7764 21.253L15.7763 21.253L15.7763 21.253L15.7763 21.253L15.7763 21.253C15.705 21.282 15.6338 21.311 15.5619 21.3383C15.4746 21.3715 15.387 21.4027 15.299 21.4331L15.2833 21.4386C15.2141 21.4628 15.1449 21.487 15.0748 21.5096ZM16.2998 17.1114C15.0069 16.8166 13.6863 16.6591 12.3604 16.6415V12.3406H17.0038C16.9856 13.9553 16.7487 15.5603 16.2998 17.1114ZM19.7111 5.59904C18.8522 6.06431 17.9414 6.42674 16.9976 6.67884C17.4604 8.28763 17.7032 9.95159 17.7195 11.6255H22.0065C21.9285 9.41824 21.1212 7.29896 19.7111 5.59904ZM19.2091 5.03629C19.2154 5.04318 19.2216 5.05006 19.2281 5.05661C18.4475 5.46007 17.6249 5.77642 16.7754 6.00024C16.3338 4.59257 15.5486 3.31723 14.4902 2.28963C14.503 2.29295 14.5159 2.29599 14.5287 2.29903L14.5288 2.29903C14.545 2.30288 14.5613 2.30672 14.5774 2.31111C14.6456 2.32917 14.7135 2.3491 14.7811 2.36895L14.8017 2.37501C14.8935 2.40154 14.9829 2.4279 15.0723 2.45688C15.1477 2.48133 15.2221 2.50734 15.2965 2.53353C15.3845 2.5639 15.4724 2.59498 15.5592 2.62815C15.6336 2.65643 15.7069 2.68611 15.7806 2.71614C15.8088 2.72799 15.8371 2.73962 15.8654 2.75125L15.8654 2.75126L15.8654 2.75127L15.8654 2.75128C15.9225 2.77477 15.9795 2.79823 16.0362 2.82334C16.1098 2.85563 16.1825 2.88881 16.2541 2.92285C16.3391 2.96213 16.422 3.00211 16.5042 3.04366C16.54 3.06154 16.5757 3.08021 16.6114 3.09888L16.6115 3.09892L16.6116 3.09895C16.6473 3.11762 16.683 3.13629 16.7188 3.15417C16.7996 3.19747 16.8798 3.24181 16.9597 3.28755C17.0296 3.32718 17.0992 3.36804 17.1682 3.40941C17.2469 3.45655 17.3241 3.50526 17.4014 3.55502C17.4693 3.59814 17.5372 3.64213 17.6041 3.68718C17.6802 3.73833 17.7553 3.79193 17.83 3.8457C17.8958 3.89284 17.9613 3.93997 18.0259 3.98868C18.0996 4.04403 18.1729 4.10164 18.2445 4.1596L18.2717 4.18125L18.2717 4.18128L18.2717 4.1813C18.3256 4.22417 18.3796 4.26717 18.4325 4.31184C18.496 4.36477 18.558 4.41979 18.6199 4.47466L18.6199 4.47469L18.6424 4.49463C18.6667 4.51664 18.6911 4.53821 18.7154 4.5597L18.7155 4.55982L18.7157 4.55994L18.7158 4.56003L18.7159 4.56016L18.716 4.56018L18.716 4.5602C18.7522 4.59222 18.7883 4.62408 18.8236 4.65699C18.8816 4.71088 18.938 4.76665 18.9943 4.82229L18.9943 4.82232L19.0245 4.85217L19.0717 4.89839L19.0717 4.89843L19.0717 4.89845C19.1139 4.93968 19.1562 4.981 19.1974 5.02344L19.2091 5.03629ZM2 11.6255H6.28708C6.30331 9.95159 6.54616 8.28763 7.00881 6.67884C6.06518 6.42692 5.15438 6.06448 4.29543 5.59904C2.88514 7.29879 2.07786 9.41824 2 11.6255ZM11.6456 17.3566V21.9661C10.1158 21.7487 8.77443 20.152 7.93066 17.7939C9.15066 17.5207 10.3956 17.3742 11.6456 17.3566ZM11.6458 12.3406H7.00244C7.0206 13.9553 7.25733 15.5603 7.70636 17.1114C8.99933 16.8164 10.3197 16.6589 11.6458 16.6415V12.3406ZM7.93066 6.1722C8.77443 3.8141 10.1158 2.21736 11.6456 2V6.60953C10.3956 6.59208 9.15066 6.4456 7.93066 6.1722ZM11.6458 7.32463C10.3199 7.30717 8.99933 7.1497 7.70636 6.85482C7.25733 8.406 7.0206 10.0108 7.00244 11.6255H11.6458V7.32463ZM9.47033 2.29985C9.48482 2.29644 9.49931 2.29304 9.5138 2.28929C8.45599 3.31636 7.67107 4.591 7.22972 5.99779C6.38107 5.77398 5.55948 5.45781 4.77979 5.05487C4.78587 5.04868 4.79168 5.04222 4.79743 5.03583C4.80191 5.03085 4.80635 5.02591 4.81086 5.02117C4.85129 4.97937 4.89278 4.93874 4.9342 4.89817L4.93422 4.89816L4.9837 4.84956L5.01219 4.82149L5.0122 4.82147C5.06903 4.76545 5.12594 4.70937 5.18412 4.65507C5.22701 4.61456 5.27089 4.57586 5.31486 4.53708L5.36656 4.49131L5.39715 4.46417C5.45572 4.41215 5.51404 4.36036 5.57501 4.31009C5.62631 4.26672 5.67892 4.22477 5.73147 4.18288L5.73147 4.18287L5.73148 4.18286L5.76479 4.15628C5.79399 4.13365 5.82259 4.111 5.85104 4.08846L5.85105 4.08845C5.89436 4.05414 5.9373 4.02013 5.98144 3.98694C6.04656 3.93893 6.11273 3.89144 6.17925 3.84378C6.25327 3.79088 6.32764 3.73798 6.40306 3.68718C6.47063 3.64144 6.53889 3.59709 6.60768 3.5531L6.63662 3.53498C6.70353 3.49309 6.77076 3.451 6.83865 3.41011C6.90761 3.36821 6.97797 3.32719 7.04955 3.28721C7.12846 3.24216 7.2079 3.19817 7.28803 3.15522C7.35943 3.11716 7.43101 3.0798 7.50259 3.04331C7.58412 3.00211 7.66635 2.96248 7.74893 2.92355C7.82191 2.8895 7.89471 2.85564 7.96838 2.82334C8.03744 2.79405 8.10732 2.76464 8.17726 2.73522L8.17731 2.73519L8.22258 2.71614C8.2966 2.68577 8.37027 2.65609 8.445 2.62745C8.52402 2.5975 8.60391 2.56929 8.68375 2.54111L8.68376 2.5411L8.7067 2.533L8.72471 2.52673C8.79344 2.50279 8.86224 2.47883 8.93208 2.45619C9.02217 2.42756 9.11121 2.40119 9.20094 2.37501L9.25954 2.35793C9.31521 2.34165 9.37074 2.32541 9.42685 2.31041C9.44134 2.30666 9.45583 2.30325 9.47031 2.29985L9.47033 2.29985ZM4.98185 19.1139L5.01925 19.1508C5.07325 19.2041 5.12733 19.2575 5.18279 19.3093C5.21812 19.342 5.25406 19.3737 5.29022 19.4057C5.31482 19.4274 5.33952 19.4492 5.36419 19.4715L5.37253 19.4789L5.37271 19.479C5.43918 19.5382 5.50572 19.5973 5.57403 19.6543C5.63506 19.7055 5.69727 19.7549 5.75967 19.8046L5.76206 19.8065C5.83364 19.8645 5.90505 19.9221 5.98081 19.9778C6.02301 20.0094 6.06566 20.0404 6.10846 20.0716L6.10865 20.0717L6.17617 20.1209C6.2509 20.1745 6.32632 20.2281 6.40243 20.2796C6.4693 20.3247 6.53721 20.3687 6.60513 20.4119C6.68247 20.4615 6.75963 20.5102 6.83837 20.5574C6.90733 20.5989 6.97699 20.6396 7.04682 20.6794C7.12678 20.7252 7.20692 20.7695 7.28775 20.8126C7.32292 20.8302 7.35814 20.8486 7.39338 20.867L7.39357 20.8671C7.4298 20.8861 7.46606 20.905 7.50231 20.9231C7.58454 20.9647 7.66747 21.0047 7.75249 21.0441C7.82407 21.0778 7.8967 21.111 7.97037 21.1435C8.02807 21.169 8.0861 21.1929 8.14428 21.2169L8.1447 21.217C8.17176 21.2282 8.19885 21.2393 8.22596 21.2506C8.29964 21.2807 8.37296 21.3104 8.44733 21.3386C8.5341 21.372 8.62209 21.4031 8.71008 21.4334L8.72567 21.4389L8.72574 21.4389C8.7949 21.4631 8.86412 21.4873 8.93425 21.5099C9.02363 21.5389 9.11302 21.5654 9.20485 21.5918L9.22751 21.5984C9.2944 21.6181 9.36157 21.6378 9.42902 21.6559C9.44501 21.6602 9.46111 21.664 9.4772 21.6678L9.47728 21.6678L9.47729 21.6678C9.49033 21.6709 9.50335 21.674 9.51631 21.6773C8.45798 20.6496 7.67271 19.3742 7.23118 17.9666C6.38253 18.1905 5.56094 18.5067 4.78125 18.9098C4.7872 18.9159 4.79298 18.9222 4.79879 18.9286L4.81215 18.943C4.86558 19.0008 4.92317 19.0568 4.98129 19.1134L4.98141 19.1135L4.98185 19.1139ZM7.00881 17.2872C6.06518 17.5393 5.15438 17.9018 4.29543 18.3671C2.88514 16.6671 2.07804 14.5479 2 12.3406H6.28708C6.30331 14.0145 6.54616 15.6785 7.00881 17.2872Z" fill="#0F73F6"/>
</svg>
