<svg width="24" height="24" viewBox="0 0 24 24" fill="none" xmlns="http://www.w3.org/2000/svg">
<path fill-rule="evenodd" clip-rule="evenodd" d="M5.90625 2H18.0938C19.1291 2.00199 20.1216 2.41418 20.8537 3.14632C21.5858 3.87845 21.998 4.87086 22 5.90625V18.0938C21.998 19.1291 21.5858 20.1216 20.8537 20.8537C20.1216 21.5858 19.1291 21.998 18.0938 22H5.90625C4.87086 21.998 3.87845 21.5858 3.14632 20.8537C2.41418 20.1216 2.00199 19.1291 2 18.0938L2 5.90625C2.00199 4.87086 2.41418 3.87845 3.14632 3.14632C3.87845 2.41418 4.87086 2.00199 5.90625 2ZM6.14062 17.127C6.14068 17.3212 6.21786 17.5075 6.35521 17.6448C6.49255 17.7822 6.67882 17.8593 6.87305 17.8594H10.7064C10.8032 17.8604 10.8992 17.8422 10.989 17.8058C11.0787 17.7695 11.1604 17.7157 11.2292 17.6475C11.298 17.5794 11.3526 17.4984 11.3899 17.409C11.4272 17.3196 11.4464 17.2238 11.4464 17.127C11.4464 17.0301 11.4272 16.9343 11.3899 16.8449C11.3526 16.7555 11.298 16.6745 11.2292 16.6064C11.1604 16.5382 11.0787 16.4845 10.989 16.4481C10.8992 16.4117 10.8032 16.3935 10.7064 16.3945H8.64133L11.3679 13.668C11.5053 13.5306 11.5825 13.3443 11.5825 13.15C11.5825 12.9557 11.5054 12.7694 11.368 12.632C11.3 12.564 11.2192 12.51 11.1304 12.4732C11.0415 12.4364 10.9462 12.4174 10.85 12.4174C10.6558 12.4174 10.4694 12.4946 10.332 12.6319L7.60547 15.3589V13.2936C7.60348 13.1007 7.52543 12.9163 7.38829 12.7806C7.25115 12.6449 7.066 12.5687 6.87305 12.5687C6.6801 12.5687 6.49494 12.6449 6.3578 12.7806C6.22066 12.9163 6.14262 13.1007 6.14062 13.2936V17.127ZM17.8594 6.87309C17.8593 6.67884 17.7822 6.49257 17.6448 6.35522C17.5075 6.21786 17.3212 6.14068 17.127 6.14062H13.2936C13.1968 6.13963 13.1008 6.15783 13.011 6.19419C12.9213 6.23055 12.8396 6.28434 12.7708 6.35245C12.702 6.42056 12.6474 6.50164 12.6101 6.591C12.5728 6.68036 12.5536 6.77622 12.5536 6.87305C12.5536 6.96987 12.5728 7.06574 12.6101 7.15509C12.6474 7.24445 12.702 7.32553 12.7708 7.39364C12.8396 7.46175 12.9213 7.51554 13.011 7.5519C13.1008 7.58826 13.1968 7.60647 13.2936 7.60547H15.3589L12.6319 10.332C12.4945 10.4694 12.4173 10.6558 12.4173 10.8501C12.4173 11.0444 12.4945 11.2307 12.6319 11.3681C12.7693 11.5055 12.9556 11.5827 13.1499 11.5827C13.3442 11.5827 13.5306 11.5055 13.668 11.3681L16.3945 8.64113V10.7064C16.3965 10.8993 16.4746 11.0837 16.6117 11.2194C16.7488 11.3552 16.934 11.4313 17.127 11.4313C17.3199 11.4313 17.5051 11.3552 17.6422 11.2194C17.7793 11.0837 17.8574 10.8993 17.8594 10.7064V6.87309Z" fill="#0F73F6"/>
</svg>
